<svg width="62" height="62" viewBox="0 0 62 62" fill="none" xmlns="http://www.w3.org/2000/svg">
<g clip-path="url(#clip0_111_1895)">
<path d="M29.0625 29.76H17.4375C17.0519 29.76 16.74 29.448 16.74 29.0625V17.4375C16.74 17.0519 17.0519 16.74 17.4375 16.74H29.0625C29.448 16.74 29.76 17.0519 29.76 17.4375V29.0625C29.76 29.448 29.448 29.76 29.0625 29.76ZM18.135 28.365H28.365V18.135H18.135V28.365ZM29.76 44.5625V32.9375C29.76 32.5519 29.448 32.24 29.0625 32.24H17.4375V33.635H28.365V43.863H17.4375V45.26H29.0625C29.448 45.26 29.76 44.948 29.76 44.5625ZM45.26 17.4375C45.26 17.0519 44.9481 16.74 44.5625 16.74H32.9375V18.135H43.865V29.0625H45.2619L45.26 17.4375ZM31 60.76C22.2251 60.76 14.1127 57.0148 8.44749 50.4176V56.1875H7.05249V47.74H15.5V49.1369H9.18955C14.601 55.6547 22.4711 59.365 31 59.365C46.6395 59.365 59.365 46.6414 59.365 31H60.7619C60.76 47.4106 47.4106 60.76 31 60.76ZM2.63499 31H1.23999C1.23999 14.5894 14.5894 1.23999 31 1.23999C39.7749 1.23999 47.8872 4.98518 53.5525 11.5804V5.81249H54.9494V14.26H46.5V12.865H52.8104C47.399 6.3453 39.5269 2.63499 31 2.63499C15.3586 2.63499 2.63499 15.3586 2.63499 31ZM44.5625 45.26H32.9375C32.5519 45.26 32.24 44.948 32.24 44.5625V32.9375C32.24 32.5519 32.5519 32.24 32.9375 32.24H44.5625C44.9481 32.24 45.26 32.5519 45.26 32.9375V44.5625C45.26 44.948 44.9481 45.26 44.5625 45.26ZM33.635 43.865H43.8631V33.635H33.635V43.865Z" fill="white"/>
</g>
<defs>
<clipPath id="clip0_111_1895">
<rect width="62" height="62" fill="white"/>
</clipPath>
</defs>
</svg>
