<svg width="62" height="62" viewBox="0 0 62 62" fill="none" xmlns="http://www.w3.org/2000/svg">
<g clip-path="url(#clip0_111_1898)">
<path d="M10.6565 27.3962C8.67055 27.3962 7.05273 29.0121 7.05273 31C7.05273 32.9879 8.66861 34.6037 10.6565 34.6037C12.6444 34.6037 14.2602 32.9859 14.2602 31C14.2602 29.014 12.6424 27.3962 10.6565 27.3962ZM10.6565 33.2087C9.43974 33.2087 8.44774 32.2187 8.44774 31C8.44774 29.7813 9.43974 28.7912 10.6565 28.7912C11.8732 28.7912 12.8652 29.7832 12.8652 31C12.8652 32.2167 11.8732 33.2087 10.6565 33.2087ZM10.6565 37.0837C8.67055 37.0837 7.05273 38.7015 7.05273 40.6875C7.05273 42.6734 8.66861 44.2912 10.6565 44.2912C12.6444 44.2912 14.2602 42.6734 14.2602 40.6875C14.2602 38.7015 12.6424 37.0837 10.6565 37.0837ZM10.6565 42.8962C9.43974 42.8962 8.44774 41.9062 8.44774 40.6875C8.44774 39.4688 9.43974 38.4787 10.6565 38.4787C11.8732 38.4787 12.8652 39.4688 12.8652 40.6875C12.8652 41.9062 11.8732 42.8962 10.6565 42.8962ZM10.6565 46.7712C8.67055 46.7712 7.05273 48.389 7.05273 50.375C7.05273 52.3609 8.66861 53.9787 10.6565 53.9787C12.6444 53.9787 14.2602 52.3609 14.2602 50.375C14.2602 48.389 12.6424 46.7712 10.6565 46.7712ZM10.6565 52.5837C9.43974 52.5837 8.44774 51.5937 8.44774 50.375C8.44774 49.1563 9.43974 48.1662 10.6565 48.1662C11.8732 48.1662 12.8652 49.1563 12.8652 50.375C12.8652 51.5937 11.8732 52.5837 10.6565 52.5837ZM55.6937 46.994L58.3791 49.6775H43.3247V41.385H52.5666L49.8812 44.0684L50.8693 45.0565L55.2364 40.6875L50.8693 36.3184L49.8812 37.3065L52.5666 39.99H43.3247V31.6975H58.381L55.6956 34.3809L56.6837 35.369L61.0489 31L56.6818 26.6329L55.6937 27.619L58.3791 30.3044H43.3227V7.74999C43.3227 7.36443 43.0108 7.05249 42.6252 7.05249H10.3852V2.63499H49.6777V25.1875H51.0747V1.93749C51.0747 1.55193 50.7627 1.23999 50.3772 1.23999H9.68774C9.30217 1.23999 8.99023 1.55193 8.99023 1.93749V7.05249H1.93773C1.55217 7.05249 1.24023 7.36443 1.24023 7.74999V60.0625C1.24023 60.448 1.55217 60.76 1.93773 60.76H42.6252C43.0108 60.76 43.3227 60.448 43.3227 60.0625V51.0725H58.3771L55.6917 53.7559L56.6799 54.744L61.0489 50.375L56.6818 46.0059L55.6937 46.994ZM41.9277 59.365H2.63523V8.44749H41.9277V30.3025H17.4377V31.6975H41.9277V39.99H17.4377V41.3869H41.9277V49.6775H17.4377V51.0744H41.9277V59.365Z" fill="white"/>
</g>
<defs>
<clipPath id="clip0_111_1898">
<rect width="62" height="62" fill="white"/>
</clipPath>
</defs>
</svg>
