<svg width="200" height="52" viewBox="0 0 200 52" fill="none" xmlns="http://www.w3.org/2000/svg">
<g style="mix-blend-mode:luminosity" opacity="0.8">
<path d="M117.922 9.14509C117.51 8.25788 116.89 7.57542 115.79 7.30243V6.82471C116.478 6.82471 118.679 6.89295 119.23 6.89295C119.711 6.89295 121.706 6.82471 122.394 6.82471V7.37068C121.775 7.50717 121.087 7.8484 121.087 8.46262C121.087 8.94035 121.362 9.48632 121.913 10.6465L126.866 21.7707L131.545 10.6465C131.889 9.7593 132.164 9.07684 132.164 8.53087C132.164 7.91665 131.613 7.50717 130.857 7.37068V6.82471C131.476 6.82471 132.989 6.89295 133.471 6.89295C133.884 6.89295 135.673 6.82471 136.361 6.82471V7.37068C135.191 7.71191 134.503 8.32613 133.815 9.82755L126.935 25.8655H125.49L117.922 9.14509Z" fill="black"/>
<path d="M51.4624 25.1829C52.3568 24.9782 52.976 24.5687 52.976 23.545V8.94025C52.976 7.9848 52.3568 7.57532 51.4624 7.30234V6.75637C51.944 6.75637 53.9392 6.82461 54.4208 6.82461C54.9712 6.82461 57.104 6.75637 57.5855 6.75637V7.30234C56.6912 7.50708 56.0032 7.91656 56.0032 8.94025V15.0824H67.0111V8.94025C67.0111 7.91656 66.4607 7.50708 65.4975 7.30234V6.75637C65.9791 6.75637 68.0431 6.82461 68.6623 6.82461C69.1439 6.82461 71.2078 6.75637 71.6894 6.75637V7.30234C70.795 7.50708 70.1071 7.91656 70.1071 8.94025V23.6132C70.1071 24.5687 70.7262 24.9782 71.6894 25.2512V25.7289C71.2078 25.7289 69.1439 25.6606 68.6623 25.6606C68.1119 25.6606 65.9791 25.7289 65.4975 25.7289V25.2512C66.3919 25.0464 67.0111 24.6369 67.0111 23.6132V16.6521H56.0032V23.6132C56.0032 24.6369 56.6224 24.9782 57.5855 25.2512V25.7289C57.104 25.7289 54.9712 25.6606 54.4208 25.6606C53.9392 25.6606 51.8752 25.7289 51.4624 25.7289V25.1829ZM74.7166 25.1829C75.8862 24.9099 76.5742 24.1592 77.0558 23.0673L83.1789 8.53077C83.4541 7.91656 83.7293 6.68812 83.7293 6.68812H85.4493C85.4493 6.68812 85.7245 7.91656 85.9997 8.53077L92.4669 23.1355C92.9485 24.1592 93.4301 24.8417 94.7373 25.1829V25.6606C94.0493 25.6606 91.8477 25.5924 91.3661 25.5924C90.8845 25.5924 88.8205 25.6606 88.1325 25.6606V25.1829C89.0957 24.9782 89.3709 24.5004 89.3709 24.0227C89.3709 23.6132 89.2333 23.2038 89.0269 22.726L87.6509 19.6549H80.4958L79.2574 22.7943C79.1198 23.1355 78.9134 23.6815 78.9134 24.0227C78.9134 24.5687 79.1886 24.9782 80.2894 25.2512V25.7289C79.6702 25.7289 78.019 25.6606 77.6062 25.6606L74.8542 25.7289L74.7166 25.1829ZM86.8941 18.1535L83.8669 11.1241L81.0462 18.1535H86.8941ZM74.7166 25.1829C75.8862 24.9099 76.5742 24.1592 77.0558 23.0673L83.1789 8.53077C83.4541 7.91656 83.7293 6.68812 83.7293 6.68812H85.4493C85.4493 6.68812 85.7245 7.91656 85.9997 8.53077L92.4669 23.1355C92.9485 24.1592 93.4301 24.8417 94.7373 25.1829V25.6606C94.0493 25.6606 91.8477 25.5924 91.3661 25.5924C90.8845 25.5924 88.8205 25.6606 88.1325 25.6606V25.1829C89.0957 24.9782 89.3709 24.5004 89.3709 24.0227C89.3709 23.6132 89.2333 23.2038 89.0269 22.726L87.6509 19.6549H80.4958L79.2574 22.7943C79.1198 23.1355 78.9134 23.6815 78.9134 24.0227C78.9134 24.5687 79.1886 24.9782 80.2894 25.2512V25.7289C79.6702 25.7289 78.019 25.6606 77.6062 25.6606L74.8542 25.7289L74.7166 25.1829ZM86.8941 18.1535L83.8669 11.1241L81.0462 18.1535H86.8941ZM135.191 25.1829C136.361 24.9099 137.049 24.1592 137.462 23.0673L143.585 8.53077C143.86 7.91656 144.135 6.68812 144.135 6.68812H145.855C145.855 6.68812 146.13 7.91656 146.406 8.53077L152.873 23.1355C153.354 24.1592 153.836 24.8417 155.143 25.1829V25.6606C154.455 25.6606 152.254 25.5924 151.772 25.5924C151.29 25.5924 149.226 25.6606 148.538 25.6606V25.1829C149.502 24.9782 149.777 24.5004 149.777 24.0227C149.777 23.6132 149.639 23.2038 149.433 22.726L148.057 19.6549H140.902L139.663 22.7943C139.526 23.1355 139.319 23.6815 139.319 24.0227C139.319 24.5687 139.594 24.9782 140.626 25.2512V25.7289C140.007 25.7289 138.356 25.6606 138.012 25.6606L135.191 25.7289V25.1829ZM147.3 18.1535L144.273 11.1241L141.452 18.1535H147.3ZM179.223 25.1829C180.393 24.9782 181.012 24.5004 181.012 23.4767V8.94025C181.012 7.91656 180.393 7.50708 179.292 7.30234V6.75637C179.911 6.75637 182.044 6.82461 182.594 6.82461C183.557 6.82461 186.172 6.61987 188.167 6.61987C194.978 6.61987 199.037 10.3734 199.037 16.1061C199.037 21.6341 194.772 25.7971 187.754 25.7971C185.759 25.7971 183.282 25.6606 182.388 25.6606C181.837 25.6606 179.842 25.7289 179.223 25.7289V25.1829ZM184.108 24.2275C184.796 24.3639 186.103 24.4322 187.066 24.4322C192.776 24.4322 195.735 21.0199 195.735 16.3109C195.735 11.3971 192.639 7.91656 187.273 7.91656C186.172 7.91656 184.796 7.9848 184.108 8.12129V24.2275Z" fill="black"/>
<path d="M102.305 23.4769C102.305 24.4323 102.924 24.9783 104.094 25.2513V25.7972C103.474 25.7972 101.41 25.729 100.791 25.729C100.31 25.729 98.2457 25.7972 97.6265 25.7972V25.2513C98.6585 25.0465 99.3465 24.5006 99.3465 23.4769V8.94037C99.3465 8.05316 98.8649 7.50719 97.6265 7.30245V6.75648C98.2457 6.75648 100.241 6.82473 100.86 6.82473C101.823 6.82473 104.438 6.68823 105.47 6.68823C110.01 6.68823 112.556 8.53089 112.556 11.7385C112.556 14.2636 110.63 15.9697 107.74 16.6522C107.74 16.6522 108.428 17.0617 109.047 17.8124C109.873 18.7679 112.143 21.9072 113.038 22.9991C113.932 24.0911 115.102 25.3195 116.34 25.3878V25.7972C115.721 25.9337 114.826 26.002 114.07 26.002C112.487 26.002 111.249 25.456 110.079 24.0228C109.047 22.7944 107.19 20.1328 106.089 18.7679C105.401 17.9489 104.644 17.2664 103.13 17.0617C102.855 16.9934 102.58 16.9934 102.236 16.9252V23.4769H102.305ZM102.305 15.765C102.924 15.8333 103.818 15.9015 104.713 15.9015C108.29 15.9015 109.391 13.8541 109.391 12.0797C109.391 9.55458 107.671 7.91667 104.575 7.91667C103.956 7.91667 102.993 7.98491 102.374 8.12141V15.765H102.305Z" fill="black"/>
<path d="M162.436 23.4769C162.436 24.4323 163.055 24.9783 164.224 25.2513V25.7972C163.605 25.7972 161.541 25.729 160.922 25.729C160.44 25.729 158.377 25.7972 157.757 25.7972V25.2513C158.789 25.0465 159.477 24.5006 159.477 23.4769V8.94037C159.477 8.05316 158.996 7.50719 157.826 7.30245V6.75648C158.445 6.75648 160.441 6.82473 161.06 6.82473C162.023 6.82473 164.637 6.68823 165.669 6.68823C170.21 6.68823 172.756 8.53089 172.756 11.7385C172.756 14.2636 170.829 15.9697 167.94 16.6522C167.94 16.6522 168.628 17.0617 169.247 17.8124C170.072 18.7679 172.274 21.9072 173.168 22.9991C174.063 24.0911 175.232 25.3195 176.471 25.3878V25.7972C175.852 25.9337 174.957 26.002 174.2 26.002C172.618 26.002 171.38 25.456 170.21 24.0228C169.178 22.7944 167.389 20.1328 166.357 18.7679C165.669 17.9489 164.912 17.2664 163.399 17.0617C163.124 16.9934 162.848 16.9934 162.504 16.9252V23.4769H162.436ZM162.436 15.765C163.055 15.8333 163.949 15.9015 164.844 15.9015C168.421 15.9015 169.522 13.8541 169.522 12.0797C169.522 9.55458 167.802 7.91667 164.706 7.91667C164.087 7.91667 163.124 7.98491 162.504 8.12141V15.765H162.436Z" fill="black"/>
<path d="M132.439 41.9715H132.714C132.852 42.5175 133.196 42.9952 133.609 43.3364C134.09 43.6776 134.778 43.8141 135.397 43.8141C136.705 43.8141 137.53 43.1999 137.53 42.1762C137.53 41.1525 136.498 40.6748 135.26 40.0606C134.297 39.5829 132.439 38.9004 132.439 37.0577C132.439 35.4198 133.746 34.3279 135.741 34.3279C137.049 34.3279 137.737 34.6691 138.631 34.6009V36.58H138.287C137.943 35.4198 136.842 35.0103 135.673 35.0103C134.365 35.0103 133.815 35.7611 133.815 36.5118C133.815 37.6037 135.053 38.2179 136.154 38.7639C137.53 39.3781 138.975 40.0606 138.975 41.7667C138.975 43.4047 137.737 44.4966 135.397 44.4966C134.021 44.4966 133.196 44.1554 132.439 44.0189V41.9715Z" fill="#C41230"/>
<path d="M153.217 44.019C153.698 43.8825 153.974 43.6777 153.974 43.2V35.6247C153.974 35.1469 153.698 34.9422 153.217 34.8057V34.5327C153.423 34.5327 154.524 34.601 154.799 34.601C155.074 34.601 156.175 34.5327 156.45 34.5327V34.8057C155.969 34.9422 155.625 35.1469 155.625 35.6247V38.764H161.266V35.6247C161.266 35.0787 160.991 34.8739 160.51 34.8057V34.5327C160.785 34.5327 161.817 34.601 162.161 34.601C162.436 34.601 163.468 34.5327 163.743 34.5327V34.8057C163.262 34.9422 162.918 35.1469 162.918 35.6247V43.2C162.918 43.6777 163.262 43.8825 163.743 44.019V44.292C163.537 44.292 162.436 44.292 162.161 44.292C161.886 44.292 160.785 44.292 160.51 44.292V44.019C160.991 43.8825 161.266 43.6777 161.266 43.2V39.583H155.625V43.1318C155.625 43.6777 155.969 43.8142 156.45 43.9507V44.2237C156.244 44.2237 155.074 44.2237 154.799 44.2237C154.524 44.2237 153.492 44.2237 153.217 44.2237V44.019Z" fill="#C41230"/>
<path d="M150.464 41.835L150.327 44.0189C149.57 43.9506 148.538 44.4966 146.818 44.4966C143.172 44.4966 141.521 42.3127 141.521 39.4464C141.521 36.4435 143.653 34.3279 146.749 34.3279C148.263 34.3279 149.226 34.8739 150.189 34.8056L150.258 36.9895H149.983C149.432 35.6928 148.125 35.0786 146.749 35.0786C144.479 35.0786 143.24 37.0577 143.24 39.4464C143.24 41.4255 144.204 43.8141 146.956 43.8141C148.469 43.8141 149.639 43.2682 150.12 41.835H150.464Z" fill="#C41230"/>
<path d="M166.151 39.4464C166.151 36.6483 168.146 34.3279 171.242 34.3279C174.338 34.3279 176.333 36.6483 176.333 39.4464C176.333 42.2445 174.338 44.4966 171.242 44.4966C168.077 44.4966 166.151 42.2445 166.151 39.4464ZM174.544 39.4464C174.544 37.1942 173.512 35.0103 171.242 35.0103C168.903 35.0103 167.871 37.126 167.871 39.4464C167.871 41.6985 168.903 43.8141 171.242 43.8141C173.512 43.8141 174.544 41.6985 174.544 39.4464Z" fill="#C41230"/>
<path d="M178.535 39.4464C178.535 36.6483 180.53 34.3279 183.626 34.3279C186.722 34.3279 188.717 36.6483 188.717 39.4464C188.717 42.2445 186.722 44.4966 183.626 44.4966C180.461 44.4966 178.535 42.2445 178.535 39.4464ZM186.928 39.4464C186.928 37.1942 185.896 35.0103 183.626 35.0103C181.287 35.0103 180.255 37.126 180.255 39.4464C180.255 41.6985 181.287 43.8141 183.626 43.8141C185.896 43.8141 186.928 41.6985 186.928 39.4464Z" fill="#C41230"/>
<path d="M66.8734 34.5327H73.0654C73.2718 34.5327 73.6158 34.5327 73.7534 34.3962H74.0286L73.9598 36.3754H73.6846C73.4782 35.7612 73.1342 35.2834 71.8958 35.2834H69.2814V38.8323C69.2814 38.8323 71.2766 38.8323 71.4142 38.8323C71.6894 38.8323 72.1022 38.8323 72.2398 38.764C72.7214 38.6958 72.9278 38.4228 72.9966 38.0133H73.2718C73.2718 38.2863 73.2718 38.9688 73.2718 39.1735C73.2718 39.3782 73.2718 40.0607 73.2718 40.4019H72.9966C72.859 39.9924 72.6526 39.7195 72.2398 39.583C72.1022 39.5147 71.6894 39.5147 71.4142 39.5147C71.2766 39.5147 69.2814 39.5147 69.2814 39.5147V43.473H72.2398C73.4782 43.473 73.891 42.927 74.1662 42.1763L74.4414 42.2446L74.1662 44.292C73.203 44.2237 72.6526 44.2237 71.6206 44.2237H68.4558C68.1806 44.2237 67.0798 44.292 66.7358 44.292V44.019C67.2862 43.8825 67.6302 43.6778 67.6302 43.1318V35.6247C67.6302 35.147 67.355 34.874 66.7358 34.7375V34.5327H66.8734Z" fill="#C41230"/>
<path d="M90.5404 35.6929C90.5404 35.2152 90.2652 34.9422 89.646 34.8057V34.5327C89.99 34.5327 91.0908 34.601 91.366 34.601C91.6412 34.601 92.742 34.5327 93.086 34.5327V34.8057C92.4668 34.9422 92.1916 35.1469 92.1916 35.6929V43.1318C92.1916 43.6095 92.4668 43.8825 93.086 44.019V44.292C92.742 44.292 91.71 44.2237 91.366 44.2237C91.0908 44.2237 89.99 44.292 89.646 44.292V44.019C90.2652 43.8825 90.5404 43.6777 90.5404 43.1318V35.6929Z" fill="#C41230"/>
<path d="M105.745 44.0189C106.364 43.8824 106.708 43.4729 106.915 42.9269L110.079 35.4198C110.217 35.0786 110.355 34.4644 110.355 34.4644H111.249C111.249 34.4644 111.387 35.0786 111.524 35.4198L114.827 42.9269C115.033 43.4729 115.308 43.8141 115.996 44.0189V44.2918C115.652 44.2918 114.483 44.2918 114.276 44.2918C114.001 44.2918 112.969 44.2918 112.625 44.2918V44.0189C113.107 43.8824 113.244 43.6776 113.244 43.4046C113.244 43.1999 113.175 42.9952 113.038 42.7222L112.35 41.1525H108.703L108.084 42.7904C108.016 42.9952 107.947 43.2681 107.947 43.4046C107.947 43.6776 108.084 43.8824 108.635 44.0189V44.2918C108.291 44.2918 107.465 44.2918 107.259 44.2918H105.814L105.745 44.0189ZM112.075 40.3335L110.492 36.7165L109.047 40.3335H112.075Z" fill="#C41230"/>
<path d="M104.438 41.835L104.3 44.0189C103.543 43.9506 102.511 44.4966 100.791 44.4966C97.1448 44.4966 95.4937 42.3127 95.4937 39.4464C95.4937 36.4435 97.6264 34.3279 100.722 34.3279C102.236 34.3279 103.199 34.8739 104.162 34.8056L104.231 36.9895H103.956C103.406 35.6928 102.098 35.0786 100.722 35.0786C98.452 35.0786 97.2136 37.0577 97.2136 39.4464C97.2136 41.4255 98.1768 43.8141 100.929 43.8141C102.442 43.8141 103.612 43.2682 104.094 41.835H104.438Z" fill="#C41230"/>
<path d="M125.353 42.2446C125.009 42.9953 124.665 43.5412 123.426 43.5412H120.399V35.6929C120.399 35.1469 120.674 34.9422 121.293 34.8057V34.5327C120.949 34.5327 119.849 34.601 119.574 34.601C119.298 34.601 118.198 34.5327 117.854 34.5327V34.8057C118.473 34.9422 118.748 35.2152 118.748 35.6929V43.1318C118.748 43.6777 118.473 43.9507 117.854 44.019V44.292C118.198 44.292 119.298 44.2237 119.574 44.2237H122.738C123.77 44.2237 124.389 44.2237 125.284 44.292L125.559 42.2446H125.353Z" fill="#C41230"/>
<path d="M198.418 42.2446C198.074 42.9953 197.73 43.5412 196.491 43.5412H193.533V35.6929C193.533 35.1469 193.808 34.9422 194.427 34.8057V34.5327C194.083 34.5327 192.982 34.601 192.707 34.601C192.432 34.601 191.331 34.5327 190.987 34.5327V34.8057C191.606 34.9422 191.882 35.2152 191.882 35.6929V43.1318C191.882 43.6777 191.606 43.9507 190.987 44.019V44.292C191.331 44.292 192.432 44.2237 192.707 44.2237H195.872C196.904 44.2237 197.523 44.2237 198.418 44.292L198.693 42.2446H198.418Z" fill="#C41230"/>
<path d="M77.1934 44.0189C77.8126 43.8824 78.0878 43.6776 78.0878 43.1317V35.6245C78.0878 35.0786 77.7438 34.8738 77.1934 34.8056V34.5326C77.5374 34.5326 78.6381 34.6008 78.9133 34.6008C79.3949 34.6008 80.7021 34.4644 81.7341 34.4644C85.2429 34.4644 87.3757 36.3753 87.3757 39.3781C87.3757 42.2445 85.1741 44.3601 81.5965 44.3601C80.5645 44.3601 79.3949 44.2918 78.9133 44.2918C78.6381 44.2918 77.6062 44.3601 77.2622 44.3601V44.0189H77.1934ZM79.6701 43.5411C80.0141 43.6094 80.6333 43.6094 81.1149 43.6094C84.0733 43.6094 85.5869 41.9715 85.5869 39.3781C85.5869 36.853 84.0045 35.0786 81.2525 35.0786C80.7021 35.0786 80.0829 35.1468 79.6701 35.2151V43.5411Z" fill="#C41230"/>
<path d="M63.2272 42.927L62.7456 35.6929C62.6768 35.2152 62.952 34.9422 63.5024 34.8057V34.5327C63.0896 34.5327 62.4704 34.5327 62.1952 34.5327C61.9888 34.5327 61.5072 34.5327 61.1632 34.5327L57.9296 42.0398L54.696 34.5327C54.352 34.5327 53.8704 34.5327 53.5952 34.5327C53.3888 34.5327 52.632 34.5327 52.2192 34.5327V34.8057C52.7696 34.8739 53.0448 35.2152 53.0448 35.6929L52.4944 42.927C52.4256 43.473 52.1504 43.8825 51.5312 44.0872V44.3602H52.9072C53.1136 44.3602 53.9392 44.3602 54.2832 44.3602V44.0872C53.5952 43.8825 53.4576 43.5412 53.4576 43.0635L53.8704 36.6484L57.2416 44.3602H57.792L61.1632 36.6484L61.576 43.1318C61.576 43.5412 61.4384 43.9507 60.7504 44.1555V44.4284C61.0944 44.4284 62.264 44.4284 62.4704 44.4284H64.1903V44.1555C63.5712 43.8825 63.296 43.5412 63.2272 42.927Z" fill="#C41230"/>
<path d="M21.6033 1.02368H1.10103L1.03223 17.2663C1.03223 37.1943 21.1905 49.8881 21.3969 50.0246L21.4657 50.0929C21.5345 50.0929 21.6721 50.0246 21.6721 50.0246C25.112 47.7725 42.1743 35.7611 42.1743 17.4028V1.09193C42.1055 1.02368 21.6033 1.02368 21.6033 1.02368ZM42.0367 15.4237H1.44502V13.1033H42.0367V15.4237Z" fill="#C41230"/>
<path d="M7.98119 3.00284C9.35718 2.45687 10.8708 2.86635 12.3844 2.72985C12.7972 2.7981 13.3475 2.52511 13.6227 2.93459C13.6227 3.34407 13.6227 3.75355 13.6227 4.23127C13.7603 4.57251 14.2419 4.36777 14.4483 4.50426C14.5859 4.57251 14.7235 4.64075 14.7923 4.84549C14.8611 5.05023 14.7923 5.25497 14.7235 5.45971C14.4483 5.7327 14.1043 5.66445 13.6915 5.7327L13.5539 5.86919C13.6227 6.68815 13.4163 7.37061 13.5539 8.12132C13.5539 8.25782 13.4851 8.5308 13.6915 8.59905C14.1043 8.59905 14.4483 8.59905 14.7235 8.87203C14.8611 9.07677 14.8611 9.28151 14.7923 9.5545C14.6547 10.3735 13.3476 9.418 13.4851 10.3735C13.4851 10.7147 13.5539 11.1924 13.4163 11.5336C11.9028 11.5336 10.3892 11.3972 9.01319 11.5336C8.73799 11.7384 8.46279 11.8749 8.04999 11.9431C7.77479 11.8749 7.4996 11.7384 7.2932 11.5336C5.91721 11.4654 4.61002 11.4654 3.30283 11.4654C2.89003 11.1242 3.16523 10.5099 3.02763 10.0322C2.82123 9.75924 2.47724 9.96398 2.20204 9.82748C1.99564 9.82748 1.92684 9.62274 1.85804 9.48625C1.85804 9.21327 1.85804 8.94028 2.06444 8.73554C2.27084 8.59905 2.61484 8.59905 2.89003 8.59905L3.02763 8.46255C2.95883 7.57535 3.16523 6.68815 2.95883 5.7327C2.82123 5.52796 2.54604 5.7327 2.40844 5.5962C2.20204 5.52796 1.92684 5.39146 1.85804 5.11848C1.78924 4.91374 1.78924 4.709 1.99564 4.50426C2.27084 4.16303 2.82123 4.57251 3.09643 4.23127L3.23403 2.93459C3.44043 2.52511 3.92203 2.72985 4.33482 2.72985C5.02282 2.59336 5.84841 2.72985 6.5364 2.72985C7.0868 2.72985 7.5684 2.86635 7.98119 3.00284Z" fill="black"/>
<path d="M9.83854 17.2664L9.76974 17.5393C9.76974 17.6758 9.63214 17.8123 9.49454 17.7441L8.94415 17.6758C8.73775 17.6076 8.53135 17.5393 8.32495 17.6076C8.25615 17.6758 8.11856 17.7441 7.98096 17.8806C8.04976 17.8806 8.04976 17.9488 8.04976 17.9488C8.18735 18.0171 8.46255 18.0853 8.53135 18.4265C8.53135 18.6995 8.66895 18.9043 8.80655 19.0408L8.87535 19.1773C8.94415 19.2455 8.94415 19.3138 8.94415 19.382C8.94415 19.4502 8.94415 19.4502 8.87535 19.5185L8.60015 19.8597L8.46255 19.9962C8.46255 19.9962 8.32495 20.3374 8.25615 20.4739C8.32495 20.6104 8.39375 20.6787 8.46255 20.6787C8.73775 20.6104 8.94415 20.6787 9.15055 20.6787L9.56334 20.7469H9.63214H9.76974C9.90734 20.7469 10.1825 20.6787 10.3889 20.8152C10.3889 20.8152 10.5953 21.1564 10.5953 21.2247C10.6641 21.3611 10.6641 21.4294 10.6641 21.5659C10.6641 21.7024 10.6641 21.8389 10.5953 21.9754L10.5265 22.1801C10.5265 22.2483 10.5265 22.3166 10.4577 22.3166C10.1137 22.8626 9.63214 23.272 9.01295 23.545C9.08175 23.545 9.08175 23.545 9.08175 23.545C9.08175 23.545 9.08175 23.545 9.08175 23.6133C9.15055 23.6815 9.35695 23.6815 9.56334 23.6133H9.70094C9.97614 23.6133 10.1825 23.545 10.4577 23.4085L11.2145 23.2038C11.3521 23.1356 11.4209 23.272 11.4897 23.3403C11.6273 23.6133 11.8337 23.818 11.9713 23.9545C11.9713 23.9545 11.9713 23.9545 12.1089 23.818C12.2465 23.6815 12.5217 23.4768 12.8657 23.6133C12.8657 23.6133 12.9345 23.6133 12.9345 23.6815C13.2097 23.8863 13.2785 24.1592 13.3473 24.364C13.4161 24.5005 13.4161 24.7052 13.5537 24.7735C13.6225 24.8417 13.6225 24.91 13.6225 24.91V24.9782C13.6225 25.2512 13.3473 25.3877 13.2785 25.3877H13.2097L13.1409 25.4559L12.5217 25.5924C12.3153 25.5924 12.1089 25.6607 11.9713 25.7289C11.9713 25.7289 11.9713 25.7972 12.0401 25.7972C12.3153 25.9337 12.7281 26.0019 13.1409 26.0701L13.3473 26.1384H13.8289H14.6545C14.7921 26.1384 14.7921 26.2066 14.8609 26.2749C14.9297 26.3431 14.8609 26.4796 14.7921 26.5479L14.6545 26.7526L14.5857 26.8209L13.2785 27.7081C13.2097 27.7081 12.5217 27.981 12.5217 27.981L11.4897 28.3905H11.4209C10.8017 28.527 10.4577 28.1858 10.1137 27.981C9.90734 27.7763 9.70094 27.6398 9.42575 27.6398C9.21935 27.6398 9.01295 27.7081 8.87535 27.8446C8.80655 27.9128 8.80655 27.981 8.80655 28.1175C8.80655 28.1858 8.80655 28.1858 8.80655 28.254H8.87535C9.01295 28.3223 9.28815 28.3905 9.28815 28.7318C9.28815 29.2095 9.08175 29.5507 8.87535 29.8919C8.73775 30.1649 8.53135 30.5062 8.53135 30.7792V30.8474C8.53135 30.9156 8.53135 30.9839 8.60015 30.9839H8.66895H8.73775L8.80655 30.8474C8.87535 30.7109 9.01295 30.5062 9.28815 30.4379H9.35695C9.90734 30.5062 10.1825 30.4379 10.3889 30.2332C10.4577 30.1649 10.5265 30.1649 10.5265 30.1649C10.6641 30.1649 10.8705 30.1649 11.0081 30.3014C11.1457 30.4379 11.2145 30.5744 11.2145 30.7109C11.2145 30.7109 11.2145 30.7792 11.2145 30.8474C11.5585 30.7792 11.7649 30.5062 12.0401 30.0967L12.1777 29.8919C12.2465 29.8237 12.3153 29.7555 12.3841 29.7555L12.5905 29.6872C12.8657 29.619 13.1409 29.4825 13.4849 29.6872C13.5537 29.7555 13.6225 29.8237 13.6225 29.8919C13.6225 29.9602 13.6225 30.0284 13.6225 30.0967C13.6225 30.3697 13.4849 30.5744 13.4161 30.7792C13.4161 30.7792 13.3473 30.9156 13.3473 31.0521C13.8289 30.9156 14.2417 30.5062 14.5857 30.0284L14.7921 29.7555C14.8609 29.619 14.9985 29.2777 15.4113 29.2777H15.4801C15.6865 29.346 15.7553 29.2777 15.9617 28.9365L16.3745 28.527C16.4433 28.4588 16.4433 28.4588 16.5809 28.4588H16.7185C16.7873 28.4588 16.8561 28.4588 16.9249 28.527C16.9937 28.5953 16.9937 28.5953 16.9937 28.6635V29.073C17.0625 29.073 17.2689 28.9365 17.4065 28.9365L17.9569 28.5953C18.0257 28.527 18.0945 28.527 18.2321 28.5953L20.2961 29.1412C20.7089 29.2777 20.7777 29.5507 20.7777 29.8237C20.7777 29.892 20.7777 30.0284 20.7777 30.0284C20.7777 30.0967 20.7777 30.1649 20.7777 30.2332C20.7777 30.3014 20.7777 30.3014 20.8465 30.3697C20.9153 30.4379 20.9153 30.5062 20.9153 30.5744C20.9153 30.6427 20.9153 30.6427 20.9153 30.7109C20.8465 30.9156 20.6401 31.1204 20.0897 31.1204L19.0577 31.1886C18.2321 31.1886 17.4065 31.1886 16.7873 31.7346L16.2369 32.2806C16.1681 32.3488 16.0993 32.3488 16.0305 32.3488C15.6177 32.3488 15.3425 32.5536 14.9985 32.7583C14.7233 32.963 14.3793 33.1678 13.9665 33.236C13.6913 33.3725 13.3473 33.3725 13.0721 33.3725C12.7969 33.3725 12.6593 33.3725 12.5905 33.4408C12.8657 33.782 13.3473 33.9185 13.8289 34.055C13.8977 34.055 14.1041 34.1232 14.1041 34.1232C14.3105 34.1232 14.6545 34.1232 14.7921 34.4645C14.7921 34.4645 14.7921 34.5327 14.7921 34.601C14.7921 34.8739 14.8609 35.0104 14.9985 35.0104H15.0673C15.1361 34.9422 15.4113 34.8057 15.7553 35.0104C15.8241 35.0787 16.2369 35.4882 16.2369 35.4882L16.7873 36.0341C16.8561 36.1024 16.8561 36.2389 16.7873 36.3071C16.5809 36.7166 16.0993 36.6483 15.8241 36.6483H15.6177H15.3425C14.9297 36.7166 14.3105 36.8531 13.8977 36.3071L13.9665 36.3754L13.3473 36.1706C13.0033 35.8976 12.7281 35.6247 12.3153 35.6247C11.9025 35.7611 11.6961 35.8976 11.6961 36.1024L11.7649 36.2389L11.9713 36.4436C12.0401 36.5119 12.0401 36.5801 12.0401 36.5801C12.0401 36.5801 12.0401 36.5801 12.0401 36.6483C12.0401 36.7166 11.9713 36.7848 11.9025 36.8531C11.5585 37.0578 11.1457 37.3991 11.1457 37.8085C11.1457 37.8768 11.1457 37.945 11.1457 37.945C11.1457 37.945 11.1457 37.945 11.1457 38.0133C11.2145 38.0133 11.2833 37.945 11.2833 37.945C11.4209 37.8768 11.6961 37.8085 11.9713 37.945C12.0401 38.0133 12.1089 38.0815 12.1089 38.1498V38.491C12.1089 38.8322 12.1777 38.9687 12.2465 39.1052C12.3153 39.1052 12.3841 39.037 12.3841 39.037C12.5905 38.9005 13.0033 38.764 13.4161 39.037C13.4849 39.037 13.6225 39.037 13.8289 38.9005L14.2417 38.6957C14.3105 38.6957 14.3105 38.6957 14.3105 38.6957C14.9985 38.6957 15.3425 39.31 15.4801 39.7194C15.8241 39.9924 16.0993 40.1289 16.3057 40.0607V39.9924C16.3057 39.9242 16.3057 39.8559 16.3057 39.7194C16.3057 39.6512 16.2369 39.5147 16.2369 39.3782C16.2369 39.1052 16.3057 38.8322 16.7185 38.6957C16.7873 38.6957 17.4065 38.6275 17.4065 38.6275H17.8193H17.8881C18.5073 38.6957 18.9889 38.6957 19.1953 38.2863C19.1953 38.2863 19.6769 37.5356 19.7457 37.3991C19.7457 37.3308 19.8145 36.9213 19.8145 36.9213C19.8145 36.7848 19.8833 36.7166 20.0209 36.7166C20.2273 36.6483 20.5025 36.7166 20.6401 36.7848C20.6401 36.7848 20.7089 36.7848 20.7777 36.8531C20.6401 36.5119 20.5713 36.1706 20.5713 35.8294C20.5713 35.6247 20.5713 35.4882 20.6401 35.2834C20.7777 34.8057 20.9841 34.3962 21.2592 34.055C21.328 33.9867 21.4656 33.9185 21.6032 33.9867L21.7408 34.055C21.8096 34.1232 21.8784 34.1915 21.9472 34.2597L22.0848 34.9422C22.1536 35.3517 22.2224 35.7611 22.4288 36.1706C22.4288 36.2389 22.4976 36.2389 22.4288 36.3071L22.1536 37.2626L21.9472 38.0133C21.7408 38.764 21.2592 39.31 20.5713 39.6512V39.7194C20.5713 39.7194 20.7089 39.7194 20.8465 39.7194C20.8465 39.7194 21.0529 39.7194 21.1217 39.7194C21.8784 39.6512 22.5664 39.2417 23.1168 38.6957C23.1856 38.6275 23.3232 38.5592 23.392 38.6275C23.5296 38.6957 23.6672 38.6275 23.8736 38.491C24.08 38.3545 24.4928 38.1498 24.9056 38.4228C25.0432 38.5592 25.3184 38.5592 25.5936 38.491C26.0064 38.491 26.6944 38.4228 26.832 39.1735V39.31V39.6512C26.9008 39.9924 26.9696 40.6749 26.2128 40.8796C26.144 40.8796 26.144 40.8796 26.0752 40.8796L25.3184 40.6066C24.6992 40.3337 24.424 40.2654 24.1488 40.6066C24.08 40.6749 24.0112 40.8114 24.0112 40.8796C24.08 41.0844 24.3552 41.4938 24.0112 41.8351C23.8048 42.1763 23.6672 42.381 23.8048 42.654C23.8048 42.654 23.8736 42.7223 24.08 42.654C24.3552 42.5175 24.6992 42.654 24.9744 42.7223L25.3184 42.8588C25.3872 42.8588 25.456 42.927 25.456 42.927L25.5936 42.9953C25.8688 43.2 26.0752 43.3365 26.3504 43.4047V43.3365L26.488 42.9953C26.5568 42.927 26.9696 42.7223 26.9696 42.7223C27.2448 42.5858 27.3136 42.5858 27.3136 42.4493C27.3824 41.9716 27.7264 41.4938 28.208 41.2209C28.2768 41.2209 28.3456 41.1526 28.4144 41.1526C28.552 41.1526 28.896 41.0161 29.0336 40.8796V40.8114L28.896 40.6749C28.8272 40.6066 28.8272 40.5384 28.7584 40.5384C28.7584 40.4701 28.7584 40.4019 28.7584 40.3337C28.7584 39.9924 28.9648 39.7194 29.1024 39.4465C29.24 39.2417 29.3088 39.037 29.3088 38.9005C29.3088 38.8322 29.3088 38.764 29.24 38.6275C29.24 38.5592 29.1712 38.5592 29.1712 38.5592L29.1024 38.0815C29.0336 37.7403 29.0336 37.5356 28.8272 37.3308L28.2768 37.0578L28.0704 36.8531C27.9328 36.7848 27.9328 36.7166 27.9328 36.5801C27.9328 36.3071 28.0704 36.1706 28.4144 36.1024H28.4832C28.8272 35.9659 29.1712 36.1024 29.4464 36.2389C29.7216 36.3071 29.7904 36.3071 29.8592 36.3071C29.7904 36.1024 29.584 35.8976 29.4464 35.6929C29.1024 35.4882 28.6896 35.3517 28.2768 35.2834C27.5888 35.1469 26.9008 34.9422 26.488 34.328C26.4192 34.2597 26.4192 34.1915 26.4192 34.1232C26.4192 34.055 26.4192 33.9867 26.488 33.9185L26.5568 33.8502C26.6256 33.782 26.7632 33.782 26.832 33.782C27.6576 33.9867 28.4832 33.782 29.0336 33.3043C29.3776 32.8948 29.7904 32.3488 30.4096 32.1441C30.8912 31.8028 30.96 31.1886 30.96 30.4379C30.96 30.0284 31.1664 29.7555 31.4416 29.4825L32.0608 29.2095C32.2672 29.1412 32.336 29.1412 32.336 29.073C31.992 28.9365 31.5792 28.7318 31.2352 28.8C31.1664 28.8 31.0976 28.8 31.0288 28.7318C30.8224 28.6635 30.8224 28.527 30.7536 28.3905V28.3223C30.7536 28.1175 30.8912 27.9811 31.0288 27.9128L31.0976 27.8446L31.1664 27.7763L31.7856 27.4351C32.6112 26.9574 33.1616 26.6844 33.1616 26.0019V25.9337C33.0928 26.0019 32.9552 26.0019 32.8864 26.1384L32.336 26.4114C31.9232 26.6161 31.4416 26.7526 31.0288 26.8209C30.5472 26.8891 30.1344 27.0256 29.7904 27.2303C29.7216 27.2303 29.7216 27.2986 29.6528 27.2986C29.5152 27.2986 29.3088 27.2303 29.3088 27.0256C29.3088 26.9574 29.3088 26.8891 29.3088 26.8209C29.3088 26.6844 29.3776 26.5479 29.4464 26.4796C29.584 26.2749 29.7904 26.1384 29.9968 26.0701C30.272 25.9337 30.4096 25.8654 30.4784 25.6607L30.5472 25.4559C30.6848 25.1147 30.8224 24.637 31.304 24.4322C31.3728 24.4322 31.7168 24.2275 31.7168 24.2275C31.7856 24.2275 31.8544 24.1592 31.8544 24.1592C31.8544 24.1592 31.8544 24.1592 31.7856 24.091C31.0976 23.8863 30.4096 24.4322 29.9968 24.7735L29.928 24.8417L29.584 24.91C29.1024 25.1147 28.6208 25.3194 28.3456 25.6607C28.3456 25.7289 28.2768 25.7289 28.208 25.7289C28.0704 25.7972 27.9328 25.7289 27.7952 25.6607C27.6576 25.5924 27.5888 25.4559 27.5888 25.3194C27.4512 24.2275 28.3456 23.4085 29.0336 22.7943L29.1712 22.6578L29.3088 22.5896L29.7216 22.3848C30.0656 22.1801 30.4784 21.9071 31.0288 22.1801C31.4416 22.3848 31.7856 22.5213 32.1296 22.4531C32.336 22.3848 32.4736 22.1801 32.68 21.9071C32.8176 21.7024 33.024 21.4294 33.2992 21.2247C33.5744 21.0882 33.8496 21.2247 34.0559 21.2247C34.1247 21.2247 34.3311 21.2929 34.3311 21.2929L34.3999 21.2247V21.1564C34.3999 20.9517 34.2623 20.7469 34.0559 20.4739L33.7808 20.1327C33.712 20.0645 33.712 20.0645 33.712 19.9962C33.712 19.928 33.712 19.928 33.712 19.8597C33.7808 19.655 33.8495 19.4502 33.8495 19.1773C33.8495 18.6313 33.6431 18.1536 33.2304 17.8123C33.0928 17.7441 32.8176 17.6076 32.5424 17.6076C32.5424 17.6758 32.6112 17.7441 32.6112 17.7441L32.8864 18.2901C32.8864 18.3583 32.8864 18.4265 32.8864 18.4948C32.8864 19.7232 31.8544 20.2692 30.96 20.6787L30.2032 21.0882C28.4832 21.9754 26.2128 23.3403 26.0752 25.5924C26.0752 26.7526 26.5568 27.8446 27.52 28.8C27.52 28.8 27.52 28.8683 27.5888 28.8683L27.9328 29.346C28.2768 29.8919 28.6896 30.4379 28.6896 31.1886C28.6896 31.3251 28.6896 31.5299 28.6208 31.7346C28.3456 32.4171 27.52 32.4171 27.2448 32.4171C25.5248 32.2806 24.6304 30.5744 23.9424 29.346L23.8048 29.1412L23.6672 28.8683C23.4608 28.4588 23.2544 28.0493 23.2544 27.5716C23.2544 27.5033 23.2544 27.3668 23.3232 27.3668C23.392 27.2986 23.5984 27.0938 23.9424 27.2986C24.0112 27.2986 24.2864 27.7763 24.2864 27.7763C24.3552 27.8446 24.3552 27.9128 24.3552 27.981C24.3552 27.9128 24.424 27.8446 24.424 27.7081C24.424 27.4351 24.2864 27.0938 24.1488 26.7526L24.08 26.6844C24.0112 26.5479 23.8048 26.3431 23.5984 26.2066C23.3232 26.0019 23.048 25.7289 22.9104 25.3877V25.3194C22.9104 25.3194 22.9104 25.3194 22.9104 25.2512C22.9104 24.8417 23.2544 24.7735 23.392 24.7052H23.4608C23.3232 24.2957 23.2544 23.818 23.2544 23.3403C23.2544 23.1356 23.2544 22.8626 23.3232 22.6578L23.736 22.2483C23.8736 22.1801 23.8736 22.1801 23.8736 22.1119C23.736 21.6341 23.736 21.0882 23.736 20.6104C23.736 20.4057 23.736 20.201 23.736 19.9962C23.736 19.928 23.8736 19.5185 23.8736 19.5185C23.9424 19.3138 24.0112 19.1773 24.0112 19.0408C24.0112 18.9725 24.0112 18.9725 24.0112 18.9043C23.736 18.7678 23.6672 18.4265 23.6672 18.2901V18.1536C23.736 18.1536 23.736 18.1536 23.736 18.1536C23.048 18.1536 22.4288 17.8806 21.8784 17.6076L21.328 17.3346C21.1905 17.2664 21.0529 17.3346 20.8465 17.4711L20.5025 17.6076L20.1585 17.6758C19.8145 17.7441 19.4705 17.8123 19.2641 18.0171C19.1265 18.1536 19.1265 18.3583 19.1265 18.6313V18.836V18.9043C19.0577 19.109 18.9201 19.1773 18.8513 19.1773C18.6449 19.2455 18.5073 19.1773 18.3697 19.109H18.3009C17.7505 18.836 17.5441 18.2901 17.6817 17.7441C17.6817 17.6758 17.6129 17.5393 17.6129 17.5393C17.4753 17.4711 17.2001 17.4029 16.9937 17.4711C16.8561 17.5393 16.7185 17.6758 16.6497 18.0171C16.6497 18.0171 16.5809 18.0853 16.5809 18.1536V18.2218C16.5809 18.4265 16.6497 18.6313 16.7185 18.6995C16.9249 18.9043 17.2689 19.109 17.6817 19.3138L18.5761 19.7915C18.6449 19.8597 18.6449 19.8597 18.6449 19.928C18.6449 19.9962 18.7137 20.1327 18.7137 20.201C18.7137 20.5422 18.5761 20.7469 18.4385 20.9517C18.5073 21.0199 18.7137 21.1564 18.7137 21.4294C18.7137 21.4976 18.7137 21.4976 18.7137 21.5659C18.7137 21.7024 18.5761 21.7706 18.5073 21.7706C17.9569 21.9071 17.4753 21.7706 17.0625 21.4976L16.7873 21.1564C16.7185 21.0199 16.6497 20.9517 16.5809 20.9517C16.5809 20.9517 16.5121 21.0882 16.5121 21.1564L16.3745 21.4294C16.3745 21.3611 16.3745 21.6341 16.3745 21.6341C16.3745 21.8389 16.3057 22.1119 16.0993 22.3166C16.0305 22.3848 15.9617 22.3848 15.8929 22.3848H15.6177C14.5169 22.0436 13.5537 21.4976 12.4529 20.6787C11.9713 20.3374 11.6273 19.8597 11.2833 19.382L11.0081 19.0408L10.9393 18.9725L10.8705 18.6313C10.6641 17.9488 10.5265 17.5393 10.0449 17.4029C9.90734 17.2664 9.83854 17.2664 9.83854 17.2664ZM18.3009 21.1564C18.3697 21.0882 18.3697 21.0882 18.3697 21.0199C18.3697 21.0199 18.3009 21.0882 18.3009 21.1564ZM23.5984 24.7735C23.6672 24.7735 23.6672 24.7735 23.5984 24.7735V24.7735ZM17.1313 29.346C17.1313 29.2777 17.1313 29.2777 17.1313 29.346V29.346Z" fill="white"/>
<path d="M1.30762 17.2663C1.30762 12.4891 1.30762 7.23411 1.30762 1.02368H42.2433C42.2433 1.02368 42.2433 3.41231 42.2433 17.3346C42.2433 37.8768 21.6035 49.9564 21.6035 49.9564C21.6035 49.9564 1.30762 37.3308 1.30762 17.2663Z" stroke="black" stroke-width="1.0714"/>
<path d="M29.8593 40.9478C29.7217 40.8113 29.5841 40.6066 29.5153 40.5383C29.3777 39.7876 30.4785 39.3099 29.9281 38.5592C29.7905 38.0814 29.9281 37.5355 29.4465 37.1942C29.1025 36.9213 28.6897 36.853 28.3457 36.6483C28.3457 36.4435 28.6209 36.5118 28.6897 36.4435C29.3089 36.307 29.7905 36.9895 30.2721 36.4435C30.3409 36.0341 29.9281 35.6928 29.6529 35.4198C28.7585 34.8056 27.4513 35.0786 26.7633 34.1232L26.8321 34.0549C27.6577 34.2596 28.6209 34.0549 29.2401 33.5089C29.5841 33.0312 29.9969 32.5535 30.5473 32.417C31.1665 31.9393 31.2353 31.1886 31.2353 30.5061C31.2353 30.2331 31.3729 29.9601 31.5793 29.7554C31.9233 29.4824 32.7489 29.5506 32.5425 28.9364C32.0609 28.6634 31.5793 28.4587 31.0977 28.5269C30.8225 28.3905 31.1665 28.1857 31.2353 28.1175C32.0609 27.5715 33.4369 27.2303 33.3681 25.9336C33.2993 25.7971 33.2993 25.5923 33.0929 25.5923C32.7489 25.6606 32.4737 26.0018 32.1297 26.1383C31.3041 26.616 30.3409 26.4796 29.5153 26.9573C29.3777 26.9573 29.3777 26.7525 29.4465 26.6843C29.7217 26.2748 30.3409 26.2748 30.5473 25.7288C30.6849 25.3194 30.7537 24.7734 31.2353 24.6369C31.5105 24.4322 31.9233 24.4322 32.0609 24.0909C32.0609 23.8862 31.7857 23.8179 31.6481 23.7497C30.8913 23.545 30.1345 23.9544 29.5841 24.5004C29.0337 24.7734 28.3457 24.9781 27.9329 25.3876C27.8641 25.3876 27.7265 25.3876 27.7265 25.2511C27.5889 24.1592 28.5521 23.4085 29.3089 22.7942C29.7905 22.6578 30.2721 22.0435 30.8225 22.3165C31.2353 22.5213 31.6481 22.726 32.1297 22.5895C32.7489 22.3848 32.8177 21.7023 33.3681 21.3611C33.7809 21.2246 34.3312 21.8388 34.6064 21.2246C34.744 20.6104 34.2624 20.2691 33.9872 19.8596C34.3312 19.0407 34.056 18.0852 33.3681 17.471C33.0241 17.2663 32.6113 17.1298 32.2673 17.2663C31.9921 17.6075 32.5425 17.8805 32.5425 18.2217C32.6801 19.7232 31.0289 20.0644 29.9969 20.7468C28.1393 21.7023 25.8689 23.1355 25.7313 25.5241C25.7313 26.8208 26.3505 28.0492 27.2449 28.9364C27.7265 29.7554 28.4833 30.5061 28.2081 31.598C28.0017 32.0075 27.5201 32.0758 27.1073 32.0758C25.5249 31.9393 24.6305 30.1649 23.9425 28.9364C23.7361 28.4587 23.4609 27.981 23.3921 27.435C23.4609 27.3668 23.5297 27.3668 23.6673 27.435C23.9425 27.708 23.9425 28.3222 24.4241 28.254C24.8369 27.708 24.5617 27.0255 24.2865 26.4796C24.0113 26.0018 23.3921 25.7288 23.1169 25.1829C23.1169 24.7734 23.6673 25.0464 23.7361 24.6369C23.5297 23.9544 23.4609 23.2037 23.5985 22.5895C23.7361 22.3165 24.1489 22.3165 24.1489 21.9753C23.9425 21.2928 23.9425 20.6786 24.0113 19.9279C24.0801 19.5184 24.4241 19.0407 24.2177 18.6312C23.7361 18.4947 24.1489 17.8805 23.6673 17.8123C22.7729 17.8123 22.0849 17.3345 21.3282 17.0615C20.9154 16.925 20.6402 17.198 20.2962 17.2663C19.8146 17.4028 19.2642 17.4028 18.9202 17.744C18.645 18.017 18.7138 18.3582 18.7138 18.7677C18.645 18.9724 18.4386 18.7677 18.301 18.7677C17.957 18.563 17.8194 18.1535 17.8882 17.744C17.957 17.5393 17.8882 17.4028 17.6818 17.2663C17.4066 17.1298 17.0626 16.9933 16.7874 17.1298C16.4434 17.2663 16.3058 17.6758 16.1682 18.017C16.1682 18.29 16.1682 18.6312 16.3058 18.836C16.8562 19.3819 17.613 19.5867 18.1634 20.0644C18.301 20.4056 18.0258 20.6786 17.8194 20.9516C17.8194 21.2246 18.2322 21.2246 18.1634 21.4976C17.7506 21.6341 17.3378 21.4976 16.9938 21.2246C16.7874 21.0198 16.7186 20.6104 16.3746 20.6104C16.0306 20.6104 16.0306 21.0198 15.893 21.2246C15.7554 21.4976 15.893 21.8388 15.6178 22.0435H15.4114C14.3106 21.7023 13.3474 21.0881 12.3842 20.3374C11.8338 19.9279 11.421 19.2454 11.0082 18.6995C10.8018 18.017 10.6642 17.1298 9.83864 16.925C9.63225 16.925 9.42585 16.9933 9.35705 17.198L9.28825 17.471C8.87545 17.471 8.46266 17.198 7.98106 17.3345C7.77466 17.471 7.56826 17.6075 7.43066 17.8123C7.43066 18.29 7.98106 18.0852 8.04986 18.4947C8.04986 18.836 8.32506 19.1089 8.46266 19.3819C8.32506 19.5867 8.11866 19.6549 8.04986 19.8596L7.77466 20.5421C7.91226 20.7469 8.04986 21.0198 8.25626 21.0198C8.60025 20.8833 8.94425 21.1563 9.35705 21.0881C9.63225 21.0881 9.97624 20.8833 10.045 21.2928C10.1826 21.6341 10.045 21.907 10.045 22.18C9.70105 22.6578 9.21945 23.0672 8.73785 23.272C8.60025 23.4085 8.60025 23.6132 8.60025 23.7497C8.80665 24.0227 9.21945 23.8862 9.49465 23.8862C10.045 23.8862 10.4578 23.545 11.0082 23.4767C11.1458 23.7497 11.3522 24.0909 11.6274 24.2274C12.0402 24.3639 12.1778 23.7497 12.5906 23.8862C12.9346 24.1592 12.8658 24.6369 13.141 24.9781C13.141 25.1829 13.0034 25.1829 12.8658 25.2511C12.3842 25.3876 11.765 25.2511 11.421 25.5923C11.3522 25.7971 11.5586 26.0018 11.6962 26.0701C12.109 26.2748 12.5906 26.3431 13.0722 26.4113C13.485 26.4796 13.9666 26.2748 14.3794 26.4113L14.2418 26.616L12.9346 27.5032C12.3154 27.7762 11.6962 27.8445 11.1458 28.1857C10.3202 28.3905 9.97624 27.3668 9.21945 27.435C8.87545 27.435 8.66905 27.5715 8.46266 27.708C8.25626 27.9127 8.25626 28.1857 8.32506 28.4587C8.46266 28.7317 8.80665 28.5952 8.80665 28.8682C8.80665 29.6189 8.11866 30.1649 8.04986 30.9156C8.04986 31.1203 8.04986 31.325 8.32506 31.3933C8.46266 31.4615 8.66905 31.3933 8.80665 31.325C8.94425 31.1886 8.94425 30.9156 9.21945 30.8473C9.70105 30.9156 10.1826 30.9156 10.4578 30.5743C10.5954 30.5743 10.8018 30.7108 10.8018 30.8473C10.8018 31.0521 10.8018 31.2568 11.0082 31.325C11.6962 31.325 11.9714 30.6426 12.3154 30.1649C12.5906 30.0966 12.9346 29.8919 13.2098 30.0966C13.3474 30.5743 12.9346 30.8473 12.8658 31.325C12.8658 31.4615 13.0034 31.5298 13.141 31.5298C13.9666 31.3933 14.3794 30.7108 14.861 30.0966C14.9298 29.9601 14.9986 29.7554 15.2738 29.7554C15.893 29.9601 16.0306 29.2094 16.4434 28.9364H16.581C16.6498 29.1412 16.5122 29.2777 16.581 29.4141C16.8562 29.6871 17.1314 29.4141 17.4066 29.3459L17.957 29.0047C18.645 29.2094 19.333 29.3459 20.021 29.5506C20.5714 29.7554 20.021 30.3696 20.365 30.7108C20.2962 30.9156 20.021 30.9838 19.8146 30.9838C18.645 31.1203 17.269 30.8473 16.3058 31.6663L15.7554 32.2123C14.861 32.2123 14.4482 32.963 13.6226 33.0995C13.0722 33.4407 12.2466 32.963 11.9026 33.5772C12.1778 34.1232 12.8658 34.3279 13.4162 34.4644C13.6914 34.6009 14.0354 34.4644 14.173 34.7374C14.173 35.0104 14.2418 35.3516 14.5858 35.4198C14.7922 35.4881 14.9298 35.1468 15.205 35.3516C15.4802 35.7611 15.9618 35.9658 16.1682 36.307C15.9618 36.6483 15.549 36.4435 15.205 36.4435H15.1362C14.6546 36.5118 14.0354 36.7165 13.6914 36.307C13.2098 35.9658 12.797 35.3516 12.0402 35.3516C11.6274 35.4881 11.2146 35.6246 11.1458 36.0341C11.077 36.307 11.3522 36.3753 11.4898 36.58C11.0082 36.9213 10.5266 37.399 10.6642 38.0132C10.733 38.1497 10.8018 38.2862 10.9394 38.2862C11.2146 38.2862 11.3522 38.0814 11.6274 38.2179C11.6962 38.6274 11.5586 39.2416 12.0402 39.4464C12.3842 39.3781 12.6594 38.9686 13.0722 39.3099C13.485 39.5146 13.7602 39.1051 14.173 39.0369C14.7234 39.0369 14.9298 39.5829 15.1362 39.9923C15.4802 40.2653 15.9618 40.6748 16.4434 40.4018C16.7874 39.9241 16.1682 39.3781 16.7874 39.1051C17.1314 38.9686 17.4754 39.1051 17.8882 39.0369C18.5074 39.1051 19.1954 39.1734 19.5394 38.4909L20.0898 37.6037L20.2274 37.0577C20.5714 36.9213 21.053 37.5355 21.2594 36.9895C21.053 36.4435 20.9842 35.8976 21.1218 35.3516C21.2594 34.9421 21.397 34.6009 21.6721 34.3279L21.8097 34.3961C21.9473 35.0786 22.0161 35.6928 22.2913 36.307C22.2225 36.9213 21.9473 37.4672 21.8097 38.0814C21.6721 38.6957 21.1906 39.2416 20.5714 39.5146C20.4338 39.6511 20.2962 39.7876 20.4338 39.9923C20.5714 40.2653 20.9842 40.1288 21.2594 40.1971C22.0849 40.0606 22.8417 39.7194 23.4609 39.1051C24.0801 39.2416 24.3553 38.5592 24.9057 38.8322C25.4561 39.2416 26.4881 38.4909 26.6945 39.4464C26.6257 39.8559 27.0385 40.6066 26.3505 40.8113C25.6625 40.6748 24.8369 39.7876 24.1489 40.6066C24.0113 40.7431 23.8737 40.9478 24.0113 41.2208C24.1489 41.4255 24.2865 41.6303 24.0801 41.835C23.8737 42.1762 23.5985 42.5857 23.8049 42.9269C23.9425 43.1317 24.2177 43.1317 24.4241 43.1317C24.8369 42.9952 25.1809 43.3364 25.5937 43.3364C25.9377 43.6094 26.2817 43.9506 26.7633 43.8824C26.9697 43.7459 26.9009 43.5412 27.0385 43.4047C27.3137 43.1317 27.9329 43.1999 27.9329 42.654C28.0017 42.2445 28.3457 41.9032 28.6897 41.6985C28.8273 41.4938 29.6529 41.289 29.8593 40.9478Z" fill="black"/>
<path d="M29.8593 40.9478C29.7217 40.8113 29.5841 40.6066 29.5153 40.5383C29.3777 39.7876 30.4785 39.3781 29.9281 38.5592C29.7905 38.0814 29.9281 37.5355 29.4465 37.1942C29.1025 36.9213 28.6897 36.853 28.3457 36.6483C28.3457 36.4435 28.6209 36.5118 28.6897 36.4435C29.3089 36.307 29.7905 36.9895 30.2721 36.4435C30.3409 36.0341 29.9281 35.6928 29.6529 35.4198C28.7585 34.8056 27.4513 35.0786 26.7633 34.1232L26.8321 34.0549C27.6577 34.2596 28.6209 34.0549 29.2401 33.5089C29.5841 33.0312 29.9969 32.5535 30.5473 32.417C31.1665 31.9393 31.2353 31.1886 31.2353 30.5061C31.2353 30.2331 31.3729 29.9601 31.5793 29.7554C31.9233 29.4824 32.7489 29.5506 32.5425 28.9364C32.0609 28.6634 31.5793 28.4587 31.0977 28.5269C30.8913 28.3905 31.1665 28.1857 31.2353 28.1175C32.0609 27.5715 33.4369 27.2303 33.3681 25.9336C33.2993 25.7971 33.2993 25.5923 33.0929 25.5923C32.7489 25.6606 32.4737 26.0018 32.1297 26.1383C31.3041 26.616 30.3409 26.4796 29.5153 26.9573C29.3777 26.9573 29.3777 26.7525 29.4465 26.6843C29.7217 26.2748 30.3409 26.2748 30.5473 25.7288C30.6849 25.3194 30.7537 24.7734 31.2353 24.6369C31.5105 24.4322 31.9233 24.4322 32.0609 24.0909C32.0609 23.8862 31.7857 23.8179 31.6481 23.7497C30.8913 23.545 30.1345 23.9544 29.5841 24.5004C29.0337 24.7734 28.3457 24.9781 27.9329 25.3876C27.8641 25.3876 27.7265 25.3876 27.7265 25.2511C27.5889 24.1592 28.5521 23.4085 29.3089 22.7942C29.7905 22.6578 30.2721 22.0435 30.8225 22.3165C31.2353 22.5213 31.6481 22.726 32.1297 22.5895C32.7489 22.3848 32.8865 21.7023 33.3681 21.3611C33.7809 21.2246 34.3312 21.8388 34.6064 21.2246C34.744 20.6104 34.2624 20.2691 33.9873 19.8596C34.3312 19.0407 34.056 18.0852 33.3681 17.471C33.0241 17.2663 32.6113 17.1298 32.2673 17.2663C31.9921 17.6075 32.5425 17.8805 32.5425 18.2217C32.6801 19.7232 31.0289 20.0644 29.9969 20.7468C28.1393 21.7023 25.8689 23.1355 25.7313 25.5241C25.7313 26.8208 26.3505 28.0492 27.2449 28.9364C27.7265 29.7554 28.4833 30.5061 28.2081 31.598C28.0017 32.0075 27.5201 32.0758 27.1073 32.0758C25.5249 31.9393 24.6305 30.1649 23.9425 28.9364C23.7361 28.4587 23.4609 27.981 23.3921 27.435C23.4609 27.3668 23.5297 27.3668 23.6673 27.435C23.9425 27.708 23.9425 28.3222 24.4241 28.254C24.8369 27.708 24.5617 27.0255 24.2865 26.4796C24.0113 26.0018 23.3921 25.7288 23.1169 25.1829C23.1169 24.7734 23.6673 25.0464 23.7361 24.6369C23.5297 23.9544 23.4609 23.2037 23.5985 22.5895C23.7361 22.3165 24.1489 22.3165 24.1489 21.9753C23.9425 21.2928 23.9425 20.6786 24.0113 19.9279C24.0801 19.5184 24.4241 19.0407 24.2177 18.6312C23.7361 18.4947 24.1489 17.8805 23.6673 17.8123C22.7729 17.8123 22.0849 17.3345 21.3282 17.0615C20.9154 16.925 20.6402 17.198 20.2962 17.2663C19.8146 17.4028 19.2642 17.4028 18.9202 17.744C18.645 18.017 18.7138 18.3582 18.7138 18.7677C18.645 18.9724 18.4386 18.7677 18.301 18.7677C17.957 18.563 17.8194 18.1535 17.8882 17.744C17.957 17.5393 17.8882 17.4028 17.6818 17.2663C17.4066 17.1298 17.0626 17.0615 16.7874 17.1298C16.4434 17.2663 16.3058 17.6758 16.1682 18.017C16.1682 18.29 16.1682 18.6312 16.3058 18.8359C16.8562 19.3819 17.613 19.5867 18.1634 20.0644C18.301 20.4056 18.0258 20.6786 17.8194 20.9516C17.8194 21.2246 18.2322 21.2246 18.1634 21.4976C17.7506 21.6341 17.3378 21.4976 16.9938 21.2246C16.7874 21.0198 16.7186 20.6104 16.3746 20.6104C16.0306 20.6104 16.0306 21.0198 15.893 21.2246C15.7554 21.4976 15.893 21.8388 15.6178 22.0435H15.4114C14.3106 21.7023 13.3474 21.0881 12.3842 20.3374C11.8338 19.9279 11.421 19.2454 11.0082 18.6995C10.8018 18.017 10.6642 17.1298 9.83864 16.925C9.63225 16.925 9.42585 16.9933 9.35705 17.198L9.28825 17.471C8.87545 17.471 8.46266 17.198 7.98106 17.3345C7.77466 17.471 7.56826 17.6075 7.43066 17.8123C7.43066 18.29 7.98106 18.0852 8.04986 18.4947C8.04986 18.8359 8.32506 19.1089 8.46266 19.3819C8.32506 19.5867 8.11866 19.6549 8.04986 19.8596L7.77466 20.5421C7.91226 20.7469 8.04986 21.0198 8.25626 21.0198C8.60025 20.8833 8.94425 21.1563 9.35705 21.0881C9.63225 21.0881 9.97624 20.8833 10.045 21.2928C10.1826 21.6341 10.045 21.907 10.045 22.18C9.70105 22.6578 9.21945 23.0672 8.73785 23.272C8.60025 23.4085 8.60025 23.6132 8.60025 23.7497C8.80665 24.0227 9.21945 23.8862 9.49465 23.8862C10.045 23.8862 10.4578 23.545 11.0082 23.4767C11.1458 23.7497 11.3522 24.0909 11.6274 24.2274C12.0402 24.3639 12.1778 23.7497 12.5906 23.8862C12.9346 24.1592 12.797 24.6369 13.141 24.9781C13.141 25.1829 13.0034 25.1829 12.8658 25.2511C12.3842 25.3876 11.765 25.2511 11.421 25.5923C11.3522 25.7971 11.5586 26.0018 11.6962 26.0701C12.109 26.2748 12.5906 26.3431 13.0722 26.4113C13.485 26.4796 13.9666 26.2748 14.3794 26.4113L14.2418 26.616L12.9346 27.5032C12.3154 27.7762 11.6962 27.8445 11.1458 28.1857C10.3202 28.3905 9.97624 27.3668 9.21945 27.435C8.87545 27.435 8.66905 27.5715 8.46266 27.708C8.25626 27.9127 8.25626 28.1857 8.32506 28.4587C8.46266 28.7317 8.80665 28.5952 8.80665 28.8682C8.80665 29.6189 8.11866 30.1649 8.04986 30.9156C8.04986 31.1203 8.04986 31.325 8.25626 31.3933C8.39386 31.4615 8.60025 31.3933 8.73785 31.325C8.87545 31.1886 8.87545 30.9156 9.15065 30.8473C9.63225 30.9156 10.1138 30.9156 10.389 30.5743C10.5266 30.5743 10.733 30.7108 10.733 30.8473C10.733 31.0521 10.733 31.2568 10.9394 31.325C11.6274 31.325 11.9026 30.6426 12.2466 30.1649C12.5218 30.0966 12.8658 29.8919 13.141 30.0966C13.2786 30.5743 12.8658 30.8473 12.797 31.325C12.797 31.4615 12.9346 31.5298 13.0722 31.5298C13.8978 31.3933 14.3106 30.7108 14.7922 30.0966C14.861 29.9601 14.9298 29.7554 15.205 29.7554C15.8242 29.9601 15.9618 29.2094 16.3746 28.9364H16.5122C16.581 29.1412 16.4434 29.2777 16.5122 29.4141C16.7874 29.6871 17.0626 29.4141 17.3378 29.3459L17.8882 29.0047C18.5762 29.2094 19.2642 29.3459 19.9522 29.5506C20.5026 29.7554 19.9522 30.3696 20.2962 30.7108C20.2274 30.9156 19.9522 30.9838 19.7458 30.9838C18.5762 31.1203 17.2002 30.8473 16.237 31.6663L15.6866 32.2123C14.7922 32.2123 14.3794 32.963 13.5538 33.0995C13.0034 33.4407 12.1778 32.963 11.8338 33.5772C12.109 34.1232 12.797 34.3279 13.3474 34.4644C13.6226 34.6009 13.9666 34.4644 14.1042 34.7374C14.1042 35.0104 14.173 35.3516 14.517 35.4198C14.7234 35.4881 14.861 35.1468 15.1362 35.3516C15.4114 35.7611 15.893 35.9658 16.0994 36.307C15.893 36.6483 15.4802 36.4435 15.1362 36.4435H15.0674C14.5858 36.5118 13.9666 36.7165 13.6226 36.307C13.141 35.9658 12.7282 35.3516 11.9714 35.3516C11.5586 35.4881 11.1458 35.6246 11.077 36.1023C11.0082 36.3753 11.2834 36.4435 11.421 36.6483C10.9394 36.9895 10.4578 37.4672 10.5954 38.0814C10.6642 38.2179 10.733 38.3544 10.8706 38.3544C11.1458 38.3544 11.2834 38.1497 11.5586 38.2862C11.6274 38.6957 11.4898 39.3099 11.9714 39.5146C12.3154 39.4464 12.5906 39.0369 13.0034 39.3781C13.4162 39.5829 13.7602 39.1734 14.1042 39.1051C14.6546 39.1051 14.861 39.6511 15.0674 40.0606C15.4114 40.3336 15.893 40.7431 16.3746 40.4701C16.7186 39.9923 16.0994 39.4464 16.7186 39.1734C17.0626 39.0369 17.4066 39.1734 17.8194 39.1051C18.4386 39.1734 19.1266 39.2416 19.4706 38.5592L20.021 37.672L20.1586 37.126C20.5026 36.9895 20.9842 37.6037 21.1906 37.0577C20.9842 36.5118 20.9154 35.9658 21.053 35.4198C21.1906 35.0104 21.3282 34.6691 21.6033 34.3961L21.7409 34.4644C21.8785 35.1468 21.9473 35.7611 22.2225 36.3753C22.1537 36.9895 21.8785 37.5355 21.7409 38.1497C21.6033 38.7639 21.1218 39.3099 20.5026 39.5829C20.365 39.7194 20.2274 39.8559 20.365 40.0606C20.5026 40.3336 20.9154 40.1971 21.1906 40.2653C22.0161 40.1288 22.7729 39.7876 23.3921 39.1734C24.0113 39.3099 24.2865 38.6274 24.8369 38.9004C25.3873 39.3099 26.4193 38.5592 26.6257 39.5146C26.5569 39.9241 26.9697 40.6748 26.2817 40.8796C25.5937 40.7431 24.7681 39.8559 24.0801 40.6748C23.9425 40.8113 23.8049 41.016 23.9425 41.289C24.0801 41.4938 24.2177 41.6985 24.0113 41.9032C23.8049 42.2445 23.5297 42.654 23.7361 42.9952C23.8737 43.1999 24.1489 43.1999 24.3553 43.1999C24.7681 43.0634 25.1121 43.4047 25.5249 43.4047C25.8689 43.6777 26.2129 44.0189 26.6945 43.9506C26.9009 43.8141 26.8321 43.6094 26.9697 43.4729C27.2449 43.1999 27.8641 43.2682 27.8641 42.7222C27.9329 42.3127 28.2769 41.9715 28.6209 41.7668C28.8273 41.4938 29.6529 41.289 29.8593 40.9478Z" stroke="black" stroke-width="0.2189"/>
<path d="M17.6129 17.6757C17.5442 18.0169 17.5441 18.3582 17.7505 18.6312C18.3009 19.2454 19.1953 19.4501 19.5393 20.1326H19.3329C18.6449 19.7231 18.0257 19.1771 17.3378 18.9042C17.0626 18.6994 16.8562 18.4264 16.925 18.0852C16.9938 17.8805 17.0626 17.6075 17.3378 17.5392C17.4754 17.471 17.6129 17.5392 17.6129 17.6757Z" fill="white"/>
<path d="M23.3233 18.2901C23.4609 18.4265 23.3233 18.7678 23.6673 18.836C23.7361 18.836 23.8049 18.9043 23.8049 18.9725C23.8049 19.2455 23.7361 19.5185 23.6673 19.7915C23.5985 19.9962 23.3233 20.0645 23.3233 20.4057C23.3233 20.5422 23.5297 20.6104 23.5985 20.8152V21.9071C22.9105 22.1119 23.2545 22.9308 23.1857 23.3403C23.1169 23.6815 23.1857 24.0228 23.1857 24.364C23.0481 24.4322 22.7041 24.4322 22.6353 24.637C22.6353 25.0465 22.8417 25.3877 22.9793 25.6607C23.2545 26.0019 23.7361 26.0702 23.7361 26.5479C23.3921 26.5479 23.0481 26.3431 22.7729 26.2066C22.2913 25.9337 21.9473 25.3877 21.6033 24.91C21.5345 24.8417 21.397 24.8417 21.3282 24.91C21.2594 25.2512 21.2594 25.6607 20.9842 25.8654C20.6402 25.6607 20.6402 24.7735 20.0898 25.0465C19.8834 26.2066 19.1266 27.0938 18.4386 28.0493C18.301 28.1175 18.2322 28.3223 18.0258 28.3223C18.3698 27.4351 18.645 26.4114 18.301 25.3877C18.2322 25.1829 18.0258 25.2512 17.8882 25.3194C17.7506 25.4559 17.613 25.6607 17.4066 25.5924C17.2002 25.3194 17.613 24.8417 17.1314 24.637C16.7874 24.7052 16.5122 25.0465 16.237 25.1829C15.4114 25.6607 14.4482 25.8654 13.485 25.8654C13.2786 25.8654 13.141 25.7972 13.0034 25.7289C13.2098 25.4559 13.6226 25.4559 13.8978 25.2512C14.9986 24.5687 15.7554 23.3403 16.6498 22.4531C16.581 22.0436 16.237 21.5659 16.581 21.2247C16.8562 21.2247 16.9938 21.5659 17.2002 21.6341C17.613 21.8389 18.0946 21.9754 18.5074 21.7706C18.8514 21.7024 19.1266 21.3611 19.1954 21.0199C19.1954 20.8834 19.1266 20.7469 18.989 20.7469C18.8514 20.7469 18.7826 20.7469 18.7138 20.6104C18.7138 20.4057 18.8514 20.2692 18.989 20.2692C19.4706 20.2692 19.8834 21.2247 20.2274 20.4739C20.4338 19.8597 19.8146 19.382 19.4018 18.9725C19.2642 18.836 19.1954 18.6995 19.2642 18.4948C19.6082 18.2901 19.1954 18.0171 19.4706 17.7441C19.9522 17.4029 20.6402 17.6076 21.1218 17.2664C21.9473 17.5393 22.5665 18.1536 23.3233 18.2901Z" fill="white"/>
<path d="M10.5953 18.0852C10.5953 18.2217 10.6641 18.3582 10.5953 18.4264C10.4577 18.5629 10.3201 18.4264 10.2513 18.3582C10.1137 18.2217 10.0449 18.017 10.0449 17.8805C10.1137 17.3345 10.5953 17.8805 10.5953 18.0852Z" fill="white"/>
<path d="M10.1827 18.8359C10.9395 19.1771 11.4211 19.9279 11.9715 20.5421C13.1411 21.4975 14.3795 22.3165 15.7555 22.726C15.8243 22.9307 15.6179 23.1354 15.4803 23.2719C14.9987 23.7497 14.6547 24.2956 14.1731 24.7051C14.0355 24.7051 13.9667 24.7051 13.8979 24.7051C13.4163 24.2274 13.4851 23.3402 12.6595 23.2719C12.3843 23.2719 12.1779 23.6132 11.9027 23.4084C11.6275 23.2037 11.9715 22.726 11.5587 22.5895C11.0771 22.7942 10.7331 23.2719 10.1827 23.2037C10.5267 22.5895 11.1459 21.9753 10.8019 21.2245C10.7331 20.8833 10.5267 20.4738 10.1827 20.4056C9.83874 20.4056 9.70114 20.7468 9.35715 20.6103C9.21955 20.3373 8.60035 20.4738 8.87555 20.0643C9.08195 19.7231 9.83874 19.7231 9.56354 19.1771C9.35714 18.9042 8.80675 19.0407 8.80675 18.6312C8.87555 18.4264 8.66915 18.0852 8.80675 17.9487C9.42594 17.8122 9.83874 18.4947 10.1827 18.8359Z" fill="white"/>
<path d="M33.7121 19.1771C33.7809 19.5866 33.3681 19.8596 33.5057 20.2691C33.6433 20.4738 33.9873 20.5421 33.9185 20.7468C32.8865 20.7468 32.6801 22.1117 31.7169 22.0435C31.3041 21.9752 30.9601 21.4975 30.4785 21.7022C29.1713 22.3165 27.7265 23.2037 27.3825 24.7733C27.245 25.3876 27.245 26.0018 27.7265 26.4795C27.8641 26.5477 28.0017 26.5477 28.0705 26.4795C28.3457 26.0018 28.5521 25.3876 29.1713 25.2511C29.5153 25.1146 29.9281 24.9781 30.2721 24.7733C30.3409 24.7733 30.4097 24.7051 30.4097 24.8416C30.2721 25.3193 30.0657 25.8653 29.5153 26.0018C29.1713 26.343 28.7585 26.6842 28.7585 27.162C28.7585 27.3667 28.6897 27.7079 28.8961 27.9127C29.1025 28.0492 29.3089 27.8444 29.4465 27.7762C30.1345 26.9572 31.1665 26.8207 32.1985 26.7525C32.2673 26.8207 32.1297 27.0255 31.9921 27.0255C31.0977 27.2985 30.2721 28.0492 29.9969 28.9364C29.9969 29.0729 30.1345 29.2094 30.2033 29.2094C30.6161 29.1411 30.9601 28.8681 31.4417 28.9364C31.5793 29.2094 31.0977 29.2094 30.9601 29.4823C30.1345 30.2331 30.9601 31.8027 29.5841 32.0757C29.1713 32.2122 29.2401 32.6899 28.9649 32.8947C28.4833 33.5089 27.7265 33.6454 27.0386 33.5771C26.4882 33.6454 26.0754 32.8947 25.5938 33.3724C25.6626 33.9184 26.0754 34.1913 26.3506 34.6691C27.0386 35.2833 27.9329 35.3515 28.8273 35.6245C28.9649 35.6245 29.0337 35.761 29.1025 35.8293C29.1025 36.034 28.8273 35.9658 28.6897 35.9658C28.1393 36.034 27.5201 36.1022 26.9698 35.8975C26.901 35.8975 26.8322 35.9658 26.7634 36.034C26.8322 36.6482 27.5201 36.853 27.9329 37.1259C28.3457 37.3307 28.8961 37.2624 29.0337 37.7402V38.3544C29.2401 38.6274 29.3089 39.0368 29.2401 39.3781C28.8961 39.7876 28.6209 40.3335 28.8961 40.9477C28.7585 41.0842 28.4833 40.9477 28.3457 41.0842C28.1393 41.4937 27.6577 41.562 27.5201 41.9032C27.5201 42.2444 27.3138 42.5174 26.9698 42.5857C26.6946 42.5857 26.4882 42.7222 26.2818 42.6539C26.1442 42.4492 26.3506 42.1762 26.0754 42.0397C25.7314 41.9714 25.5938 42.5174 25.181 42.3127C24.9746 42.1762 24.837 42.1079 24.6994 41.9714C24.6994 41.6985 24.9058 41.6302 25.0434 41.562C25.9378 41.4255 27.1074 41.289 27.3825 40.3335C27.4513 39.8558 27.245 39.5146 27.3138 39.1051C27.1762 38.6274 26.6946 38.2861 26.1442 38.2179C25.6626 38.0814 25.1122 38.2861 24.7682 37.9449C24.6306 37.8084 24.493 37.7402 24.2866 37.8084C24.149 37.8084 24.0802 38.0131 23.9426 37.9449C23.805 37.8084 23.5986 37.6037 23.461 37.8084C23.117 38.4226 22.6354 39.1051 21.8786 39.2416C21.741 39.0368 22.0162 38.8321 22.085 38.6274C22.2914 38.1496 22.4978 37.5354 22.6354 36.9895C22.8418 36.7165 23.117 36.307 22.9106 35.8975C22.5666 35.0103 22.2226 33.9866 22.4978 32.9629C22.7042 31.7345 22.3602 30.5743 21.4658 29.7553C20.9842 29.4823 20.5026 28.9364 19.8834 28.8681C19.4706 28.7316 18.9202 28.8681 18.645 28.5269C18.7138 28.1174 19.1266 27.8444 19.333 27.5032L20.021 26.4113C20.2962 26.343 20.2274 26.7525 20.5026 26.7525C21.053 26.7525 21.053 25.797 21.6034 26.1383C21.8786 26.4795 22.2914 26.616 22.5666 26.9572C22.9106 28.4586 23.5298 29.9601 24.5618 31.1203C25.3874 32.144 26.6258 32.8947 27.8641 32.5534C28.2081 32.2804 28.6897 31.9392 28.7585 31.4615C29.1025 29.0729 26.0066 27.8444 26.213 25.4558C26.4194 23.2037 28.7585 21.9752 30.6161 21.088C31.6481 20.5421 32.8865 19.8596 33.0241 18.5629C33.0241 18.4264 33.0241 18.3582 33.0929 18.2217C33.7121 18.3582 33.6433 18.8359 33.7121 19.1771Z" fill="white"/>
<path d="M17.0623 26.3431C17.3375 26.4113 17.6815 26.0019 17.8191 26.4113C17.7503 26.9573 17.7503 27.6398 17.4751 28.1175C17.1999 28.3905 16.7871 28.1857 16.5119 28.3222C16.0991 28.4587 16.0303 29.4142 15.5487 28.8C15.3423 28.7317 15.2047 28.9365 15.0671 29.0729C14.8607 29.5507 14.6543 30.0966 14.2415 30.5061C14.1727 30.5744 14.0351 30.6426 13.9663 30.5061C13.8975 30.1649 14.1727 29.5507 13.6911 29.4142C13.4847 29.4142 13.2783 29.5507 13.0719 29.6189C12.6591 29.6189 12.1087 29.6189 11.9023 29.9602C11.8335 30.1649 11.8335 30.4379 11.5583 30.4379C11.2831 30.3014 11.0079 30.2331 10.8703 29.9602C10.7327 29.8919 10.5951 29.7554 10.4575 29.8919C10.2511 30.0966 10.1823 30.5061 9.83834 30.5061C9.56314 30.5061 9.35674 30.4379 9.08154 30.3014C9.15034 29.6872 9.83834 29.6189 10.2511 29.3459C11.0767 29.1412 11.7647 28.5952 12.5903 28.4587C13.8975 27.981 14.9983 26.9573 16.0303 25.9336C16.1679 25.8654 16.3743 25.7971 16.5119 25.7971C16.7871 26.0019 16.7871 26.2748 17.0623 26.3431Z" fill="white"/>
<path d="M10.5266 28.7999C10.2514 28.9364 9.90743 29.0729 9.63223 28.9364C9.49463 28.7999 9.56343 28.4587 9.49463 28.2539C9.56343 28.0492 9.83863 28.1174 9.97622 28.1857C10.1826 28.3904 10.5266 28.4587 10.5266 28.7999Z" fill="white"/>
<path d="M22.0159 32.2122C22.0159 32.6217 21.9471 32.8947 21.7407 33.2359C21.2591 33.6454 20.8463 34.1913 20.7087 34.8738C20.7087 35.3515 20.6399 35.761 20.6399 36.1705C20.5023 36.307 20.3647 36.1022 20.2959 36.034C20.0895 35.6928 20.1583 35.0103 19.6079 35.0785C19.3327 35.4198 18.9887 35.8975 19.1951 36.307C19.4703 36.6482 19.9519 36.9212 19.6767 37.3989C19.2639 37.6037 19.4015 38.2179 18.8511 38.2861C18.0255 38.4226 17.1999 38.0131 16.5807 38.6274C16.3743 38.8321 16.2367 39.1051 16.0991 39.3781C15.7551 39.4463 15.8239 38.9003 15.6175 38.6956C15.4799 38.4909 15.2047 38.6274 14.9984 38.4909C14.7232 38.3544 14.3792 38.0814 14.0352 38.2861C13.76 38.4226 13.416 38.8321 13.072 38.5591L12.5904 38.4226C12.5904 38.2861 12.728 38.0814 12.5904 37.8766L11.696 37.3989C11.6272 37.3307 11.696 37.1942 11.7648 37.1259C12.5216 36.6482 13.416 37.1942 14.3104 37.0577C14.9296 36.8529 15.4799 36.9212 16.0991 36.9894C16.4431 36.9894 16.8559 37.1259 17.0623 36.7847C17.1999 36.58 17.2687 36.307 17.1311 36.1022C16.8559 35.488 16.0303 35.4198 15.8927 34.6691C15.8239 34.5326 15.7551 34.3961 15.6175 34.3278C15.4111 34.2596 15.2735 34.4643 15.0672 34.3961C14.9984 34.1913 14.9296 33.9866 14.7232 33.9184C14.3104 33.9184 13.8288 34.1231 13.4848 33.8501C13.5536 33.6454 13.8288 33.7136 13.9664 33.5771C14.5168 33.4406 14.9984 33.0994 15.5487 32.8264L16.3055 32.6899C17.0623 31.4615 18.6447 31.5297 20.0207 31.4615L21.3279 31.052C21.8095 31.325 21.9471 31.871 22.0159 32.2122Z" fill="white"/>
<path d="M13.4851 36.5118C13.2099 36.6483 12.9347 36.58 12.6595 36.5118C12.5219 36.3753 12.4531 36.1023 12.4531 35.8975C12.8659 35.7611 13.2787 36.1705 13.4851 36.5118Z" fill="white"/>
<path d="M25.4558 40.8113C25.4558 40.9478 25.3182 40.9478 25.2494 40.9478C25.1118 40.9478 25.1118 40.8795 25.1118 40.8113C25.1118 40.6065 25.387 40.743 25.4558 40.8113Z" fill="white"/>
<path d="M21.9471 18.7677C22.0159 18.9724 21.8783 19.1089 21.6719 19.1089C21.3279 19.1089 21.0527 19.1089 20.8463 18.836C20.5711 18.6312 20.7087 18.3582 20.7775 18.0852C20.9151 17.9487 21.0527 17.9487 21.1903 18.017C21.4655 18.2217 21.7407 18.4947 21.9471 18.7677Z" fill="black"/>
<path d="M23.4608 19.1772C23.4608 19.3819 23.3232 19.5867 23.1856 19.7914C23.048 19.8596 22.9104 19.7914 22.9104 19.6549C22.8416 19.4502 22.9792 19.1772 23.1168 19.0407C23.2544 18.9724 23.4608 19.0407 23.4608 19.1772Z" fill="black"/>
<path d="M21.7409 21.0882V21.5659C21.2593 22.0436 21.2593 22.8626 20.5714 23.1355C20.365 23.1355 20.2274 23.0673 20.2274 22.8626C20.2274 22.5896 20.1586 22.1801 20.2274 21.9071C20.5026 21.7706 20.5714 22.3166 20.8465 22.0436C20.9841 21.6341 21.3281 21.2929 21.5345 20.9517C21.6033 20.9517 21.7409 21.0199 21.7409 21.0882Z" fill="black"/>
<path d="M1.30762 12.8303H42.1745V15.6284H1.30762V12.8303Z" fill="black"/>
<path d="M1.30762 12.8303H42.1745V15.6284H1.30762V12.8303Z" stroke="black" stroke-width="0.2189"/>
<path d="M31.7168 13.3081H36.3264V15.1508H31.7168V13.3081Z" fill="white"/>
<path d="M21.603 13.3081H26.2126V15.1508H21.603V13.3081Z" fill="white"/>
<path d="M11.4209 13.3081H16.0993V15.1508H11.4209V13.3081Z" fill="white"/>
<path d="M1.78906 13.3081H5.98583V15.1508H1.78906V13.3081Z" fill="white"/>
<path d="M40.3168 2.79811C40.6608 3.20759 40.4544 3.82181 40.5232 4.29954C40.8672 4.57252 41.6928 4.29954 41.7616 4.982C41.8304 5.25499 41.624 5.45973 41.4864 5.59622C41.2112 5.8692 40.7984 5.59622 40.592 5.8692C40.5232 6.68816 40.592 7.57537 40.592 8.53082C40.8672 8.66731 41.1424 8.66731 41.4176 8.8038C41.5552 8.94029 41.6928 9.14503 41.6928 9.34977C41.6928 9.55451 41.5552 9.75925 41.28 9.8275C41.0736 9.96399 40.6608 9.8275 40.592 10.1005C40.4544 10.51 40.592 11.0559 40.5232 11.5337C40.248 11.6702 39.8352 11.6702 39.4912 11.6702H36.1889C35.9137 11.8066 35.5697 12.1479 35.1569 11.9431C34.4689 11.5337 33.5057 11.6702 32.7489 11.6019H30.3409C29.9281 11.1924 30.2033 10.5782 30.0657 10.1005C29.9281 9.8275 29.4465 9.96399 29.1713 9.8275C28.8961 9.69101 28.8961 9.41802 28.8961 9.21328C28.8961 8.94029 29.1713 8.8038 29.4465 8.73555C29.6529 8.59906 29.9969 8.8038 30.0657 8.53082C30.0657 7.71186 29.9969 6.82465 30.0657 6.07394C29.9969 5.59622 29.3777 5.8692 29.1025 5.66446C28.8273 5.52797 28.8273 5.18674 28.8961 4.91375C29.1025 4.43603 29.6529 4.57252 30.0657 4.43603L30.1345 4.29954L30.2033 2.86636L30.2721 2.72987L34.0561 2.79811C34.4689 2.79811 34.8817 3.00285 35.2945 3.13935C36.1201 2.52513 37.2897 2.86636 38.2529 2.66162C38.9409 2.79811 39.6288 2.66162 40.3168 2.79811Z" fill="black"/>
<path d="M40.3168 2.79811C40.6608 3.20759 40.4544 3.82181 40.5232 4.29954C40.8672 4.57252 41.6928 4.29954 41.7616 4.982C41.8304 5.25499 41.624 5.45973 41.4864 5.59622C41.2112 5.8692 40.7984 5.59622 40.592 5.8692C40.5232 6.68816 40.592 7.57537 40.592 8.53082C40.8672 8.66731 41.1424 8.66731 41.4176 8.8038C41.5552 8.94029 41.6928 9.14503 41.6928 9.34977C41.6928 9.55451 41.5552 9.75925 41.28 9.8275C41.0736 9.96399 40.6608 9.8275 40.592 10.1005C40.4544 10.51 40.592 11.0559 40.5232 11.5337C40.248 11.6702 39.8352 11.6702 39.4912 11.6702H36.1889C35.9137 11.8066 35.5697 12.1479 35.1569 11.9431C34.4689 11.5337 33.5057 11.6702 32.7489 11.6019H30.3409C29.9281 11.1924 30.2033 10.5782 30.0657 10.1005C29.9281 9.8275 29.4465 9.96399 29.1713 9.8275C28.8961 9.69101 28.8961 9.41802 28.8961 9.21328C28.8961 8.94029 29.1713 8.8038 29.4465 8.73555C29.6529 8.59906 29.9969 8.8038 30.0657 8.53082C30.0657 7.71186 29.9969 6.82465 30.0657 6.07394C29.9969 5.59622 29.3777 5.8692 29.1025 5.66446C28.8273 5.52797 28.8273 5.18674 28.8961 4.91375C29.1025 4.43603 29.6529 4.57252 30.0657 4.43603L30.1345 4.29954L30.2033 2.86636L30.2721 2.72987L34.0561 2.79811C34.4689 2.79811 34.8817 3.00285 35.2945 3.13935C36.1201 2.52513 37.2897 2.86636 38.2529 2.66162C38.9409 2.79811 39.6288 2.66162 40.3168 2.79811Z" stroke="black" stroke-width="0.2231"/>
<path d="M26.6944 2.72993C26.832 2.72993 27.0384 2.86642 27.176 2.93467C27.3136 3.48064 27.176 3.89012 27.3136 4.36784C27.6576 4.50433 28.208 4.36784 28.4144 4.84557C28.4832 5.05031 28.4832 5.39154 28.3456 5.52803C28.0704 5.86926 27.4512 5.52803 27.2448 5.93751C27.176 6.89296 27.176 7.64367 27.2448 8.53087C27.52 8.80386 28.0016 8.59912 28.2768 8.94035C28.4144 9.07685 28.4832 9.28158 28.4144 9.48632C28.208 9.82756 27.7264 9.82756 27.3136 9.8958C27.176 10.0323 27.3136 10.3053 27.2448 10.4418C27.1072 10.783 27.4512 11.2607 27.0384 11.4655C25.8688 11.602 24.8368 11.3972 23.6672 11.4655H22.5665C22.2913 11.6702 21.8785 11.9432 21.5345 11.7385L20.8465 11.4655C20.0209 11.4655 19.2641 11.4655 18.4385 11.4655C17.8881 11.4655 17.1313 11.6702 16.7185 11.1925C16.7185 10.783 16.7873 10.3053 16.7185 9.8958C16.3057 9.75931 15.6177 9.96405 15.4113 9.41808C15.3425 9.28159 15.4113 9.0086 15.4801 8.87211C15.7553 8.46263 16.5121 8.80386 16.7873 8.46263V7.23419C16.8561 6.68822 16.7873 6.2105 16.7873 5.66452C16.3745 5.52803 15.6177 5.73277 15.5489 5.11855C15.4801 4.77732 15.6865 4.50433 15.9617 4.43609C16.2369 4.36784 16.6497 4.50433 16.7873 4.23135L16.8561 2.93467C17.2001 2.38869 18.0257 2.72993 18.5073 2.66168H21.0529C21.4657 2.72993 21.8097 3.07116 22.2225 2.86642C23.4608 2.38869 25.1808 2.86642 26.6944 2.72993Z" fill="black"/>
<path d="M26.6946 2.72993C26.8322 2.72993 27.0386 2.86642 27.1762 2.93467C27.3138 3.48064 27.1762 3.89012 27.3138 4.36784C27.6578 4.50433 28.2082 4.36784 28.4146 4.84557C28.4834 5.05031 28.4834 5.39154 28.3458 5.52803C28.0706 5.86926 27.4514 5.52803 27.245 5.93751C27.1762 6.89296 27.1762 7.64367 27.245 8.53087C27.5202 8.80386 28.0018 8.59912 28.277 8.94035C28.4146 9.07685 28.4834 9.28158 28.4146 9.48632C28.2082 9.82756 27.7266 9.82756 27.3138 9.8958C27.1762 10.0323 27.3138 10.3053 27.245 10.4418C27.1074 10.783 27.4514 11.2607 27.0386 11.4655C25.869 11.602 24.8371 11.3972 23.6675 11.4655H22.5667C22.2915 11.6702 21.8787 11.9432 21.5347 11.7385L20.8467 11.4655C20.0211 11.4655 19.2643 11.4655 18.4387 11.4655C17.8883 11.4655 17.1315 11.6702 16.7187 11.1925C16.7187 10.783 16.7875 10.3053 16.7187 9.8958C16.3059 9.75931 15.6179 9.96405 15.4115 9.41808C15.3427 9.28159 15.4115 9.0086 15.4803 8.87211C15.7555 8.46263 16.5123 8.80386 16.7875 8.46263V7.23419C16.8563 6.68822 16.7875 6.2105 16.7875 5.66452C16.3747 5.52803 15.6179 5.73277 15.5491 5.11855C15.4803 4.77732 15.6867 4.50433 15.9619 4.43609C16.2371 4.36784 16.6499 4.50433 16.7875 4.23135L16.8563 2.93467C17.2003 2.38869 18.0259 2.72993 18.5075 2.66168H21.0531C21.4659 2.72993 21.8099 3.07116 22.2227 2.86642C23.4611 2.38869 25.1811 2.86642 26.6946 2.72993ZM7.98119 3.00291C9.35718 2.45694 10.8708 2.86642 12.3844 2.72993C12.7972 2.79817 13.3475 2.52519 13.6227 2.93467C13.6227 3.34414 13.6227 3.75362 13.6227 4.23135C13.7603 4.57258 14.2419 4.36784 14.4483 4.50433C14.5859 4.57258 14.7235 4.64083 14.7923 4.84557C14.8611 5.05031 14.7923 5.25504 14.7235 5.45978C14.4483 5.73277 14.1043 5.66452 13.7603 5.73277L13.6227 5.86926C13.6915 6.68822 13.4851 7.37068 13.6227 8.1214C13.6227 8.25789 13.5539 8.53087 13.7603 8.59912C14.1731 8.59912 14.5171 8.59912 14.7923 8.87211C14.9299 9.07685 14.9299 9.28158 14.8611 9.55457C14.7235 10.3735 13.4163 9.41808 13.5539 10.3735C13.5539 10.7148 13.6227 11.1925 13.4851 11.5337C11.9716 11.5337 10.458 11.3972 9.08198 11.5337C8.80679 11.7385 8.53159 11.8749 8.11879 11.9432C7.84359 11.8749 7.5684 11.7385 7.362 11.5337C5.98601 11.4655 4.67882 11.4655 3.37163 11.4655C2.95883 11.1242 3.23403 10.51 3.09643 10.0323C2.89003 9.75931 2.54604 9.96405 2.27084 9.82756C2.06444 9.82756 1.99564 9.62282 1.92684 9.48632C1.92684 9.21334 1.92684 8.94035 2.13324 8.73561C2.33964 8.59912 2.68364 8.59912 2.95883 8.59912L3.09643 8.46263C3.02763 7.57542 3.23403 6.68822 3.02763 5.73277C2.89003 5.52803 2.61484 5.73277 2.47724 5.59628C2.20204 5.52803 1.92684 5.39154 1.85804 5.11855C1.78924 4.91381 1.78924 4.70907 1.99564 4.50433C2.27084 4.1631 2.82123 4.57258 3.09643 4.23135L3.23403 2.93467C3.44043 2.52519 3.92203 2.72993 4.33482 2.72993C5.02282 2.59343 5.84841 2.72993 6.5364 2.72993C7.0868 2.72993 7.5684 2.86642 7.98119 3.00291Z" stroke="black" stroke-width="0.2231"/>
<path d="M7.77443 3.344L7.91203 3.61699C7.98083 5.45964 7.98083 7.3023 7.98083 9.28144L7.91203 9.96391C7.43043 9.96391 6.94884 9.75917 6.46724 9.82741C5.91685 9.75917 5.36645 9.89566 4.88485 9.75917C4.60966 9.14495 4.81606 8.46249 4.74726 7.78002C4.74726 6.41509 4.81606 4.70893 4.81606 3.27576C4.81606 3.13926 4.95365 3.13926 5.02245 3.07102C5.98565 3.13926 7.01764 2.86628 7.77443 3.344Z" fill="white"/>
<path d="M4.12804 3.20754C3.85285 3.41228 3.50885 3.75351 3.64645 4.09474C3.78405 6.41512 3.64645 8.46251 3.78405 10.6464L3.99045 10.8511C5.09124 10.8511 6.26083 10.7146 7.29282 10.9194C7.36162 10.9194 7.36162 11.0559 7.29282 11.0559C7.01762 11.1924 6.67362 11.1241 6.39843 11.1241L3.57765 11.0559C3.37125 10.9194 3.44005 10.5782 3.44005 10.3052C3.44005 10.0322 3.50885 9.69095 3.23365 9.55446C2.82086 9.48621 2.47686 9.55446 2.20166 9.28147C2.40806 8.7355 3.30245 9.14498 3.44005 8.59901C3.50885 7.57531 3.37125 6.55161 3.44005 5.59616C3.30245 5.05019 2.75206 5.18668 2.33926 5.11844C2.27046 5.05019 2.20166 4.98195 2.20166 4.84545C2.54566 4.50422 3.23365 4.9137 3.44005 4.43597C3.57765 4.0265 3.44005 3.61702 3.50885 3.13929C3.64645 3.07104 3.92165 3.07104 4.12804 3.07104V3.20754Z" fill="white"/>
<path d="M11.9026 3.20767C11.9026 5.4598 11.9026 7.57544 11.9026 9.69108C10.8018 9.82757 9.5634 9.62284 8.46261 9.89582C8.18741 9.69108 8.39381 9.34985 8.32501 9.00862C8.25621 8.32615 8.32501 7.5072 8.32501 6.75648C8.32501 5.66454 8.25621 4.50435 8.32501 3.41241C8.46261 3.07118 8.87541 3.00293 9.2194 3.00293H11.8338L11.9026 3.20767Z" fill="white"/>
<path d="M13.2097 3.20754C13.2785 3.61702 13.0721 4.23123 13.3473 4.64071C13.6225 4.77721 14.0353 4.70896 14.3105 4.77721C14.4481 4.9137 14.3793 5.05019 14.3105 5.18668C14.0353 5.45967 13.3473 5.11844 13.2097 5.59616C13.2097 6.68811 13.1409 7.7118 13.2097 8.80375L13.3473 8.94024C13.6913 9.00849 14.1729 8.87199 14.3793 9.14498C14.3793 9.28147 14.3793 9.48621 14.2417 9.55446C13.8977 9.6227 13.3473 9.41796 13.1409 9.82744C13.0721 10.2369 13.2097 10.7146 13.0721 11.1241L12.8657 11.1924L8.94415 11.1241C8.87535 11.0559 8.94415 10.9876 8.94415 10.9876L9.35695 10.8511H12.5217C12.8657 10.7829 12.8657 10.3734 12.8657 10.1004C12.8657 8.53076 12.8657 7.23408 12.8657 5.73266C12.8657 4.98195 13.0033 4.29948 12.7969 3.54877C12.7969 3.41228 12.5217 3.27578 12.5217 3.07104C12.7969 3.07104 13.0721 3.07104 13.2097 3.20754Z" fill="white"/>
<path d="M31.0288 3.20756C30.96 3.4123 30.6848 3.61704 30.616 3.82177C30.616 6.07391 30.616 8.53078 30.6848 10.8512L30.8912 10.9877C32.1296 10.9877 33.4368 10.7147 34.4688 11.2606C34.5375 11.2606 34.4688 11.2606 34.4688 11.3289C33.1616 11.3289 31.7856 11.3971 30.4784 11.3289L30.3408 11.1924C30.272 10.7147 30.4096 10.2369 30.2032 9.75922C29.928 9.48623 29.0336 9.82746 29.24 9.21324C29.584 8.94026 30.0656 9.28149 30.272 8.87201C30.272 7.71182 30.3408 6.68813 30.272 5.59618C29.9968 5.25495 29.584 5.45969 29.24 5.39144C29.1024 5.25495 29.0336 5.11846 29.1712 4.98196C29.5152 4.70898 30.616 5.05021 30.4096 4.23125C30.5472 3.89002 30.272 3.20756 30.7536 3.13931C30.8224 3.07106 30.96 3.07106 31.0288 3.20756Z" fill="white"/>
<path d="M40.1103 3.20759C40.2479 3.75356 39.9727 4.23128 40.3167 4.70901C40.5919 4.8455 41.1423 4.64076 41.2799 4.98199C41.2799 5.66446 40.3167 5.11849 40.1103 5.66446C40.1791 6.68816 40.0415 7.57536 40.1103 8.6673C39.9727 8.73555 39.9727 8.87204 40.0415 8.94029C40.3167 9.21327 40.7295 8.80379 41.0735 9.07678C41.2799 9.14503 41.1423 9.28152 41.1423 9.41801C40.8671 9.75925 40.3167 9.34977 40.1103 9.82749L40.0415 11.1924L39.8351 11.2607H36.1199C36.0511 11.1924 36.1199 11.1924 36.1199 11.1242L36.5327 10.9877H39.3535C39.4911 10.9877 39.6975 10.8512 39.6975 10.6464C39.6975 8.46256 39.6287 6.21043 39.6287 3.89005L39.2847 3.20759C39.6287 3.07109 40.0415 3.00285 40.1103 3.20759Z" fill="white"/>
<path d="M31.4416 4.09482C31.4416 6.00572 31.4416 8.05311 31.4416 10.0323C31.3728 10.1688 31.1664 10.3052 31.0976 10.3735L30.96 10.3052C30.96 9.69103 30.96 8.94032 30.96 8.3261V7.84837C30.96 6.55169 30.96 5.11851 30.96 3.82183C31.0976 3.68534 31.1664 3.4806 31.304 3.41235C31.4416 3.68534 31.4416 3.82183 31.4416 4.09482Z" fill="white"/>
<path d="M39.5599 3.82184C39.4911 5.39151 39.5599 6.82469 39.5599 8.25786C39.5599 8.94033 39.5599 9.55455 39.5599 10.1688C39.5599 10.237 39.5599 10.237 39.4911 10.3053C39.0095 10.1005 39.2159 9.62279 39.1471 9.14507C39.1471 8.5991 39.0783 7.91663 39.2159 7.30241L39.1471 7.09767V3.48061C39.2847 3.27587 39.4911 3.6171 39.5599 3.82184Z" fill="white"/>
<path d="M12.6595 3.68534C12.6595 5.93747 12.6595 8.12136 12.5907 10.1005C12.5219 10.237 12.4531 10.1005 12.3155 10.0323C12.178 9.69102 12.3155 9.28155 12.3155 8.94031C12.2468 7.16591 12.3155 5.32325 12.3155 3.54884C12.4531 3.41235 12.5907 3.61709 12.6595 3.68534Z" fill="white"/>
<path d="M35.5006 6.4834C35.4318 6.61989 35.2254 6.61989 35.0878 6.55164L34.9502 6.4834C35.019 6.21041 34.9502 5.80093 35.2254 5.59619C35.4318 5.80093 35.363 6.21041 35.5006 6.4834Z" fill="white"/>
<path d="M12.3842 10.4416C12.3154 10.5781 12.0402 10.5098 11.9026 10.5781H11.0082C10.3202 10.5781 9.56339 10.5098 8.94419 10.6463C8.80659 10.6463 8.73779 10.5098 8.73779 10.3733C8.80659 10.1003 9.15059 10.2368 9.35699 10.1003C10.1826 10.1003 11.2146 10.1003 12.0402 10.1003C12.109 10.1686 12.2466 10.3051 12.3842 10.4416Z" fill="white"/>
<path d="M7.70584 10.3052C7.70584 10.4417 7.56824 10.5782 7.43064 10.6464C6.53625 10.3734 5.57306 10.5782 4.60986 10.4417C4.67866 10.3052 4.81626 10.1687 5.02266 10.1687C5.91705 10.1687 6.88024 10.1687 7.70584 10.3052Z" fill="white"/>
<path d="M34.8814 10.4417C34.9502 10.51 34.9502 10.6465 34.8814 10.6465C34.5374 11.056 34.1246 10.5782 33.7118 10.6465C33.0238 10.5782 32.1982 10.6465 31.4414 10.5782C31.6478 9.96402 32.4734 10.3053 32.955 10.237C33.643 10.3053 34.331 10.1005 34.8814 10.4417Z" fill="white"/>
<path d="M39.0096 10.3052C39.1472 10.3734 39.2848 10.5099 39.2848 10.6464C38.1152 10.7829 37.0145 10.5099 35.9825 10.7829C35.8449 10.7829 35.7761 10.5782 35.8449 10.4417C36.0513 10.1687 36.3953 10.2369 36.7393 10.1687L39.0096 10.3052Z" fill="white"/>
<path d="M8.60022 10.8511C8.66901 11.0558 8.60022 11.3288 8.46262 11.4653C8.32502 11.6018 8.11862 11.6018 7.98102 11.5336C7.84342 11.5336 7.77462 11.3288 7.77462 11.1923C7.70582 10.9194 8.04982 10.7829 8.18742 10.5781C8.39382 10.5781 8.53142 10.7146 8.60022 10.8511Z" fill="white"/>
<path d="M35.707 10.9876C35.707 11.2606 35.707 11.6018 35.4318 11.6018C35.2254 11.6018 35.019 11.5336 34.9502 11.3288C34.8814 11.0558 35.0878 10.7828 35.2254 10.7146C35.5006 10.7146 35.6382 10.8511 35.707 10.9876Z" fill="white"/>
<path d="M25.5935 3.27578C25.5935 5.39142 25.5935 7.64356 25.5935 9.7592L25.4559 9.82744C24.2863 9.96394 23.1167 9.6227 22.0159 10.0322C21.8095 9.89569 22.0159 9.6227 21.9471 9.41796C21.9471 7.57531 21.9471 5.66441 21.9471 3.68526C21.9471 3.48052 22.0847 3.34403 22.2223 3.27578C22.4975 3.07105 22.9103 3.13929 23.3231 3.07104L25.5247 3.13929L25.5935 3.27578Z" fill="white"/>
<path d="M26.9006 3.20767C26.9006 3.68539 26.9006 4.16312 26.9694 4.64084C27.3134 4.91383 28.2766 4.50435 28.0702 5.25506C27.795 5.4598 27.3822 5.32331 27.0382 5.39156L26.9006 5.4598C26.763 6.55174 26.9694 7.71193 26.9006 8.66738C26.9006 8.80388 26.9694 8.94037 27.1758 9.00862C27.451 9.00862 27.9326 8.80388 28.0702 9.21336C28.0014 9.89582 27.1758 9.2816 26.9006 9.75933C26.8318 10.2371 27.0382 10.7148 26.8318 11.1925L26.6942 11.2607C25.2494 11.2607 23.8734 11.2607 22.5662 11.1925C22.4974 11.1925 22.5662 11.056 22.5662 11.056L22.8414 10.9195C23.9422 10.783 25.1806 10.9195 26.3502 10.783C26.4878 10.783 26.6254 10.6465 26.6254 10.4418C26.6254 8.32615 26.6254 6.21051 26.6254 3.82189C26.5566 3.48065 26.2126 3.27592 26.2126 3.00293C26.419 3.07118 26.763 3.00293 26.9006 3.20767Z" fill="white"/>
<path d="M17.6819 3.13921C17.6131 3.41219 17.4067 3.48044 17.2691 3.68518C17.1315 4.09466 17.2691 4.57238 17.2003 5.05011C17.2003 6.96101 17.2003 8.73541 17.2003 10.5781C17.2003 10.7146 17.3379 10.8511 17.4755 10.9193L20.4339 10.9875C20.5715 10.9875 20.7779 11.0558 20.9155 11.1923C20.8467 11.3288 20.6403 11.3288 20.5027 11.3288C19.4019 11.3288 18.2323 11.397 17.1315 11.2605L16.9939 11.1923C16.9939 10.7146 16.9939 10.1686 16.7875 9.75911C16.4435 9.62262 16.0307 9.75911 15.6867 9.62262C15.5491 9.55437 15.5491 9.34963 15.6867 9.21314C16.0307 9.0084 16.7187 9.34963 16.9251 8.80366C16.9251 7.71172 16.9939 6.68802 16.9251 5.59608C16.6499 5.1866 15.9619 5.59608 15.6867 5.1866C15.8243 4.57238 16.6499 5.11835 16.9251 4.57238L16.9939 3.2757C17.2691 3.07096 17.4755 3.07096 17.6819 3.13921Z" fill="white"/>
<path d="M18.0945 3.48049C18.1633 5.39139 17.9569 7.09755 18.0945 9.00845C17.9569 9.41793 18.3009 10.1004 17.6817 10.1686C17.5441 8.25774 17.6817 6.21034 17.6129 4.16295C17.5441 3.82172 17.7505 3.54873 18.0257 3.34399L18.0945 3.48049Z" fill="white"/>
<path d="M26.3505 3.8217C26.3505 5.93734 26.4193 8.18947 26.2817 10.1686C26.1441 10.1686 26.0065 10.0321 26.0065 9.96388C26.0065 9.14492 25.8689 8.25772 25.9377 7.37051C26.0065 6.21032 25.8689 4.77715 26.0065 3.54871C26.1441 3.48047 26.3505 3.6852 26.3505 3.8217Z" fill="white"/>
<path d="M21.2594 10.3051C21.397 10.3051 21.5346 10.4416 21.397 10.5781L21.1906 10.7828C20.2274 10.4416 18.989 10.6463 17.957 10.5098C18.0258 10.3733 18.0946 10.2368 18.2322 10.1003C19.2642 10.2368 20.2962 10.1003 21.2594 10.3051Z" fill="white"/>
<path d="M25.6624 10.1688C25.8 10.237 25.9376 10.3735 25.9376 10.51L25.8 10.5782C24.6304 10.5782 23.4609 10.4417 22.3601 10.7147C22.2225 10.7147 22.0161 10.7147 21.9473 10.51C22.0849 10.237 22.3601 10.1688 22.6353 10.1688C23.7361 10.1005 24.6992 10.1688 25.6624 10.1688Z" fill="white"/>
<path d="M22.0849 11.1242C22.0849 11.3289 22.0849 11.6019 21.8097 11.6019C21.6033 11.6019 21.3281 11.6019 21.3281 11.3289C21.3969 11.1242 21.5345 10.9877 21.7409 10.8512C21.9473 10.783 22.0161 10.9877 22.0849 11.1242Z" fill="white"/>
<path d="M21.5345 7.64356C21.6721 6.55161 21.5345 5.32318 21.6033 4.23123C21.6033 3.89 21.6033 3.54877 21.3969 3.27578C20.5713 2.93455 19.5393 3.13929 18.5761 3.07104C18.5073 3.07104 18.4385 3.07104 18.4385 3.13929C18.4385 5.32318 18.4385 7.37057 18.4385 9.48621L18.5073 9.7592C19.1953 9.89569 19.8145 9.82744 20.5025 9.82744C20.8465 9.89569 21.1905 9.96394 21.5345 10.0322C21.5345 9.28147 21.6033 8.7355 21.5345 7.98479V7.64356Z" fill="white"/>
<path d="M21.2591 7.57535C20.9151 7.30237 20.8463 6.89289 20.5711 6.55166C20.7087 6.41516 20.8463 6.34692 20.9839 6.21042C21.1903 6.00569 21.3967 5.66445 21.3279 5.39147C21.3279 5.11848 21.1903 4.8455 20.9151 4.709C20.3647 4.50426 19.6079 4.57251 18.9887 4.64076C18.8511 4.709 18.8511 4.77725 18.9199 4.91374C19.1263 4.91374 19.2639 5.05023 19.2639 5.25497C19.2639 6.00568 19.2639 6.7564 19.1263 7.50711L18.8511 7.84834C19.1263 8.12132 19.5391 7.91659 20.0207 7.98483C20.1583 7.78009 19.8143 7.6436 19.7455 7.43886C19.8143 7.23412 19.7455 6.89289 19.8831 6.7564C20.2959 7.09763 20.4335 7.71185 20.9151 8.05308L21.5343 8.12132V7.78009C21.5343 7.71185 21.3279 7.57535 21.2591 7.57535ZM20.4335 6.21042C20.2271 6.21042 19.9519 6.34692 19.8831 6.07393C19.8831 5.7327 19.7455 5.25497 19.8831 4.91374C20.1583 4.709 20.5023 4.77725 20.7087 5.05023C20.8463 5.25497 20.8463 5.45971 20.8463 5.7327C20.7087 5.93744 20.6399 6.14218 20.4335 6.21042Z" fill="black"/>
<path d="M38.8718 3.89C38.8718 3.61702 38.8718 3.34403 38.7342 3.13929H37.7022C37.0142 3.27578 36.1886 3.0028 35.5694 3.41228C35.2942 3.75351 35.4318 4.09474 35.363 4.50422C35.4318 4.70896 35.5006 4.98195 35.5694 5.18668L35.4318 5.45967L35.0878 5.32318L34.9503 5.05019C35.019 4.9137 35.0878 4.77721 35.0878 4.57247C35.0878 4.09474 35.2254 3.41228 34.6063 3.20754C33.7119 3.13929 32.8863 3.07104 31.9231 3.07104C31.8543 3.07104 31.7855 3.07104 31.7855 3.13929C31.7855 5.25493 31.7855 7.09759 31.7855 9.14498C31.7855 9.41796 31.7167 9.69095 31.9919 9.82744C32.8175 9.69095 33.5055 9.82744 34.2623 9.82744C34.5375 9.82744 34.7439 10.1004 35.0878 10.0322C35.1566 9.21322 35.1566 8.18953 35.1566 7.23408C35.1566 7.16583 35.1567 6.96109 35.0191 6.96109V6.75635L35.5006 6.8246L35.5694 6.96109C35.5694 6.96109 35.5694 6.96109 35.5006 7.02934L35.4318 9.82744C35.4318 9.89569 35.4318 10.1004 35.6382 10.1004C36.4638 9.6227 37.5646 9.96394 38.5278 9.82744L38.7342 9.7592C38.8718 9.28147 38.803 7.64356 38.803 7.64356C38.8718 6.41512 38.8718 5.18668 38.8718 3.89Z" fill="white"/>
<path d="M35.6385 6.96104C35.7761 7.09753 35.8449 7.30227 35.7761 7.50701L35.5697 7.78L35.7073 7.91649C36.0513 7.91649 36.4641 7.98474 36.8081 7.84824C36.7393 7.71175 36.5329 7.64351 36.3953 7.50701C35.9825 6.48332 35.7073 5.45962 35.4321 4.36768L35.0881 4.57241C34.8817 5.52787 34.5377 6.34682 34.2625 7.30227C34.1937 7.50701 33.9873 7.50701 33.8497 7.64351C33.6433 7.71175 33.5745 7.50701 33.5057 7.37052C33.5057 6.55156 33.5745 5.8691 33.5057 4.98189C33.5057 4.8454 33.6433 4.70891 33.7809 4.8454C33.9873 4.98189 33.9873 5.25488 34.0561 5.39137C34.1937 5.45962 34.3313 5.45962 34.3313 5.32313L34.4689 4.50417C34.3313 4.23118 34.1249 4.50417 33.9185 4.50417C33.5057 4.50417 32.9553 4.57242 32.5425 4.36768C32.1985 4.50417 32.2673 4.91365 32.2673 5.25488C32.2673 5.32313 32.2673 5.39137 32.2673 5.39137C32.5425 5.18663 32.6801 4.77715 33.0241 4.8454V5.66436V7.43877C32.8865 7.57526 32.6113 7.64351 32.6801 7.84824C33.1617 7.98474 33.7121 7.84824 34.1937 7.91649C34.4689 7.91649 34.7441 7.98474 35.0193 7.91649C35.0881 7.84824 35.0193 7.78 35.0193 7.71175C34.8817 7.64351 34.6753 7.50701 34.7441 7.30227C34.8129 7.16578 34.8817 6.89279 35.0881 6.96104C35.1569 6.96104 35.1569 6.96104 35.2257 7.02929L35.6385 7.09753C35.5697 7.02929 35.5697 6.96104 35.6385 6.96104ZM35.0193 6.61981L34.8817 6.55156C34.9505 6.27858 34.8817 5.8691 35.1569 5.66436C35.4321 5.80085 35.3633 6.21033 35.5009 6.48332C35.4321 6.61981 35.1569 6.61981 35.0193 6.61981Z" fill="black"/>
<path d="M38.1841 4.70895C38.1841 4.91369 38.3217 5.25493 38.1841 5.39142C37.9777 5.25493 37.9777 5.05019 37.6337 4.98194C37.4961 4.98194 37.2897 4.98194 37.2897 5.18668C37.2209 5.8009 37.8401 5.8009 38.1841 6.14213C38.5281 6.48336 38.6657 6.96109 38.5281 7.37056C38.3905 7.7118 38.2529 7.84829 37.9089 7.84829C37.6337 7.91654 37.4273 7.7118 37.2209 7.84829C37.1521 7.84829 37.0833 7.91654 37.0145 7.84829V6.75635C37.0145 6.6881 37.0833 6.6881 37.1521 6.6881C37.2897 7.02933 37.2209 7.43881 37.7025 7.50706C37.8401 7.50706 37.9777 7.43881 38.0465 7.23407C38.1153 6.27862 36.8081 6.48336 36.8081 5.45966C36.8081 5.25493 36.8769 5.05019 36.9457 4.84545C37.1521 4.50421 37.7025 4.70895 38.0465 4.50421C38.1153 4.43597 38.1153 4.64071 38.1841 4.70895Z" fill="black"/>
<path d="M24.2864 4.64067C24.0112 4.77716 23.736 4.9819 23.8048 5.39138C23.736 6.07385 23.736 6.75631 23.8048 7.43878L24.2176 7.84825V7.9165C23.736 7.9165 23.3232 7.98475 22.8416 7.9165C22.6352 7.71176 23.1168 7.57527 23.1856 7.43878C23.2544 6.68806 23.3232 5.86911 23.2544 5.05015C23.1168 4.77716 22.704 4.84541 22.7728 4.57243C23.1856 4.50418 23.736 4.50418 24.1488 4.57243L24.2864 4.64067Z" fill="black"/>
<path d="M10.8019 5.18663C10.5267 5.52787 10.4579 4.91365 10.1827 4.8454C10.0451 4.8454 9.76986 4.77715 9.63226 4.91365C9.56346 5.25488 9.49467 5.59611 9.63226 5.93734C9.76986 6.00559 9.97626 6.00559 10.1139 6.00559C10.2515 5.8691 10.3891 5.59611 10.5955 5.59611C10.7331 5.7326 10.5267 5.93734 10.5955 6.07384C10.5267 6.27858 10.7331 6.55156 10.4579 6.61981C10.3203 6.55156 10.1827 6.21033 9.97626 6.21033H9.56346C9.42587 6.68805 9.49467 7.16578 9.56346 7.6435C9.76986 7.84824 10.0451 7.6435 10.3203 7.6435C10.6643 7.57526 10.5955 7.09753 10.8707 7.09753C10.9395 7.30227 11.0083 7.57526 10.9395 7.78L10.8019 7.91649H8.80667C8.73787 7.91649 8.53147 7.91649 8.60027 7.78C9.21947 7.37052 8.87547 6.61981 8.94427 6.07384C8.87547 5.66436 9.21947 4.98189 8.60027 4.70891C8.60027 4.57242 8.73787 4.57241 8.80667 4.57241C9.28827 4.57241 9.97626 4.77715 10.3891 4.36768C10.8019 4.50417 10.8019 4.91365 10.8019 5.18663Z" fill="black"/>
<path d="M7.77458 4.77724C7.22418 5.18672 7.22418 6.00567 6.94898 6.61989C6.74258 6.96112 6.81138 7.5071 6.46739 7.78008C6.32979 7.84833 6.19219 7.71184 6.19219 7.57534C5.98579 6.75639 5.77939 5.86918 5.43539 5.05022C5.43539 4.84548 4.8162 4.77724 5.1602 4.5725C5.57299 4.50425 5.84819 4.64074 6.26099 4.5725C6.32979 4.84548 5.98579 4.98198 6.05459 5.25496C6.32979 5.5962 6.19219 6.14217 6.53619 6.55165L6.67378 6.41515C6.67378 5.80093 7.43058 5.18672 6.81138 4.64075C6.94898 4.36776 7.36178 4.5725 7.63698 4.50425C7.70578 4.5725 7.91217 4.64075 7.77458 4.77724Z" fill="black"/>
<path d="M4.40335 3.48047C4.54095 5.7326 4.40335 7.84824 4.40335 9.96388C4.40335 10.1004 4.26575 10.2369 4.12815 10.2369C3.99055 9.5544 3.99055 8.87194 4.05935 8.18947C3.99055 6.7563 4.05935 5.25488 4.05935 3.8217C4.05935 3.61696 4.26575 3.48047 4.40335 3.48047Z" fill="white"/>
</g>
</svg>
