<svg width="50" height="50" viewBox="0 0 50 50" fill="none" xmlns="http://www.w3.org/2000/svg">
<circle cx="25" cy="25" r="25" fill="#F3F3F3"/>
<path d="M34.3715 14H15.6242C14.7262 14 14 14.709 14 15.5855V34.4102C14 35.2867 14.7262 36 15.6242 36H34.3715C35.2695 36 36 35.2867 36 34.4145V15.5855C36 14.709 35.2695 14 34.3715 14ZM20.527 32.7473H17.2613V22.2457H20.527V32.7473ZM18.8941 20.8148C17.8457 20.8148 16.9992 19.9684 16.9992 18.9242C16.9992 17.8801 17.8457 17.0336 18.8941 17.0336C19.9383 17.0336 20.7848 17.8801 20.7848 18.9242C20.7848 19.9641 19.9383 20.8148 18.8941 20.8148ZM32.7473 32.7473H29.4859V27.6426C29.4859 26.4266 29.4645 24.8582 27.7887 24.8582C26.0914 24.8582 25.8336 26.1859 25.8336 27.5566V32.7473H22.5766V22.2457H25.7047V23.6809H25.7477C26.1816 22.8559 27.2473 21.9836 28.8328 21.9836C32.1371 21.9836 32.7473 24.1578 32.7473 26.9852V32.7473Z" fill="#050518"/>
</svg>
