<svg width="235" height="18" viewBox="0 0 235 18" fill="none" xmlns="http://www.w3.org/2000/svg">
<g clip-path="url(#clip0_111_1585)">
<mask id="mask0_111_1585" style="mask-type:luminance" maskUnits="userSpaceOnUse" x="0" y="0" width="235" height="18">
<path d="M234.73 0H0V18H234.73V0Z" fill="white"/>
</mask>
<g mask="url(#mask0_111_1585)">
<path d="M0 17.5791V0H5.07554V13.1726H14.9777V17.5791H0Z" fill="#050518"/>
<path d="M33.2719 0V4.08499H23.1966V6.38813H29.1875V10.5725H23.1966V13.2719H34.2374V17.5802H18.1211V0H33.2719Z" fill="#050518"/>
<path d="M48.1494 0C49.1224 0 50.01 0.123917 50.81 0.371751C51.61 0.619585 52.2914 0.987062 52.8522 1.47312C53.4129 1.96024 53.8465 2.56273 54.152 3.28059C54.4575 3.99846 54.6102 4.83596 54.6102 5.79418C54.6102 7.03229 54.3293 8.08024 53.7686 8.93804C53.2078 9.79691 52.4239 10.44 51.4166 10.8694L55.2286 17.5791H49.8818L46.4404 11.4634H42.4554V17.5791H37.3799V0H48.1483H48.1494ZM42.4554 7.25448H47.5053C48.7763 7.25448 49.4108 6.75988 49.4108 5.76855C49.4108 5.24083 49.2495 4.86053 48.928 4.62979C48.6065 4.39905 48.1312 4.28368 47.5053 4.28368H42.4554V7.25448Z" fill="#050518"/>
<path d="M73.3007 0V4.08499H63.2254V6.38813H69.2163V10.5725H63.2254V13.2719H74.2662V17.5802H58.1499V0H73.3007Z" fill="#050518"/>
<path d="M88.1787 0C89.1517 0 90.0393 0.123917 90.8393 0.371751C91.6393 0.619585 92.3207 0.987062 92.8814 1.47312C93.4422 1.96024 93.8758 2.56273 94.1813 3.28059C94.4868 3.99846 94.6395 4.83596 94.6395 5.79418C94.6395 7.03229 94.3586 8.08024 93.7979 8.93804C93.2371 9.79691 92.4531 10.44 91.4459 10.8694L95.2579 17.5791H89.9111L86.4697 11.4634H82.4847V17.5791H77.4092V0H88.1776H88.1787ZM82.4847 7.25448H87.5346C88.8056 7.25448 89.4401 6.75988 89.4401 5.76855C89.4401 5.24083 89.2788 4.86053 88.9573 4.62979C88.6358 4.39905 88.1605 4.28368 87.5346 4.28368H82.4847V7.25448Z" fill="#050518"/>
<path d="M109.814 10.9934V17.5791H104.74V0H109.814V6.58576H117.315V0H122.39V17.5791H117.315V10.9934H109.814Z" fill="#050518"/>
<path d="M131.723 0V17.5791H126.648V0H131.723Z" fill="#050518"/>
<path d="M146.775 0C148.805 0 150.401 0.504214 151.565 1.5105C152.728 2.5168 153.31 4.00273 153.31 5.96724C153.31 7.93175 152.734 9.41769 151.578 10.424C150.423 11.4313 148.822 11.9345 146.776 11.9345H141.033V17.5802H135.983V0H146.776H146.775ZM141.032 7.57602H146.155C146.815 7.57602 147.307 7.43608 147.628 7.15513C147.951 6.87418 148.111 6.47786 148.111 5.96617C148.111 4.89365 147.459 4.35739 146.155 4.35739H141.032V7.57602Z" fill="#050518"/>
<path d="M167.395 0C169.426 0 171.022 0.504214 172.186 1.5105C173.349 2.5168 173.931 4.00273 173.931 5.96724C173.931 7.93175 173.354 9.41769 172.199 10.424C171.044 11.4313 169.443 11.9345 167.397 11.9345H161.653V17.5802H156.604V0H167.397H167.395ZM161.652 7.57602H166.776C167.436 7.57602 167.927 7.43608 168.249 7.15513C168.571 6.87418 168.732 6.47786 168.732 5.96617C168.732 4.89365 168.08 4.35739 166.776 4.35739H161.652V7.57602Z" fill="#050518"/>
<path d="M192.374 0V4.08499H182.299V6.38813H188.289V10.5725H182.299V13.2719H193.339V17.5802H177.224V0H192.374Z" fill="#050518"/>
<path d="M201.038 15.1029L200.023 17.5791H194.874L202.375 0H207.846L215.298 17.5791H209.826L208.811 15.1029H201.038ZM204.925 5.69377L202.77 10.9431H207.078L204.925 5.69377Z" fill="#050518"/>
<path d="M228.751 12.3297C229.387 11.6044 229.704 10.6376 229.704 9.43264V0H234.729V9.75525C234.729 10.9111 234.544 11.9922 234.172 12.9985C233.8 14.0058 233.248 14.8807 232.513 15.6231C231.779 16.3656 230.872 16.9478 229.791 17.3687C228.71 17.7896 227.46 18 226.041 18C224.621 18 223.293 17.7885 222.203 17.3687C221.113 16.9478 220.201 16.3699 219.468 15.636C218.733 14.901 218.184 14.0304 217.821 13.0241C217.457 12.0167 217.276 10.9271 217.276 9.75525V0H222.376V9.43371C222.376 10.6387 222.689 11.6044 223.316 12.3308C223.943 13.0572 224.851 13.4204 226.038 13.4204C227.226 13.4204 228.114 13.0572 228.749 12.3308L228.751 12.3297Z" fill="#050518"/>
</g>
</g>
<defs>
<clipPath id="clip0_111_1585">
<rect width="235" height="18" fill="white"/>
</clipPath>
</defs>
</svg>
