<svg width="179" height="50" viewBox="0 0 179 50" fill="none" xmlns="http://www.w3.org/2000/svg">
<g clip-path="url(#clip0_111_1603)">
<path d="M174.31 45.571H135.376C135.923 46.8354 136.446 47.9318 136.867 49.0678C137.123 49.7547 137.47 50.0019 138.224 50C151.379 49.9736 164.532 49.9811 177.686 49.9792C178.017 49.9792 178.347 49.9472 178.689 49.9302V0H115.649C116.125 1.10583 116.625 2.08711 116.968 3.11934C117.293 4.09496 117.793 4.41387 118.849 4.41199C136.948 4.37047 155.046 4.38179 173.144 4.38179C173.532 4.38179 173.92 4.38179 174.309 4.38179V45.5691L174.31 45.571ZM4.0944 36.6603C4.0944 36.1809 4.0944 35.8073 4.0944 35.4337C4.10186 31.6293 4.04214 27.8231 4.13359 24.0225C4.24929 19.1991 7.14747 16.5799 11.895 16.8591C14.1886 16.9931 15.9409 18.2726 16.5941 20.5012C16.915 21.5976 17.0681 22.7808 17.0849 23.9281C17.1427 27.825 17.1073 31.7255 17.1091 35.6242C17.1091 35.9583 17.1371 36.2923 17.1539 36.6452H21.28C21.28 36.2564 21.28 35.9167 21.28 35.579C21.2819 31.7425 21.1923 27.9042 21.3062 24.0734C21.4835 18.1405 25.688 16.0288 30.3011 17.0875C31.8501 17.4423 33.0482 18.4179 33.5464 19.9332C33.9607 21.1919 34.2108 22.5581 34.2425 23.8829C34.3321 27.7476 34.2742 31.6161 34.2742 35.4827C34.2742 35.8526 34.2742 36.2225 34.2742 36.6301H38.447C38.447 36.2508 38.447 35.9394 38.447 35.628C38.4377 31.0066 38.5403 26.3813 38.3798 21.7656C38.2772 18.8406 37.1818 16.2421 34.6288 14.5286C30.5195 11.7697 23.6221 12.8378 20.4962 16.7006C20.3507 16.8799 20.1958 17.0497 20.0036 17.2724C18.2251 14.2625 15.521 13.1058 12.2851 13.0227C9.07336 12.9397 6.2349 13.8681 3.92457 16.6591V13.3228H0V36.6603H4.0944ZM112.984 36.698C109.33 32.0048 105.822 27.4966 102.308 22.9846C105.432 19.6917 108.507 16.4497 111.555 13.236C110.388 13.236 109.086 13.1831 107.792 13.2624C107.29 13.2945 106.699 13.5058 106.329 13.8417C102.561 17.2668 98.831 20.7352 95.0874 24.1886C94.8709 24.3886 94.6339 24.5641 94.2439 24.8849V3.90814H90.1719V36.6338H94.2626C94.2626 35.4431 94.3895 34.2976 94.2365 33.1918C93.9435 31.0783 94.6265 29.5346 96.3508 28.308C97.3474 27.5985 98.1722 26.6436 99.0997 25.7737C99.4095 26.1511 99.6316 26.4134 99.8443 26.6814C102.341 29.8139 104.831 32.9521 107.346 36.0677C107.572 36.3489 107.962 36.6546 108.287 36.6678C109.772 36.732 111.262 36.6961 112.984 36.6961V36.698ZM60.3298 23.1356C60.0182 23.1507 59.686 23.179 59.3557 23.1809C57.4279 23.1865 55.4908 23.062 53.5761 23.2224C51.7995 23.3715 49.9819 23.6243 48.3004 24.1904C45.9416 24.9849 44.6651 26.8644 44.4617 29.3818C44.249 32.018 45.2175 34.1335 47.4681 35.5412C49.9296 37.0811 52.6468 37.1773 55.4069 36.7527C57.3719 36.4508 59.0739 35.6016 60.3616 34.0127C60.4082 33.9561 60.509 33.9447 60.6863 33.8712V36.6357H64.5362C64.5362 31.2953 64.6986 26.0115 64.4821 20.7446C64.3235 16.8629 62.0131 14.3456 58.2864 13.4492C54.5055 12.5396 50.8123 12.968 47.289 14.6418C46.522 15.006 45.824 15.5174 45.0682 15.9779C45.7065 17.129 46.2626 18.1329 46.8355 19.1633C49.3735 17.2611 52.1392 16.4855 55.1587 16.7195C58.8518 17.0063 60.8766 19.5067 60.3317 23.1356H60.3298ZM165.728 20.037C166.754 19.369 167.784 18.7009 168.803 18.0386C166.652 13.8587 161.031 11.9962 155.516 13.5379C150.203 15.023 146.777 19.9747 147.139 25.6473C147.521 31.6312 151.411 35.9677 157.257 36.8112C163.179 37.6661 167.396 34.9694 168.746 31.8614C167.74 31.2179 166.724 30.5707 165.722 29.9309C162.212 33.89 157.227 34.3882 153.825 31.1858C150.638 28.1854 150.548 22.2317 153.557 19.0406C156.028 16.4195 162.163 15.1646 165.73 20.037H165.728ZM145.971 13.236C144.732 13.236 143.675 13.2737 142.625 13.2209C142.016 13.1907 141.753 13.4549 141.529 13.9795C139.881 17.8442 138.209 21.6995 136.541 25.5548C135.626 27.6683 134.703 29.7781 133.723 32.0275C133.512 31.5538 133.368 31.2425 133.236 30.9273C130.84 25.2699 128.447 19.6086 126.036 13.9568C125.919 13.6794 125.639 13.2831 125.418 13.2737C124.127 13.2095 122.832 13.2416 121.516 13.2416C121.531 13.4473 121.516 13.5473 121.548 13.6266C124.808 21.1655 128.067 28.7043 131.357 36.2319C131.456 36.4583 131.859 36.6603 132.131 36.6754C133.06 36.7301 133.997 36.6584 134.928 36.7093C135.572 36.7452 135.904 36.5489 136.175 35.9149C138.275 30.982 140.421 26.07 142.552 21.1504C143.672 18.567 144.786 15.9817 145.974 13.2341L145.971 13.236ZM72.4973 13.2888V36.6452H76.6421C76.6421 36.2243 76.6421 35.8564 76.6421 35.4865C76.6589 31.5595 76.5843 27.6287 76.7224 23.7055C76.8493 20.0785 79.2062 17.6159 82.7389 17.1384C83.4331 17.0441 84.1423 17.0667 84.8346 17.0365V13.0265C81.4904 13.051 78.5923 13.9002 76.4406 16.7289V13.2907H72.4973V13.2888Z" fill="white"/>
<path d="M174.31 45.5711V4.38375C173.922 4.38375 173.534 4.38375 173.146 4.38375C155.048 4.38375 136.95 4.37242 118.851 4.41394C117.795 4.41583 117.293 4.09691 116.97 3.12129C116.627 2.08717 116.127 1.10778 115.651 0.00195312H178.69V49.9302C178.349 49.9472 178.019 49.9793 177.688 49.9793C164.534 49.9812 151.381 49.9736 138.226 50.0001C137.472 50.0001 137.125 49.7547 136.869 49.0678C136.448 47.9318 135.923 46.8354 135.378 45.5711H174.312H174.31Z" fill="#050518"/>
<path d="M4.0944 36.6602H0V13.3227H3.92457V16.6591C6.2349 13.8681 9.07336 12.9396 12.2851 13.0227C15.521 13.1057 18.2232 14.2625 20.0036 17.2724C20.1958 17.0497 20.3507 16.8799 20.4962 16.7006C23.6221 12.8377 30.5195 11.7697 34.6288 14.5286C37.1818 16.242 38.2772 18.8386 38.3798 21.7655C38.5422 26.3813 38.4396 31.0065 38.447 35.628C38.447 35.9393 38.447 36.2507 38.447 36.63H34.2742C34.2742 36.2224 34.2742 35.8525 34.2742 35.4827C34.2742 31.616 34.3321 27.7475 34.2425 23.8828C34.2127 22.5581 33.9607 21.1918 33.5464 19.9331C33.0482 18.4178 31.8501 17.4441 30.3011 17.0874C25.688 16.0288 21.4816 18.1404 21.3062 24.0734C21.1923 27.9061 21.2819 31.7444 21.28 35.5789C21.28 35.9186 21.28 36.2564 21.28 36.6451H17.1539C17.1371 36.2922 17.1091 35.9582 17.1091 35.6242C17.1054 31.7255 17.1427 27.8268 17.0849 23.9281C17.0681 22.7808 16.915 21.5976 16.5941 20.5012C15.9409 18.2706 14.1886 16.9931 11.895 16.8591C7.14747 16.5798 4.24929 19.1991 4.13359 24.0224C4.04214 27.8249 4.10186 31.6311 4.0944 35.4336C4.0944 35.8072 4.0944 36.1809 4.0944 36.6602Z" fill="#050518"/>
<path d="M112.984 36.6981C111.262 36.6981 109.772 36.7339 108.287 36.6698C107.962 36.6565 107.574 36.3489 107.346 36.0697C104.831 32.9522 102.341 29.814 99.8443 26.6833C99.6315 26.4154 99.4095 26.1531 99.0997 25.7757C98.1703 26.6456 97.3455 27.6005 96.3508 28.31C94.6283 29.5366 93.9434 31.0802 94.2364 33.1938C94.3894 34.2996 94.2625 35.445 94.2625 36.6358H90.1719V3.9082H94.2439V24.885C94.6358 24.5641 94.8709 24.3887 95.0874 24.1886C98.8309 20.7353 102.561 17.2668 106.329 13.8418C106.699 13.5059 107.29 13.2945 107.792 13.2624C109.087 13.1813 110.39 13.236 111.555 13.236C108.507 16.4497 105.43 19.6917 102.308 22.9847C105.82 27.4967 109.33 32.0049 112.984 36.6981Z" fill="#050518"/>
<path d="M60.3278 23.1355C60.8709 19.5086 58.848 17.0063 55.1548 16.7195C52.1335 16.4855 49.3696 17.2611 46.8316 19.1632C46.2587 18.131 45.7026 17.129 45.0644 15.9778C45.8202 15.5174 46.5181 15.006 47.2851 14.6418C50.8085 12.9679 54.5016 12.5396 58.2825 13.4492C62.0093 14.3455 64.3177 16.8629 64.4782 20.7446C64.6947 26.0133 64.5323 31.2952 64.5323 36.6357H60.6824V33.8711C60.5051 33.9447 60.4044 33.956 60.3577 34.0126C59.0719 35.6034 57.3681 36.4507 55.403 36.7527C52.6429 37.1773 49.9276 37.0791 47.4643 35.5412C45.2137 34.1334 44.2451 32.018 44.4579 29.3817C44.6613 26.8644 45.9377 24.983 48.2966 24.1904C49.978 23.6243 51.7957 23.3714 53.5723 23.2223C55.487 23.0619 57.4241 23.1865 59.3518 23.1808C59.6822 23.1808 60.0143 23.1506 60.326 23.1355H60.3278ZM60.3222 26.3209C57.7059 26.3209 55.0764 26.3134 52.4451 26.3303C52.0793 26.3322 51.7098 26.4455 51.3478 26.5398C49.6066 26.9908 48.6717 28.0476 48.5821 29.6478C48.4907 31.2669 49.3193 32.703 50.954 33.188C52.1484 33.5409 53.4696 33.7277 54.7032 33.6163C58.0567 33.3144 61.2927 31.1141 60.3222 26.3209Z" fill="#050518"/>
<path d="M165.728 20.0371C162.162 15.1646 156.026 16.4176 153.555 19.0407C150.547 22.2317 150.636 28.1855 153.824 31.1859C157.226 34.3902 162.21 33.8901 165.72 29.931C166.723 30.5707 167.736 31.218 168.744 31.8615C167.394 34.9676 163.179 37.6643 157.255 36.8113C151.409 35.9678 147.52 31.6313 147.137 25.6473C146.775 19.9748 150.201 15.0231 155.514 13.538C161.029 11.9981 166.648 13.8607 168.801 18.0386C167.783 18.701 166.752 19.3709 165.726 20.0371H165.728Z" fill="#050518"/>
<path d="M145.971 13.236C144.784 15.9836 143.668 18.5689 142.548 21.1523C140.417 26.0719 138.271 30.984 136.172 35.9168C135.901 36.5508 135.569 36.7471 134.925 36.7112C133.996 36.6603 133.057 36.732 132.128 36.6773C131.855 36.6622 131.452 36.4584 131.353 36.2338C128.065 28.7081 124.805 21.1693 121.544 13.6285C121.511 13.5493 121.528 13.4473 121.513 13.2435C122.828 13.2435 124.123 13.2096 125.415 13.2756C125.635 13.2869 125.915 13.6832 126.033 13.9587C128.444 19.6105 130.836 25.2699 133.232 30.9292C133.367 31.2444 133.51 31.5557 133.719 32.0294C134.699 29.78 135.623 27.6702 136.537 25.5567C138.206 21.7014 139.878 17.8461 141.526 13.9814C141.75 13.4568 142.013 13.1926 142.621 13.2228C143.674 13.2756 144.73 13.2379 145.967 13.2379L145.971 13.236Z" fill="#050518"/>
<path d="M72.4956 13.2888H76.4388V16.7271C78.5905 13.9003 81.4887 13.0511 84.8329 13.0247V17.0347C84.1406 17.0649 83.4314 17.0441 82.7372 17.1366C79.2045 17.614 76.8475 20.0767 76.7206 23.7036C76.5825 27.6269 76.6572 31.5576 76.6404 35.4847C76.6404 35.8545 76.6404 36.2225 76.6404 36.6433H72.4956V13.287V13.2888Z" fill="#050518"/>
</g>
<defs>
<clipPath id="clip0_111_1603">
<rect width="178.689" height="50" fill="white"/>
</clipPath>
</defs>
</svg>
