<svg width="248" height="34" viewBox="0 0 248 34" fill="none" xmlns="http://www.w3.org/2000/svg">
<path d="M247.683 11.4573C247.751 11.4573 247.785 11.5249 247.785 11.6601C247.785 11.7952 247.751 11.8628 247.683 11.8628C247.075 11.8628 246.546 12.0994 246.095 12.5726C245.667 13.0232 245.261 13.7555 244.878 14.7694L240.856 25.4492C240.045 27.6122 239.268 29.3134 238.524 30.5526C237.781 31.7918 237.015 32.6705 236.226 33.1887C235.46 33.7295 234.593 33.9999 233.624 33.9999C233.083 33.9999 232.644 33.8759 232.306 33.6281C231.968 33.3803 231.799 33.031 231.799 32.5804C231.799 32.1974 231.923 31.9045 232.171 31.7017C232.396 31.4989 232.678 31.3975 233.016 31.3975C233.489 31.3975 233.939 31.544 234.367 31.8369C234.412 31.8594 234.536 31.927 234.739 32.0396C234.964 32.1523 235.235 32.2086 235.55 32.2086C236.114 32.2086 236.632 31.9608 237.105 31.4651C237.578 30.9694 238.085 30.147 238.626 28.9979C239.189 27.8488 239.865 26.2153 240.654 24.0974L240.62 25.3478L235.145 14.2624C234.649 13.2936 234.255 12.6514 233.962 12.336C233.691 12.0206 233.353 11.8628 232.948 11.8628C232.88 11.8628 232.847 11.7952 232.847 11.6601C232.847 11.5249 232.88 11.4573 232.948 11.4573C233.489 11.4573 233.894 11.4685 234.165 11.4911L235.381 11.5249L237.578 11.4911C237.916 11.4685 238.378 11.4573 238.964 11.4573C239.009 11.4573 239.031 11.5249 239.031 11.6601C239.031 11.7952 239.009 11.8628 238.964 11.8628C238.333 11.8628 237.86 11.9192 237.544 12.0318C237.229 12.1445 237.071 12.336 237.071 12.6064C237.071 12.719 237.127 12.9105 237.24 13.1809L241.803 22.4751L240.856 24.0636L244.067 14.837C244.247 14.2512 244.338 13.8005 244.338 13.4851C244.338 12.9218 244.135 12.5162 243.729 12.2684C243.346 11.998 242.738 11.8628 241.904 11.8628C241.859 11.8628 241.837 11.7952 241.837 11.6601C241.837 11.5249 241.859 11.4573 241.904 11.4573C242.512 11.4573 242.974 11.4685 243.29 11.4911L245.318 11.5249L246.602 11.4911C246.827 11.4685 247.188 11.4573 247.683 11.4573Z" fill="#050518"/>
<path d="M227.916 24.9077C226.97 24.9077 226.17 24.6937 225.517 24.2656C224.886 23.8149 224.57 23.0714 224.57 22.035V14.2279C224.57 13.4393 224.458 12.9323 224.232 12.707C224.03 12.4817 223.556 12.369 222.813 12.369C222.745 12.369 222.711 12.2789 222.711 12.0986C222.711 11.9409 222.745 11.8621 222.813 11.8621C223.804 11.8395 224.604 11.603 225.212 11.1523C225.821 10.6792 226.215 10.037 226.395 9.2259C226.418 9.15831 226.508 9.12451 226.666 9.12451C226.823 9.12451 226.902 9.15831 226.902 9.2259V20.8859C226.902 22.6658 227.77 23.5558 229.505 23.5558C230.473 23.5558 231.363 23.2404 232.175 22.6095C232.197 22.587 232.231 22.5757 232.276 22.5757C232.344 22.5757 232.4 22.6208 232.445 22.7109C232.49 22.801 232.479 22.8686 232.411 22.9137C231.578 23.6122 230.811 24.1191 230.113 24.4345C229.415 24.75 228.682 24.9077 227.916 24.9077ZM231.397 13.1126C229.888 12.7746 228.141 12.6056 226.159 12.6056V11.8283C227.578 11.8283 229.358 11.7156 231.499 11.4903C231.566 11.4903 231.623 11.5692 231.668 11.7269C231.713 11.8846 231.735 12.0648 231.735 12.2676C231.735 12.4704 231.701 12.6732 231.634 12.876C231.566 13.0562 231.487 13.1351 231.397 13.1126Z" fill="#050518"/>
<path d="M214.143 24.5024C214.075 24.5024 214.041 24.4348 214.041 24.2996C214.041 24.1645 214.075 24.0969 214.143 24.0969C214.976 24.0969 215.517 23.9504 215.765 23.6575C216.035 23.3421 216.17 22.7112 216.17 21.7649V15.5124C216.17 14.7238 216.091 14.1605 215.934 13.8226C215.776 13.4621 215.494 13.2818 215.089 13.2818C214.728 13.2818 214.244 13.4283 213.636 13.7212H213.602C213.512 13.7212 213.444 13.6649 213.399 13.5522C213.354 13.417 213.376 13.3381 213.467 13.3156L218.063 11.1864L218.198 11.1526C218.266 11.1526 218.333 11.1864 218.401 11.254C218.491 11.3216 218.536 11.4005 218.536 11.4906C218.536 11.6483 218.525 12.0989 218.502 12.8425C218.48 13.586 218.469 14.4647 218.469 15.4786V21.7649C218.469 22.7112 218.592 23.3421 218.84 23.6575C219.111 23.9504 219.663 24.0969 220.496 24.0969C220.564 24.0969 220.598 24.1645 220.598 24.2996C220.598 24.4348 220.564 24.5024 220.496 24.5024C219.956 24.5024 219.516 24.4912 219.178 24.4686L217.319 24.4348L215.461 24.4686C215.123 24.4912 214.683 24.5024 214.143 24.5024ZM217.117 7.36735C216.598 7.36735 216.182 7.23216 215.866 6.96178C215.573 6.66888 215.427 6.26331 215.427 5.74509C215.427 5.2494 215.573 4.86637 215.866 4.59599C216.182 4.32562 216.598 4.19043 217.117 4.19043C217.612 4.19043 217.995 4.32562 218.266 4.59599C218.559 4.86637 218.705 5.2494 218.705 5.74509C218.705 6.26331 218.57 6.66888 218.3 6.96178C218.029 7.23216 217.635 7.36735 217.117 7.36735Z" fill="#050518"/>
<path d="M201.94 24.8073C200.791 24.8073 199.878 24.4468 199.202 23.7258C198.549 22.9823 198.222 21.9571 198.222 20.6503V15.5131C198.222 14.6795 198.143 14.0711 197.986 13.6881C197.828 13.3051 197.569 13.1135 197.208 13.1135C196.96 13.1135 196.611 13.2149 196.161 13.4177H196.093C196.025 13.4177 195.969 13.3614 195.924 13.2487C195.901 13.1361 195.924 13.0685 195.992 13.046L199.98 11.1871L200.115 11.1533C200.182 11.1533 200.261 11.1871 200.351 11.2547C200.464 11.3223 200.52 11.4012 200.52 11.4913V19.366C200.52 20.6728 200.746 21.6417 201.196 22.2725C201.669 22.8809 202.379 23.185 203.326 23.185C204.114 23.185 204.914 22.9597 205.725 22.5091C206.536 22.036 207.223 21.4051 207.787 20.6165L207.956 20.9882C206.063 23.5343 204.058 24.8073 201.94 24.8073ZM209.443 20.7855C209.443 21.5515 209.522 22.1035 209.679 22.4415C209.86 22.7795 210.153 22.9485 210.558 22.9485C210.896 22.9485 211.448 22.7908 212.214 22.4753H212.248C212.338 22.4753 212.406 22.5316 212.451 22.6443C212.496 22.7344 212.485 22.802 212.417 22.8471L208.226 24.8411L208.091 24.8749C207.866 24.8749 207.652 24.6045 207.449 24.0638C207.246 23.523 207.145 22.8133 207.145 21.9346V15.5131C207.145 14.6795 207.066 14.0711 206.908 13.6881C206.75 13.3051 206.491 13.1135 206.131 13.1135C205.883 13.1135 205.522 13.2149 205.049 13.4177H204.982C204.914 13.4177 204.869 13.3614 204.846 13.2487C204.824 13.1361 204.846 13.0685 204.914 13.046L208.902 11.1871L209.037 11.1533C209.127 11.1533 209.217 11.1871 209.308 11.2547C209.398 11.3223 209.443 11.4012 209.443 11.4913V20.7855Z" fill="#050518"/>
<path d="M185.61 24.9422C184.641 24.9422 183.739 24.7056 182.906 24.2324C182.095 23.7368 181.441 23.0158 180.946 22.0694C180.472 21.1231 180.236 19.9966 180.236 18.6897C180.236 16.9774 180.596 15.5466 181.317 14.3975C182.038 13.2484 182.962 12.4035 184.089 11.8627C185.215 11.2995 186.398 11.0178 187.637 11.0178C189.395 11.0178 191.04 11.5022 192.572 12.4711L190.882 15.479C190.882 14.2849 190.476 13.3611 189.665 12.7077C188.854 12.0317 187.874 11.6938 186.725 11.6938C185.441 11.6938 184.472 12.1782 183.818 13.147C183.165 14.1159 182.838 15.5691 182.838 17.5068C182.838 19.4671 183.199 20.9767 183.92 22.0356C184.663 23.0946 185.643 23.6241 186.86 23.6241C187.649 23.6241 188.403 23.4101 189.124 22.982C189.845 22.5539 190.578 21.968 191.321 21.2245L191.592 21.4611C190.623 22.5426 189.688 23.3988 188.786 24.0297C187.885 24.638 186.826 24.9422 185.61 24.9422ZM188.212 33.797C188.167 33.797 188.144 33.7294 188.144 33.5942C188.144 33.459 188.167 33.3914 188.212 33.3914C188.978 33.3914 189.541 33.3238 189.902 33.1886C190.285 33.076 190.544 32.8619 190.679 32.5465C190.814 32.2311 190.882 31.7354 190.882 31.0594V12.7415L194.633 11.3896L194.701 11.3558C194.769 11.3558 194.814 11.4121 194.836 11.5248C194.859 11.6149 194.836 11.6712 194.769 11.6938C194.228 12.0092 193.822 12.3922 193.552 12.8429C193.281 13.271 193.146 13.8342 193.146 14.5327V31.0594C193.146 31.7354 193.191 32.2311 193.281 32.5465C193.394 32.8619 193.597 33.076 193.89 33.1886C194.183 33.3238 194.622 33.3914 195.208 33.3914C195.276 33.3914 195.309 33.459 195.309 33.5942C195.309 33.7294 195.276 33.797 195.208 33.797C194.645 33.797 194.205 33.7857 193.89 33.7632L191.997 33.7294L189.834 33.7632C189.451 33.7857 188.91 33.797 188.212 33.797Z" fill="#050518"/>
<path d="M162.188 24.5025C162.121 24.5025 162.087 24.4349 162.087 24.2997C162.087 24.1645 162.121 24.097 162.188 24.097C162.999 24.097 163.585 24.0406 163.946 23.928C164.329 23.8153 164.588 23.6013 164.723 23.2858C164.858 22.9479 164.926 22.4409 164.926 21.765V6.11695C164.926 5.44101 164.858 4.94532 164.723 4.62988C164.588 4.31444 164.329 4.1004 163.946 3.98774C163.585 3.85255 162.999 3.78496 162.188 3.78496C162.121 3.78496 162.087 3.71736 162.087 3.58218C162.087 3.44699 162.121 3.37939 162.188 3.37939H175.977C176.203 3.37939 176.315 3.48078 176.315 3.68357L176.383 7.94199C176.383 8.00958 176.315 8.05464 176.18 8.07718C176.068 8.07718 176 8.04338 175.977 7.97578C175.82 6.73656 175.38 5.79025 174.659 5.13684C173.938 4.48343 172.992 4.15672 171.82 4.15672H170.097C169.105 4.15672 168.441 4.30318 168.103 4.59608C167.765 4.88899 167.596 5.44101 167.596 6.25214V21.6298C167.596 22.4409 167.742 22.9929 168.035 23.2858C168.351 23.5787 168.97 23.7252 169.894 23.7252H172.125C173.386 23.7252 174.434 23.3534 175.268 22.6099C176.124 21.8438 176.71 20.7623 177.025 19.3654C177.025 19.3203 177.07 19.2978 177.16 19.2978C177.228 19.2978 177.284 19.3203 177.329 19.3654C177.397 19.3879 177.431 19.4104 177.431 19.433C177.205 21.0552 177.093 22.5761 177.093 23.9956C177.093 24.1758 177.059 24.311 176.991 24.4011C176.924 24.4687 176.789 24.5025 176.586 24.5025H162.188ZM174.693 16.7292C174.693 15.7604 174.412 15.0506 173.848 14.6C173.308 14.1268 172.44 13.8903 171.246 13.8903H166.312V13.1129H171.314C172.463 13.1129 173.308 12.9214 173.848 12.5384C174.389 12.1328 174.659 11.5132 174.659 10.6795C174.659 10.6345 174.716 10.612 174.828 10.612C174.964 10.612 175.031 10.6345 175.031 10.6795L174.997 13.5185L175.031 15.0394C175.076 15.7604 175.099 16.3236 175.099 16.7292C175.099 16.7743 175.031 16.7968 174.896 16.7968C174.761 16.7968 174.693 16.7743 174.693 16.7292Z" fill="#050518"/>
<path d="M136.661 24.5028C136.616 24.5028 136.593 24.4352 136.593 24.3C136.593 24.1648 136.616 24.0973 136.661 24.0973C137.494 24.0973 138.035 23.9508 138.283 23.6579C138.553 23.3425 138.688 22.7116 138.688 21.7653V4.39361C138.688 3.58248 138.61 3.00793 138.452 2.66996C138.317 2.30946 138.058 2.12921 137.675 2.12921C137.291 2.12921 136.796 2.27566 136.187 2.56857H136.154C136.064 2.56857 135.996 2.51224 135.951 2.39959C135.906 2.28693 135.917 2.20807 135.985 2.16301L140.513 0H140.615C140.705 0 140.784 0.0337966 140.851 0.10139C140.942 0.168984 140.987 0.247844 140.987 0.33797V21.7653C140.987 22.7116 141.122 23.3425 141.392 23.6579C141.663 23.9508 142.215 24.0973 143.048 24.0973C143.116 24.0973 143.15 24.1648 143.15 24.3C143.15 24.4352 143.116 24.5028 143.048 24.5028C142.485 24.5028 142.046 24.4916 141.73 24.469L139.871 24.4352L137.945 24.469C137.629 24.4916 137.201 24.5028 136.661 24.5028ZM145.752 24.5028C145.707 24.5028 145.684 24.4352 145.684 24.3C145.684 24.1648 145.707 24.0973 145.752 24.0973C146.586 24.0973 147.126 23.9508 147.374 23.6579C147.645 23.3425 147.78 22.7116 147.78 21.7653V16.5605C147.78 15.2537 147.532 14.2849 147.036 13.654C146.563 13.0231 145.82 12.7077 144.806 12.7077C144.017 12.7077 143.217 12.9442 142.406 13.4174C141.595 13.8906 140.919 14.5214 140.378 15.31L140.209 14.9045C141.156 13.6202 142.113 12.6626 143.082 12.0317C144.073 11.4009 145.11 11.0854 146.191 11.0854C147.431 11.0854 148.388 11.4459 149.064 12.1669C149.74 12.8879 150.078 13.9131 150.078 15.2424V21.7653C150.078 22.7116 150.213 23.3425 150.484 23.6579C150.754 23.9508 151.306 24.0973 152.14 24.0973C152.207 24.0973 152.241 24.1648 152.241 24.3C152.241 24.4352 152.207 24.5028 152.14 24.5028C151.576 24.5028 151.137 24.4916 150.822 24.469L148.963 24.4352L147.036 24.469C146.721 24.4916 146.293 24.5028 145.752 24.5028Z" fill="#050518"/>
<path d="M130.75 24.9077C129.803 24.9077 129.003 24.6937 128.35 24.2656C127.719 23.8149 127.404 23.0714 127.404 22.035V14.2279C127.404 13.4393 127.291 12.9323 127.066 12.707C126.863 12.4817 126.39 12.369 125.646 12.369C125.579 12.369 125.545 12.2789 125.545 12.0986C125.545 11.9409 125.579 11.8621 125.646 11.8621C126.638 11.8395 127.438 11.603 128.046 11.1523C128.654 10.6792 129.049 10.037 129.229 9.2259C129.251 9.15831 129.341 9.12451 129.499 9.12451C129.657 9.12451 129.736 9.15831 129.736 9.2259V20.8859C129.736 22.6658 130.603 23.5558 132.338 23.5558C133.307 23.5558 134.197 23.2404 135.008 22.6095C135.031 22.587 135.064 22.5757 135.109 22.5757C135.177 22.5757 135.233 22.6208 135.278 22.7109C135.324 22.801 135.312 22.8686 135.245 22.9137C134.411 23.6122 133.645 24.1191 132.946 24.4345C132.248 24.75 131.516 24.9077 130.75 24.9077ZM134.231 13.1126C132.721 12.7746 130.975 12.6056 128.992 12.6056V11.8283C130.412 11.8283 132.192 11.7156 134.332 11.4903C134.4 11.4903 134.456 11.5692 134.501 11.7269C134.546 11.8846 134.569 12.0648 134.569 12.2676C134.569 12.4704 134.535 12.6732 134.467 12.876C134.4 13.0562 134.321 13.1351 134.231 13.1126Z" fill="#050518"/>
<path d="M111.931 14.2624C111.436 13.271 111.053 12.6289 110.782 12.336C110.512 12.0206 110.163 11.8628 109.735 11.8628C109.69 11.8628 109.667 11.7952 109.667 11.6601C109.667 11.5249 109.69 11.4573 109.735 11.4573C110.14 11.4573 110.467 11.4685 110.715 11.4911L112.202 11.5249L114.432 11.4911C114.77 11.4685 115.21 11.4573 115.75 11.4573C115.818 11.4573 115.852 11.5249 115.852 11.6601C115.852 11.7952 115.818 11.8628 115.75 11.8628C114.556 11.8628 113.959 12.1332 113.959 12.674C113.959 12.8317 114.004 13.0007 114.094 13.1809L118.319 21.9005L117.136 23.7594L120.989 14.3976C121.147 14.0146 121.226 13.6653 121.226 13.3499C121.226 12.3585 120.392 11.8628 118.725 11.8628C118.657 11.8628 118.623 11.7952 118.623 11.6601C118.623 11.5249 118.657 11.4573 118.725 11.4573C119.333 11.4573 119.784 11.4685 120.076 11.4911L122.104 11.5249L123.389 11.4911C123.614 11.4685 123.974 11.4573 124.47 11.4573C124.538 11.4573 124.571 11.5249 124.571 11.6601C124.571 11.7952 124.538 11.8628 124.47 11.8628C123.884 11.8628 123.377 12.0656 122.949 12.4712C122.544 12.8767 122.138 13.5527 121.733 14.499L117.542 24.4691C117.519 24.5592 117.395 24.6043 117.17 24.6043C116.945 24.6043 116.821 24.5592 116.798 24.4691L111.931 14.2624ZM103.82 14.2624C103.369 13.2936 102.975 12.6514 102.637 12.336C102.322 12.0206 101.939 11.8628 101.488 11.8628C101.421 11.8628 101.387 11.7952 101.387 11.6601C101.387 11.5249 101.421 11.4573 101.488 11.4573C101.916 11.4573 102.254 11.4685 102.502 11.4911L104.09 11.5249L106.287 11.4911C106.625 11.4685 107.087 11.4573 107.673 11.4573C107.741 11.4573 107.774 11.5249 107.774 11.6601C107.774 11.7952 107.741 11.8628 107.673 11.8628C106.411 11.8628 105.78 12.122 105.78 12.6402C105.78 12.7754 105.837 12.9556 105.949 13.1809L110.242 21.9005L109.025 23.7594L112.709 14.8708L113.385 15.1411L109.464 24.4691C109.442 24.5592 109.318 24.6043 109.092 24.6043C108.867 24.6043 108.743 24.5592 108.721 24.4691L103.82 14.2624Z" fill="#050518"/>
<path d="M93.1938 24.9422C91.8644 24.9422 90.6928 24.6267 89.6789 23.9959C88.665 23.3425 87.8764 22.475 87.3131 21.3935C86.7723 20.2895 86.502 19.0953 86.502 17.811C86.502 16.3465 86.8624 15.1073 87.5835 14.0933C88.3045 13.0569 89.2282 12.2908 90.3548 11.7952C91.4814 11.2769 92.6305 11.0178 93.8021 11.0178C95.1314 11.0178 96.3031 11.3445 97.317 11.9979C98.3309 12.6513 99.1082 13.5188 99.649 14.6003C100.19 15.6593 100.46 16.7858 100.46 17.98C100.46 19.3544 100.122 20.5711 99.4462 21.6301C98.7928 22.6891 97.9141 23.5114 96.81 24.0973C95.706 24.6605 94.5006 24.9422 93.1938 24.9422ZM94.1739 24.3C95.3004 24.3 96.1679 23.8607 96.7762 22.982C97.3846 22.1032 97.6888 20.7739 97.6888 18.9939C97.6888 17.5294 97.4634 16.2451 97.0128 15.1411C96.5847 14.037 95.9876 13.1921 95.2216 12.6063C94.4555 11.9979 93.5993 11.6938 92.653 11.6938C91.549 11.6938 90.6928 12.1219 90.0844 12.978C89.4986 13.8117 89.2057 15.0509 89.2057 16.6957C89.2057 18.1152 89.4198 19.4107 89.8478 20.5824C90.2759 21.7315 90.8618 22.644 91.6053 23.3199C92.3714 23.9733 93.2275 24.3 94.1739 24.3Z" fill="#050518"/>
<path d="M78.0719 14.9724C79.2886 13.5078 80.2349 12.5052 80.9109 11.9644C81.6093 11.4237 82.2402 11.1533 82.8035 11.1533C83.3217 11.1533 83.8061 11.311 84.2568 11.6265C84.7074 11.9194 84.9327 12.2799 84.9327 12.708C84.9327 13.046 84.82 13.3389 84.5947 13.5867C84.3694 13.812 84.0652 13.9247 83.6822 13.9247C83.4344 13.9247 83.2316 13.8796 83.0739 13.7895C82.9162 13.6768 82.7134 13.5191 82.4655 13.3163C82.2402 13.1135 82.0487 12.9671 81.891 12.877C81.7558 12.7868 81.5643 12.7418 81.3164 12.7418C81.001 12.7418 80.6405 12.9108 80.2349 13.2487C79.8519 13.5642 79.1985 14.2626 78.2747 15.3441L78.0719 14.9724ZM74.6922 24.5031C74.6246 24.5031 74.5908 24.4355 74.5908 24.3004C74.5908 24.1652 74.6246 24.0976 74.6922 24.0976C75.2555 24.0976 75.6723 24.0412 75.9427 23.9286C76.2356 23.7934 76.4271 23.5681 76.5173 23.2526C76.6299 22.9147 76.6862 22.419 76.6862 21.7656V15.1752C76.6862 14.4316 76.5961 13.9021 76.4159 13.5867C76.2581 13.2487 75.9765 13.0797 75.5709 13.0797C75.1879 13.0797 74.5908 13.2375 73.7797 13.5529H73.7121C73.6445 13.5529 73.5882 13.4966 73.5431 13.3839C73.5206 13.2713 73.5431 13.2037 73.6107 13.1811L77.7677 11.1871L77.9705 11.1533C78.1958 11.1533 78.4212 11.4237 78.6465 11.9644C78.8943 12.4827 79.0182 13.1699 79.0182 14.0261V21.7656C79.0182 22.419 79.0971 22.9147 79.2548 23.2526C79.4351 23.5681 79.7505 23.7934 80.2011 23.9286C80.6517 24.0412 81.3277 24.0976 82.2289 24.0976C82.2965 24.0976 82.3303 24.1652 82.3303 24.3004C82.3303 24.4355 82.2965 24.5031 82.2289 24.5031C81.4854 24.5031 80.8883 24.4919 80.4377 24.4693L77.8691 24.4355L75.9765 24.4693C75.6611 24.4919 75.233 24.5031 74.6922 24.5031Z" fill="#050518"/>
<path d="M62.8718 24.9088C60.3708 24.9088 58.1853 24.4243 56.3152 23.4555C54.4676 22.4641 53.0482 21.1348 52.0568 19.4674C51.0879 17.7776 50.6035 15.9188 50.6035 13.8909C50.6035 11.7279 51.1555 9.82403 52.2596 8.17924C53.3861 6.53445 54.9183 5.26143 56.856 4.36018C58.8162 3.45893 61.013 3.0083 63.4464 3.0083C64.5955 3.0083 65.6995 3.12096 66.7585 3.34627C67.8174 3.54905 68.6962 3.83069 69.3946 4.1912C69.5749 4.28132 69.6763 4.36018 69.6988 4.42777C69.7439 4.49537 69.7777 4.67562 69.8002 4.96853L70.2396 9.15935C70.2396 9.22695 70.172 9.27201 70.0368 9.29454C69.9241 9.31707 69.8565 9.28328 69.834 9.19315C69.3608 7.61596 68.5159 6.29788 67.2992 5.2389C66.1051 4.1574 64.5391 3.61665 62.6014 3.61665C60.9116 3.61665 59.3907 4.01095 58.0389 4.79954C56.687 5.58814 55.6167 6.72597 54.8281 8.21304C54.0621 9.67757 53.679 11.39 53.679 13.3502C53.679 15.3329 54.0733 17.1692 54.8619 18.8591C55.6505 20.5264 56.7996 21.867 58.3092 22.8809C59.8414 23.8948 61.6551 24.4018 63.7505 24.4018C65.2827 24.4018 66.3529 24.1089 66.9613 23.5231C67.5696 22.9147 67.8738 21.8332 67.8738 20.2786C67.8738 19.1069 67.7949 18.2958 67.6372 17.8452C67.502 17.372 67.1866 17.0566 66.6909 16.8989C66.2177 16.7411 65.3728 16.6623 64.1561 16.6623C64.0209 16.6623 63.9533 16.5722 63.9533 16.3919C63.9533 16.3243 63.9646 16.268 63.9871 16.2229C64.0322 16.1553 64.0773 16.1215 64.1223 16.1215C65.9248 16.2342 67.3894 16.2905 68.5159 16.2905C69.62 16.2905 70.7578 16.2567 71.9294 16.1891C71.9745 16.1891 72.0083 16.2229 72.0308 16.2905C72.0759 16.3356 72.0984 16.3806 72.0984 16.4257C72.0984 16.5834 72.0421 16.6623 71.9294 16.6623C71.4112 16.6398 71.0507 16.7186 70.8479 16.8989C70.6451 17.0566 70.5099 17.3946 70.4424 17.9128C70.3973 18.431 70.3748 19.3322 70.3748 20.6165C70.3748 21.6304 70.4086 22.3514 70.4761 22.7795C70.5663 23.2076 70.6113 23.478 70.6113 23.5907C70.6113 23.7259 70.5888 23.816 70.5437 23.861C70.4987 23.9061 70.3973 23.9512 70.2396 23.9962C67.4006 24.6046 64.9447 24.9088 62.8718 24.9088Z" fill="#050518"/>
<path d="M31.9826 3.0083C33.2894 3.0083 34.4385 3.10969 35.4299 3.31247C36.4438 3.49273 37.3901 3.7969 38.2688 4.22499C38.4266 4.29259 38.528 4.37145 38.573 4.46157C38.6181 4.52917 38.6519 4.69815 38.6744 4.96853L39.1138 9.19315C39.1138 9.26075 39.0462 9.30581 38.911 9.32834C38.7983 9.35087 38.7307 9.31707 38.7082 9.22695C37.5591 5.46422 35.2384 3.58285 31.746 3.58285C29.966 3.58285 28.3889 3.99968 27.0144 4.83334C25.64 5.667 24.5698 6.84989 23.8037 8.38202C23.0602 9.91415 22.6884 11.7054 22.6884 13.7557C22.6884 15.761 23.094 17.5748 23.9051 19.1971C24.7388 20.7968 25.8541 22.0585 27.251 22.9823C28.6705 23.8836 30.2252 24.3342 31.915 24.3342C33.6724 24.3342 35.1145 23.8948 36.241 23.0161C37.3676 22.1149 38.2801 20.7292 38.9786 18.8591C39.0011 18.814 39.0574 18.7915 39.1476 18.7915C39.1926 18.7915 39.2377 18.814 39.2827 18.8591C39.3503 18.8816 39.3841 18.9042 39.3841 18.9267L39.0124 22.7795C38.9898 23.0499 38.956 23.2189 38.911 23.2865C38.8659 23.3541 38.7533 23.433 38.573 23.5231C37.4464 24.0413 36.3649 24.4018 35.3285 24.6046C34.2921 24.8299 33.1542 24.9426 31.915 24.9426C29.5267 24.9426 27.3975 24.4807 25.5274 23.5569C23.6573 22.6106 22.1927 21.3037 21.1338 19.6364C20.0973 17.9691 19.5791 16.0539 19.5791 13.8909C19.5791 11.773 20.1086 9.89162 21.1676 8.24683C22.2491 6.57952 23.7361 5.29523 25.6288 4.39398C27.5214 3.47019 29.6393 3.0083 31.9826 3.0083Z" fill="#050518"/>
<path d="M9.22658 12.5722C10.601 12.5722 11.8177 12.8201 12.8767 13.3158C13.9356 13.8115 14.7468 14.4987 15.31 15.3774C15.8959 16.2336 16.1888 17.2137 16.1888 18.3177C16.1888 19.5119 15.8733 20.5934 15.2424 21.5622C14.6341 22.5086 13.7892 23.2634 12.7077 23.8267C11.6487 24.3674 10.4545 24.6378 9.12519 24.6378C8.40419 24.6378 7.61559 24.604 6.7594 24.5364C6.44396 24.5139 6.07219 24.4913 5.6441 24.4688C5.216 24.4463 4.73158 24.435 4.19083 24.435L1.82504 24.4688C1.39694 24.4913 0.822393 24.5026 0.101391 24.5026C0.0337969 24.5026 0 24.435 0 24.2998C0 24.1646 0.0337969 24.097 0.101391 24.097C0.889987 24.097 1.4758 24.0407 1.85883 23.928C2.24187 23.7929 2.50098 23.5675 2.63617 23.2521C2.79388 22.9367 2.87274 22.441 2.87274 21.765V6.11702C2.87274 5.44108 2.79388 4.9454 2.63617 4.62996C2.50098 4.31452 2.24187 4.10047 1.85883 3.98781C1.49833 3.85262 0.923784 3.78503 0.135188 3.78503C0.0901253 3.78503 0.067594 3.71744 0.067594 3.58225C0.067594 3.44706 0.0901253 3.37947 0.135188 3.37947L1.82504 3.41326C2.81642 3.45833 3.60501 3.48086 4.19083 3.48086C4.8217 3.48086 5.48638 3.44706 6.18485 3.37947C6.43269 3.35694 6.7256 3.3344 7.06357 3.31187C7.42407 3.28934 7.80711 3.27808 8.21267 3.27808C10.1504 3.27808 11.6149 3.68364 12.6063 4.49477C13.6202 5.28336 14.1271 6.3536 14.1271 7.70548C14.1271 8.96724 13.654 10.0713 12.7077 11.0176C11.7614 11.9639 10.4771 12.6286 8.85481 13.0116L9.22658 12.5722ZM7.57053 3.85263C7.02978 3.85263 6.61294 3.90895 6.32004 4.02161C6.04966 4.13427 5.84688 4.35958 5.71169 4.69755C5.59904 5.01299 5.54271 5.50868 5.54271 6.18462V12.8088L4.42741 12.5385C5.39625 12.606 6.26371 12.6398 7.02977 12.6398C8.51684 12.6398 9.63214 12.2117 10.3757 11.3556C11.1192 10.4994 11.491 9.3728 11.491 7.97586C11.491 6.69157 11.1643 5.68893 10.5109 4.96793C9.87999 4.22439 8.89988 3.85263 7.57053 3.85263ZM8.58444 23.9618C10.1842 23.9618 11.3671 23.545 12.1331 22.7113C12.9217 21.8777 13.316 20.6835 13.316 19.1289C13.316 17.4165 12.8429 16.0421 11.8965 15.0056C10.9502 13.9692 9.60961 13.4397 7.8747 13.4172C6.74813 13.3721 5.63283 13.4284 4.5288 13.5862L5.54271 13.2144V21.765C5.54271 22.3283 5.62157 22.7677 5.77929 23.0831C5.93701 23.376 6.22991 23.6013 6.65801 23.7591C7.0861 23.8942 7.72825 23.9618 8.58444 23.9618Z" fill="#050518"/>
</svg>
