<svg width="194" height="36" viewBox="0 0 194 36" fill="none" xmlns="http://www.w3.org/2000/svg">
<g clip-path="url(#clip0_117_35)">
<mask id="mask0_117_35" style="mask-type:luminance" maskUnits="userSpaceOnUse" x="0" y="0" width="194" height="36">
<path d="M193.281 0H0V35.8158H193.281V0Z" fill="white"/>
</mask>
<g mask="url(#mask0_117_35)">
<path d="M12.0247 34.9683C11.7185 34.9683 11.4548 35.161 11.3499 35.4303C11.8092 35.5267 12.2742 35.6061 12.7477 35.6684C12.7363 35.2801 12.4159 34.9683 12.0247 34.9683Z" fill="white"/>
<path d="M14.987 31.7112C14.4228 31.7112 13.9663 32.1676 13.9663 32.7317C13.9663 33.2957 14.4228 33.7521 14.987 33.7521C15.0069 33.7521 15.0296 33.7521 15.0494 33.7493V35.1411C15.0296 35.1411 15.0097 35.1383 14.987 35.1383C14.678 35.1383 14.4285 35.3877 14.4285 35.6967C14.4285 35.7364 14.4313 35.7732 14.4398 35.8101C14.6411 35.8186 14.8453 35.8214 15.0494 35.8214C24.942 35.8214 32.9632 27.8022 32.9632 17.9121C32.9632 8.02205 24.942 0 15.0494 0C14.8651 0 14.6837 0 14.4994 0.00850394C14.4909 0.0453543 14.4852 0.0850394 14.4852 0.124724C14.4852 0.40252 14.7092 0.626457 14.987 0.626457C15.0069 0.626457 15.0296 0.626457 15.0494 0.623622V2.07496C15.0296 2.07496 15.0097 2.07213 14.987 2.07213C14.4228 2.07213 13.9663 2.5285 13.9663 3.0926C13.9663 3.65669 14.4228 4.11307 14.987 4.11307C15.0069 4.11307 15.0296 4.11307 15.0494 4.11024V5.04284C15.0296 5.04284 15.0097 5.04 14.987 5.04C14.4228 5.04 13.9663 5.49638 13.9663 6.06047C13.9663 6.62457 14.4228 7.08095 14.987 7.08095C15.0069 7.08095 15.0296 7.08095 15.0494 7.07811V8.01071C15.0296 8.01071 15.0097 8.00787 14.987 8.00787C14.4228 8.00787 13.9663 8.46425 13.9663 9.02835C13.9663 9.59244 14.4228 10.0488 14.987 10.0488C15.0069 10.0488 15.0296 10.0488 15.0494 10.046V10.9786C15.0296 10.9786 15.0097 10.9757 14.987 10.9757C14.4228 10.9757 13.9663 11.4321 13.9663 11.9962C13.9663 12.5603 14.4228 13.0167 14.987 13.0167C15.0069 13.0167 15.0296 13.0167 15.0494 13.0139V13.9465C15.0296 13.9465 15.0097 13.9436 14.987 13.9436C14.4228 13.9436 13.9663 14.4 13.9663 14.9641C13.9663 15.5282 14.4228 15.9846 14.987 15.9846C15.0069 15.9846 15.0296 15.9846 15.0494 15.9817V16.9143C15.0296 16.9143 15.0097 16.9115 14.987 16.9115C14.4228 16.9115 13.9663 17.3679 13.9663 17.932C13.9663 18.4961 14.4228 18.9524 14.987 18.9524C15.0069 18.9524 15.0296 18.9524 15.0494 18.9496V19.8822C15.0296 19.8822 15.0097 19.8794 14.987 19.8794C14.4228 19.8794 13.9663 20.3358 13.9663 20.8998C13.9663 21.4639 14.4228 21.9203 14.987 21.9203C15.0069 21.9203 15.0296 21.9203 15.0494 21.9175V22.8501C15.0296 22.8501 15.0097 22.8472 14.987 22.8472C14.4228 22.8472 13.9663 23.3036 13.9663 23.8677C13.9663 24.4318 14.4228 24.8882 14.987 24.8882C15.0069 24.8882 15.0296 24.8882 15.0494 24.8854V25.818C15.0296 25.818 15.0097 25.8151 14.987 25.8151C14.4228 25.8151 13.9663 26.2715 13.9663 26.8356C13.9663 27.3997 14.4228 27.8561 14.987 27.8561C15.0069 27.8561 15.0296 27.8561 15.0494 27.8532V28.7858C15.0296 28.7858 15.0097 28.783 14.987 28.783C14.4228 28.783 13.9663 29.2394 13.9663 29.8035C13.9663 30.3676 14.4228 30.8239 14.987 30.8239C15.0069 30.8239 15.0296 30.8239 15.0494 30.8211V31.7537C15.0296 31.7537 15.0097 31.7509 14.987 31.7509V31.7112Z" fill="white"/>
<path d="M12.0247 34.2084C12.8413 34.2084 13.5048 33.5451 13.5048 32.7287C13.5048 31.9123 12.8413 31.249 12.0247 31.249C11.2082 31.249 10.5447 31.9123 10.5447 32.7287C10.5447 33.5451 11.2082 34.2084 12.0247 34.2084Z" fill="white"/>
<path d="M9.05901 33.7069C9.59926 33.7069 10.0372 33.2689 10.0372 32.7289C10.0372 32.1886 9.59926 31.751 9.05901 31.751C8.51876 31.751 8.08081 32.1886 8.08081 32.7289C8.08081 33.2689 8.51876 33.7069 9.05901 33.7069Z" fill="white"/>
<path d="M6.09328 33.2049C6.35635 33.2049 6.56962 32.9917 6.56962 32.7287C6.56962 32.4656 6.35635 32.2524 6.09328 32.2524C5.83022 32.2524 5.61694 32.4656 5.61694 32.7287C5.61694 32.9917 5.83022 33.2049 6.09328 33.2049Z" fill="white"/>
<path d="M12.0247 31.2436C12.8413 31.2436 13.5048 30.5803 13.5048 29.7639C13.5048 28.9475 12.8413 28.2842 12.0247 28.2842C11.2082 28.2842 10.5447 28.9475 10.5447 29.7639C10.5447 30.5803 11.2082 31.2436 12.0247 31.2436Z" fill="white"/>
<path d="M9.05901 30.7415C9.59926 30.7415 10.0372 30.3036 10.0372 29.7636C10.0372 29.2233 9.59926 28.7856 9.05901 28.7856C8.51876 28.7856 8.08081 29.2233 8.08081 29.7636C8.08081 30.3036 8.51876 30.7415 9.05901 30.7415Z" fill="white"/>
<path d="M6.09324 30.3732C6.42991 30.3732 6.70285 30.1005 6.70285 29.7637C6.70285 29.4273 6.42991 29.1543 6.09324 29.1543C5.75657 29.1543 5.48364 29.4273 5.48364 29.7637C5.48364 30.1005 5.75657 30.3732 6.09324 30.3732Z" fill="white"/>
<path d="M3.13021 30.084C3.30716 30.084 3.45061 29.9406 3.45061 29.7637C3.45061 29.5868 3.30716 29.4434 3.13021 29.4434C2.95326 29.4434 2.80981 29.5868 2.80981 29.7637C2.80981 29.9406 2.95326 30.084 3.13021 30.084Z" fill="white"/>
<path d="M12.0247 28.2811C12.8413 28.2811 13.5048 27.6178 13.5048 26.8015C13.5048 25.9851 12.8413 25.3218 12.0247 25.3218C11.2082 25.3218 10.5447 25.9851 10.5447 26.8015C10.5447 27.6178 11.2082 28.2811 12.0247 28.2811Z" fill="white"/>
<path d="M9.05901 27.7796C9.59926 27.7796 10.0372 27.3418 10.0372 26.8017C10.0372 26.2616 9.59926 25.8237 9.05901 25.8237C8.51876 25.8237 8.08081 26.2616 8.08081 26.8017C8.08081 27.3418 8.51876 27.7796 9.05901 27.7796Z" fill="white"/>
<path d="M6.09324 27.4108C6.42991 27.4108 6.70285 27.1379 6.70285 26.8013C6.70285 26.4648 6.42991 26.1919 6.09324 26.1919C5.75657 26.1919 5.48364 26.4648 5.48364 26.8013C5.48364 27.1379 5.75657 27.4108 6.09324 27.4108Z" fill="white"/>
<path d="M3.12985 27.1472C3.32089 27.1472 3.47576 26.9924 3.47576 26.8014C3.47576 26.6104 3.32089 26.4556 3.12985 26.4556C2.9388 26.4556 2.78394 26.6104 2.78394 26.8014C2.78394 26.9924 2.9388 27.1472 3.12985 27.1472Z" fill="white"/>
<path d="M0.164567 26.9404C0.241298 26.9404 0.303501 26.8782 0.303501 26.8015C0.303501 26.7248 0.241298 26.6626 0.164567 26.6626C0.087837 26.6626 0.0256348 26.7248 0.0256348 26.8015C0.0256348 26.8782 0.087837 26.9404 0.164567 26.9404Z" fill="white"/>
<path d="M12.0247 25.3163C12.8413 25.3163 13.5048 24.653 13.5048 23.8366C13.5048 23.0202 12.8413 22.3569 12.0247 22.3569C11.2082 22.3569 10.5447 23.0202 10.5447 23.8366C10.5447 24.653 11.2082 25.3163 12.0247 25.3163Z" fill="white"/>
<path d="M9.05901 24.8143C9.59926 24.8143 10.0372 24.3765 10.0372 23.8364C10.0372 23.2963 9.59926 22.8584 9.05901 22.8584C8.51876 22.8584 8.08081 23.2963 8.08081 23.8364C8.08081 24.3765 8.51876 24.8143 9.05901 24.8143Z" fill="white"/>
<path d="M6.09324 24.4459C6.42991 24.4459 6.70285 24.1731 6.70285 23.8365C6.70285 23.4999 6.42991 23.2271 6.09324 23.2271C5.75657 23.2271 5.48364 23.4999 5.48364 23.8365C5.48364 24.1731 5.75657 24.4459 6.09324 24.4459Z" fill="white"/>
<path d="M3.12985 24.1824C3.32089 24.1824 3.47576 24.0275 3.47576 23.8365C3.47576 23.6456 3.32089 23.4907 3.12985 23.4907C2.9388 23.4907 2.78394 23.6456 2.78394 23.8365C2.78394 24.0275 2.9388 24.1824 3.12985 24.1824Z" fill="white"/>
<path d="M0.164246 23.9925C0.250371 23.9925 0.320191 23.9227 0.320191 23.8366C0.320191 23.7505 0.250371 23.6807 0.164246 23.6807C0.0781196 23.6807 0.00830078 23.7505 0.00830078 23.8366C0.00830078 23.9227 0.0781196 23.9925 0.164246 23.9925Z" fill="white"/>
<path d="M12.0247 22.3515C12.8413 22.3515 13.5048 21.6881 13.5048 20.8717C13.5048 20.0554 12.8413 19.3921 12.0247 19.3921C11.2082 19.3921 10.5447 20.0554 10.5447 20.8717C10.5447 21.6881 11.2082 22.3515 12.0247 22.3515Z" fill="white"/>
<path d="M9.05901 21.8495C9.59926 21.8495 10.0372 21.4116 10.0372 20.8715C10.0372 20.3314 9.59926 19.8936 9.05901 19.8936C8.51876 19.8936 8.08081 20.3314 8.08081 20.8715C8.08081 21.4116 8.51876 21.8495 9.05901 21.8495Z" fill="white"/>
<path d="M6.09324 21.4811C6.42991 21.4811 6.70285 21.2082 6.70285 20.8717C6.70285 20.5351 6.42991 20.2622 6.09324 20.2622C5.75657 20.2622 5.48364 20.5351 5.48364 20.8717C5.48364 21.2082 5.75657 21.4811 6.09324 21.4811Z" fill="white"/>
<path d="M3.12985 21.2175C3.32089 21.2175 3.47576 21.0627 3.47576 20.8717C3.47576 20.6807 3.32089 20.5259 3.12985 20.5259C2.9388 20.5259 2.78394 20.6807 2.78394 20.8717C2.78394 21.0627 2.9388 21.2175 3.12985 21.2175Z" fill="white"/>
<path d="M0.164451 21.0359C0.255274 21.0359 0.328902 20.9622 0.328902 20.8714C0.328902 20.7806 0.255274 20.707 0.164451 20.707C0.0736272 20.707 0 20.7806 0 20.8714C0 20.9622 0.0736272 21.0359 0.164451 21.0359Z" fill="white"/>
<path d="M12.0247 19.3891C12.8413 19.3891 13.5048 18.7258 13.5048 17.9094C13.5048 17.093 12.8413 16.4297 12.0247 16.4297C11.2082 16.4297 10.5447 17.093 10.5447 17.9094C10.5447 18.7258 11.2082 19.3891 12.0247 19.3891Z" fill="white"/>
<path d="M9.05901 18.8871C9.59926 18.8871 10.0372 18.4492 10.0372 17.9091C10.0372 17.369 9.59926 16.9312 9.05901 16.9312C8.51876 16.9312 8.08081 17.369 8.08081 17.9091C8.08081 18.4492 8.51876 18.8871 9.05901 18.8871Z" fill="white"/>
<path d="M6.09324 18.5187C6.42991 18.5187 6.70285 18.2458 6.70285 17.9093C6.70285 17.5727 6.42991 17.2998 6.09324 17.2998C5.75657 17.2998 5.48364 17.5727 5.48364 17.9093C5.48364 18.2458 5.75657 18.5187 6.09324 18.5187Z" fill="white"/>
<path d="M3.12985 18.2551C3.32089 18.2551 3.47576 18.1003 3.47576 17.9093C3.47576 17.7183 3.32089 17.5635 3.12985 17.5635C2.9388 17.5635 2.78394 17.7183 2.78394 17.9093C2.78394 18.1003 2.9388 18.2551 3.12985 18.2551Z" fill="white"/>
<path d="M0.164451 18.0739C0.255274 18.0739 0.328902 18.0003 0.328902 17.9095C0.328902 17.8187 0.255274 17.7451 0.164451 17.7451C0.0736272 17.7451 0 17.8187 0 17.9095C0 18.0003 0.0736272 18.0739 0.164451 18.0739Z" fill="white"/>
<path d="M12.0247 16.4237C12.8413 16.4237 13.5048 15.7604 13.5048 14.944C13.5048 14.1277 12.8413 13.4644 12.0247 13.4644C11.2082 13.4644 10.5447 14.1277 10.5447 14.944C10.5447 15.7604 11.2082 16.4237 12.0247 16.4237Z" fill="white"/>
<path d="M9.05901 15.9222C9.59926 15.9222 10.0372 15.4844 10.0372 14.9443C10.0372 14.4041 9.59926 13.9663 9.05901 13.9663C8.51876 13.9663 8.08081 14.4041 8.08081 14.9443C8.08081 15.4844 8.51876 15.9222 9.05901 15.9222Z" fill="white"/>
<path d="M6.09324 15.5539C6.42991 15.5539 6.70285 15.281 6.70285 14.9444C6.70285 14.6078 6.42991 14.335 6.09324 14.335C5.75657 14.335 5.48364 14.6078 5.48364 14.9444C5.48364 15.281 5.75657 15.5539 6.09324 15.5539Z" fill="white"/>
<path d="M3.12985 15.2903C3.32089 15.2903 3.47576 15.1355 3.47576 14.9445C3.47576 14.7535 3.32089 14.5986 3.12985 14.5986C2.9388 14.5986 2.78394 14.7535 2.78394 14.9445C2.78394 15.1355 2.9388 15.2903 3.12985 15.2903Z" fill="white"/>
<path d="M0.164451 15.1086C0.255274 15.1086 0.328902 15.035 0.328902 14.9442C0.328902 14.8534 0.255274 14.7798 0.164451 14.7798C0.0736272 14.7798 0 14.8534 0 14.9442C0 15.035 0.0736272 15.1086 0.164451 15.1086Z" fill="white"/>
<path d="M12.0247 13.4589C12.8413 13.4589 13.5048 12.7956 13.5048 11.9792C13.5048 11.1628 12.8413 10.4995 12.0247 10.4995C11.2082 10.4995 10.5447 11.1628 10.5447 11.9792C10.5447 12.7956 11.2082 13.4589 12.0247 13.4589Z" fill="white"/>
<path d="M9.05901 12.9574C9.59926 12.9574 10.0372 12.5195 10.0372 11.9794C10.0372 11.4393 9.59926 11.0015 9.05901 11.0015C8.51876 11.0015 8.08081 11.4393 8.08081 11.9794C8.08081 12.5195 8.51876 12.9574 9.05901 12.9574Z" fill="white"/>
<path d="M6.09324 12.5885C6.42991 12.5885 6.70285 12.3157 6.70285 11.9791C6.70285 11.6425 6.42991 11.3696 6.09324 11.3696C5.75657 11.3696 5.48364 11.6425 5.48364 11.9791C5.48364 12.3157 5.75657 12.5885 6.09324 12.5885Z" fill="white"/>
<path d="M3.12985 12.325C3.32089 12.325 3.47576 12.1701 3.47576 11.9791C3.47576 11.7881 3.32089 11.6333 3.12985 11.6333C2.9388 11.6333 2.78394 11.7881 2.78394 11.9791C2.78394 12.1701 2.9388 12.325 3.12985 12.325Z" fill="white"/>
<path d="M0.164246 12.1351C0.250371 12.1351 0.320191 12.0652 0.320191 11.9791C0.320191 11.893 0.250371 11.8232 0.164246 11.8232C0.0781196 11.8232 0.00830078 11.893 0.00830078 11.9791C0.00830078 12.0652 0.0781196 12.1351 0.164246 12.1351Z" fill="white"/>
<path d="M12.0247 10.4965C12.8413 10.4965 13.5048 9.83317 13.5048 9.01679C13.5048 8.20042 12.8413 7.53711 12.0247 7.53711C11.2082 7.53711 10.5447 8.20042 10.5447 9.01679C10.5447 9.83317 11.2082 10.4965 12.0247 10.4965Z" fill="white"/>
<path d="M9.05901 9.99497C9.59926 9.99497 10.0372 9.5571 10.0372 9.01702C10.0372 8.4769 9.59926 8.03906 9.05901 8.03906C8.51876 8.03906 8.08081 8.4769 8.08081 9.01702C8.08081 9.5571 8.51876 9.99497 9.05901 9.99497Z" fill="white"/>
<path d="M6.09324 9.62661C6.42991 9.62661 6.70285 9.35375 6.70285 9.01716C6.70285 8.68055 6.42991 8.40771 6.09324 8.40771C5.75657 8.40771 5.48364 8.68055 5.48364 9.01716C5.48364 9.35375 5.75657 9.62661 6.09324 9.62661Z" fill="white"/>
<path d="M3.12985 9.36304C3.32089 9.36304 3.47576 9.20821 3.47576 9.01721C3.47576 8.82624 3.32089 8.67139 3.12985 8.67139C2.9388 8.67139 2.78394 8.82624 2.78394 9.01721C2.78394 9.20821 2.9388 9.36304 3.12985 9.36304Z" fill="white"/>
<path d="M0.164362 9.14751C0.236395 9.14751 0.29479 9.08911 0.29479 9.01711C0.29479 8.94508 0.236395 8.88672 0.164362 8.88672C0.0923294 8.88672 0.0339355 8.94508 0.0339355 9.01711C0.0339355 9.08911 0.0923294 9.14751 0.164362 9.14751Z" fill="white"/>
<path d="M12.0247 7.53164C12.8413 7.53164 13.5048 6.86833 13.5048 6.05195C13.5048 5.23557 12.8413 4.57227 12.0247 4.57227C11.2082 4.57227 10.5447 5.23557 10.5447 6.05195C10.5447 6.86833 11.2082 7.53164 12.0247 7.53164Z" fill="white"/>
<path d="M9.05901 7.03012C9.59926 7.03012 10.0372 6.59228 10.0372 6.05217C10.0372 5.51206 9.59926 5.07422 9.05901 5.07422C8.51876 5.07422 8.08081 5.51206 8.08081 6.05217C8.08081 6.59228 8.51876 7.03012 9.05901 7.03012Z" fill="white"/>
<path d="M6.09324 6.66128C6.42991 6.66128 6.70285 6.38842 6.70285 6.05183C6.70285 5.71525 6.42991 5.44238 6.09324 5.44238C5.75657 5.44238 5.48364 5.71525 5.48364 6.05183C5.48364 6.38842 5.75657 6.66128 6.09324 6.66128Z" fill="white"/>
<path d="M3.13021 6.37256C3.30716 6.37256 3.45061 6.22916 3.45061 6.05225C3.45061 5.87534 3.30716 5.73193 3.13021 5.73193C2.95326 5.73193 2.80981 5.87534 2.80981 6.05225C2.80981 6.22916 2.95326 6.37256 3.13021 6.37256Z" fill="white"/>
<path d="M12.0247 4.56679C12.8413 4.56679 13.5048 3.90348 13.5048 3.0871C13.5048 2.27073 12.8413 1.60742 12.0247 1.60742C11.2082 1.60742 10.5447 2.27073 10.5447 3.0871C10.5447 3.90348 11.2082 4.56679 12.0247 4.56679Z" fill="white"/>
<path d="M9.05905 4.05657C9.59459 4.05657 10.0287 3.62253 10.0287 3.08712C10.0287 2.55171 9.59459 2.11768 9.05905 2.11768C8.52351 2.11768 8.08936 2.55171 8.08936 3.08712C8.08936 3.62253 8.52351 4.05657 9.05905 4.05657Z" fill="white"/>
<path d="M6.09328 3.56329C6.35635 3.56329 6.56962 3.35007 6.56962 3.08707C6.56962 2.82405 6.35635 2.61084 6.09328 2.61084C5.83022 2.61084 5.61694 2.82405 5.61694 3.08707C5.61694 3.35007 5.83022 3.56329 6.09328 3.56329Z" fill="white"/>
<path d="M12.0248 0.813699C12.3991 0.813699 12.6996 0.518896 12.7138 0.150391C12.2658 0.209918 11.8207 0.283619 11.384 0.377164C11.4833 0.635116 11.7328 0.813699 12.0248 0.813699Z" fill="white"/>
<path d="M67.1639 24.6984C67.1639 29.4323 63.5913 33.3781 56.1145 33.3781C48.6376 33.3781 43.3185 29.5995 43.0293 22.87H47.9713C48.2208 26.6486 50.7953 29.1403 56.1145 29.1403C60.5178 29.1403 62.2218 27.1872 62.2218 24.9053C62.2218 21.3762 59.687 20.71 53.8292 19.2558C49.1764 18.0936 44.1493 16.3078 44.1493 10.6584C44.1493 5.38308 48.2208 2.43506 54.6996 2.43506C61.1784 2.43506 65.9588 5.83946 66.3728 11.9453H61.4279C60.9714 8.49835 58.8109 6.67001 54.6968 6.67001C51.1668 6.67001 49.0459 7.99946 49.0459 10.1991C49.0459 13.4391 51.8302 14.0202 55.984 15.0577C62.3409 16.6763 67.1582 18.0483 67.1582 24.6927L67.1639 24.6984Z" fill="white"/>
<path d="M69.4885 17.8868C69.4885 8.95767 75.0969 2.43799 84.0708 2.43799C93.0447 2.43799 98.653 8.95767 98.653 17.8868C98.653 26.8159 93.0022 33.3781 84.0708 33.3781C75.1394 33.3781 69.4885 26.8159 69.4885 17.8868ZM93.7082 17.8868C93.7082 11.9057 90.8841 6.67295 84.0708 6.67295C77.2574 6.67295 74.3909 11.9057 74.3909 17.8868C74.3909 23.8679 77.2574 29.1432 84.0708 29.1432C90.8841 29.1432 93.7082 23.9104 93.7082 17.8868Z" fill="white"/>
<path d="M102.181 3.06152H108.577L116.885 25.9031H116.967L125.235 3.06152H131.631V32.7573H126.811V10.2445H126.729L118.878 32.7545H114.931L107.08 10.2445H106.998V32.7545H102.178V3.06152H102.181Z" fill="white"/>
<path d="M140.898 3.06152V32.7573H135.953V3.06152H140.898Z" fill="white"/>
<path d="M154.025 7.2568H144.512V3.06152H168.44V7.2568H158.967V32.7573H154.022V7.2568H154.025Z" fill="white"/>
<path d="M190.831 15.3129V19.5478H176.334V28.5592H193.284V32.7545H171.392V3.06152H192.87V7.2568H176.337V15.3129H190.834H190.831Z" fill="white"/>
</g>
</g>
<defs>
<clipPath id="clip0_117_35">
<rect width="193.371" height="36" fill="white"/>
</clipPath>
</defs>
</svg>
